<svg width="41" height="40" viewBox="0 0 41 40" fill="none" xmlns="http://www.w3.org/2000/svg">
<path d="M40.5066 37.8903H0V40H40.5066V37.8903Z" fill="#ACB3BA"/>
<path d="M7.93249 20.9282H1.68775V36.2028H7.93249V20.9282Z" fill="#CDD6E0"/>
<path d="M15.6965 13.5862H9.45179V36.2026H15.6965V13.5862Z" fill="#4CDBC4"/>
<path d="M23.3754 17.0468H17.1306V36.2027H23.3754V17.0468Z" fill="#FFD15C"/>
<path d="M31.1397 24.2192H24.8949V36.118H31.1397V24.2192Z" fill="#84DBFF"/>
<path d="M38.8185 10.8861H32.5738V36.1181H38.8185V10.8861Z" fill="#FF7058"/>
<path d="M26.498 15.1054L14.5992 3.2067L4.21941 13.5864L3.03799 12.405L14.5992 0.843872L26.498 12.7426L36.2872 2.95354L37.4686 4.13495L26.498 15.1054Z" fill="#CDD6E0"/>
<path d="M3.62873 15.1058C4.79391 15.1058 5.73847 14.1613 5.73847 12.9961C5.73847 11.8309 4.79391 10.8864 3.62873 10.8864C2.46355 10.8864 1.51898 11.8309 1.51898 12.9961C1.51898 14.1613 2.46355 15.1058 3.62873 15.1058Z" fill="#40596B"/>
<path d="M14.599 4.21949C15.7641 4.21949 16.7087 3.27492 16.7087 2.10974C16.7087 0.944565 15.7641 0 14.599 0C13.4338 0 12.4892 0.944565 12.4892 2.10974C12.4892 3.27492 13.4338 4.21949 14.599 4.21949Z" fill="#40596B"/>
<path d="M26.4139 16.1184C27.5791 16.1184 28.5237 15.1738 28.5237 14.0087C28.5237 12.8435 27.5791 11.8989 26.4139 11.8989C25.2487 11.8989 24.3042 12.8435 24.3042 14.0087C24.3042 15.1738 25.2487 16.1184 26.4139 16.1184Z" fill="#40596B"/>
<path d="M36.8776 5.65406C38.0428 5.65406 38.9873 4.70949 38.9873 3.54431C38.9873 2.37913 38.0428 1.43457 36.8776 1.43457C35.7124 1.43457 34.7678 2.37913 34.7678 3.54431C34.7678 4.70949 35.7124 5.65406 36.8776 5.65406Z" fill="#40596B"/>
</svg>
