<svg width="38" height="43" viewBox="0 0 38 43" fill="none" xmlns="http://www.w3.org/2000/svg">
<path d="M23.7576 29.6004L23.7071 29.6856C23.4043 30.197 22.9186 30.5 22.4013 30.5H16.9187C15.7616 30.5 14.7835 31.6065 14.7517 33.0173C14.7188 34.4809 15.6818 35.6802 16.8744 35.6802H10.1232L3.68656 27.7142C2.84826 26.6744 1.47581 26.6673 0.630311 27.6985C-0.194925 28.705 -0.211995 30.3304 0.591866 31.3624L7.60299 40.3184C8.76867 41.8075 10.3831 42.6499 12.071 42.6499H37.2353C37.6576 42.6499 37.9999 42.2324 37.9999 41.7173V31.4325C37.9999 30.9174 37.6576 30.4999 37.2353 30.4999H33.2511C32.7266 30.4999 32.2349 30.1883 31.9332 29.6648C30.9782 28.0071 29.4125 27.0331 27.7516 27.0633C26.1666 27.0923 24.6859 28.0329 23.7576 29.6004V29.6004Z" fill="#FFDDCE"/>
<path d="M33.7086 30.5001C33.2376 36.2799 29.0296 41.0599 23.3846 42.6501H37.2354C37.6577 42.6501 38 42.2326 38 41.7175V31.4326C38 30.9175 37.6577 30.5 37.2354 30.5H33.7086V30.5001Z" fill="#FFCBBE"/>
<path d="M17.9192 29.9498C18.5171 30.6833 19.4902 30.6833 20.0881 29.9498L31.5716 15.8616C34.6295 12.1319 34.544 6.02 31.315 2.42349C28.4338 -0.785566 24.0116 -0.810913 21.1071 2.36674C20.115 3.4522 19.4143 4.77294 19.0037 6.19072C18.5931 4.77294 17.8924 3.45211 16.9003 2.36674C13.9958 -0.810913 9.57358 -0.785566 6.69242 2.42349C3.4634 6.02 3.3779 12.1319 6.43585 15.8616L17.9192 29.9498Z" fill="#E7A2CB"/>
<path d="M31.5794 2.73279C30.8957 8.51507 27.2496 14.6691 21.6012 18.6467C18.3523 20.9345 14.9231 22.1627 11.7496 22.3808L17.9193 29.9499C18.5172 30.6834 19.4903 30.6834 20.0882 29.9499L31.5716 15.8617C34.5436 12.2367 34.546 6.36188 31.5794 2.73279V2.73279Z" fill="#E278B1"/>
<path d="M23.4129 14.1914H21.4239C21.0016 14.1914 20.6593 13.7739 20.6593 13.2588V10.8328C20.6593 10.3178 20.317 9.90027 19.8947 9.90027H18.1127C17.6904 9.90027 17.3481 10.3178 17.3481 10.8328V13.2588C17.3481 13.7739 17.0058 14.1914 16.5835 14.1914H14.5945C14.1722 14.1914 13.8299 14.6089 13.8299 15.1239V17.2975C13.8299 17.8126 14.1722 18.2301 14.5945 18.2301H16.5835C17.0058 18.2301 17.3481 18.6476 17.3481 19.1626V21.5886C17.3481 22.1037 17.6904 22.5212 18.1127 22.5212H19.8947C20.317 22.5212 20.6593 22.1037 20.6593 21.5886V19.1626C20.6593 18.6476 21.0016 18.2301 21.4239 18.2301H23.4129C23.8352 18.2301 24.1775 17.8126 24.1775 17.2975V15.1239C24.1775 14.6089 23.8352 14.1914 23.4129 14.1914Z" fill="#ECF4FF"/>
<path d="M24.3648 34.9808C24.3648 34.5944 24.1081 34.2814 23.7914 34.2814H14.9884C15.342 35.1124 16.0538 35.6802 16.8744 35.6802H23.7913C24.1081 35.6802 24.3648 35.3671 24.3648 34.9808Z" fill="#FFCBBE"/>
</svg>
