<svg width="38" height="43" viewBox="0 0 38 43" fill="none" xmlns="http://www.w3.org/2000/svg">
<path d="M9.17994 16.6702L0 13.7462V35.3498L9.17994 18.9015V16.6702Z" fill="#44C4A1"/>
<path d="M9.17994 0.257935L2.08537 2.30185C0.933663 2.63375 0 3.98766 0 5.32591V9.23478L9.17994 12.1588V0.257935Z" fill="#44C4A1"/>
<path d="M35.9146 0.0613957L24.0927 3.15928V24.1067L25.8824 24.7233L38 3.3274V1.93814C38 0.599884 37.0663 -0.240426 35.9146 0.0613957Z" fill="#44C4A1"/>
<path d="M38 28.8988V7.15356L27.6956 25.3482L38 28.8988Z" fill="#44C4A1"/>
<path d="M24.0927 32.4447V42.6499L35.9146 39.552C37.0663 39.2502 38 37.9206 38 36.5823V33.4107L25.9059 29.2433L24.0927 32.4447Z" fill="#44C4A1"/>
<path d="M0 39.1758V39.9696C0 41.3078 0.933663 42.1237 2.08537 41.7919L9.17994 39.748V22.7277L0 39.1758Z" fill="#44C4A1"/>
<path d="M9.17994 12.1581L0 9.23413V13.7463L9.17994 16.6703V12.1581Z" fill="#F6C358"/>
<path d="M9.17994 18.9015L0 35.3498V39.1759L9.17994 22.7278V18.9015Z" fill="#F6C358"/>
<path d="M24.0927 24.1065V28.6187V32.4449L25.9059 29.2434L38 33.4109V28.8987L27.6955 25.3481L38 7.15345V3.32727L25.8824 24.7232L24.0927 24.1065Z" fill="#F6C358"/>
<path d="M9.17996 16.67V18.9013L10.2373 17.5114L9.17996 16.67Z" fill="#3EA69B"/>
<path d="M12.2604 14.6093L21.4177 2.57119L9.17996 0.257324V12.1582L12.2604 14.6093Z" fill="#3EA69B"/>
<path d="M14.0734 16.0522L24.0927 24.0244V3.07698L23.9623 3.05237L14.0734 16.0522Z" fill="#3EA69B"/>
<path d="M17.3059 41.2845L24.0928 42.5677V32.3625L17.3059 41.2845Z" fill="#3EA69B"/>
<path d="M24.0928 28.5362L12.0504 18.9542L9.17996 22.7277V39.748L14.7614 40.8033L24.0928 28.5362Z" fill="#3EA69B"/>
<path d="M23.9624 3.05223L21.4177 2.57117L12.2604 14.6093L9.17996 12.1582V16.6703L10.2373 17.5116L9.17996 18.9016V22.7278L12.0504 18.9544L24.0928 28.5364V24.0242L14.0735 16.052L23.9624 3.05223Z" fill="#F6C358"/>
<path d="M17.3059 41.2844L24.0927 32.3624V28.5363L14.7614 40.8033L17.3059 41.2844Z" fill="#F6C358"/>
<path d="M8.55811 6.05045C8.55811 7.97198 5.56383 13.7864 5.56383 13.7864C5.67833 13.7864 2.56955 7.97208 2.56955 6.05045C2.56955 4.12883 3.91016 2.57117 5.56383 2.57117C7.2175 2.57117 8.55811 4.12883 8.55811 6.05045Z" fill="#CE412D"/>
<path d="M5.56371 8.06316C6.51904 8.06316 7.29349 7.16326 7.29349 6.05319C7.29349 4.94311 6.51904 4.04321 5.56371 4.04321C4.60837 4.04321 3.83392 4.94311 3.83392 6.05319C3.83392 7.16326 4.60837 8.06316 5.56371 8.06316Z" fill="white"/>
<path d="M30.6898 28.2028C30.6898 30.1243 27.6955 35.9387 27.6955 35.9387C27.81 35.9387 24.7012 30.1243 24.7012 28.2028C24.7012 26.2813 26.0418 24.7235 27.6955 24.7235C29.3493 24.7235 30.6898 26.2813 30.6898 28.2028Z" fill="#CE412D"/>
<path d="M27.6944 30.2126C28.6497 30.2126 29.4242 29.3127 29.4242 28.2026C29.4242 27.0925 28.6497 26.1926 27.6944 26.1926C26.739 26.1926 25.9646 27.0925 25.9646 28.2026C25.9646 29.3127 26.739 30.2126 27.6944 30.2126Z" fill="white"/>
</svg>
