<svg width="256" height="200" viewBox="0 0 256 200" fill="none" xmlns="http://www.w3.org/2000/svg">
<path opacity="0.1" d="M148.741 35.2671C132.329 34.6487 116.686 28.9044 101.771 22.6209C86.8558 16.3374 72.0727 9.37417 56.0451 6.04461C45.7403 3.90071 33.9552 3.59918 25.6539 9.58881C17.6636 15.351 15.0827 25.2988 13.6944 34.5286C12.6503 41.4739 12.0445 48.7821 14.8989 55.2853C16.8858 59.798 20.4119 63.5926 22.8514 67.9162C31.3366 82.9593 25.338 101.511 16.141 116.212C11.8277 123.111 6.82377 129.675 3.49568 137.012C0.167596 144.348 -1.37388 152.752 1.53937 160.234C4.4267 167.645 11.3044 173.22 18.7573 177.138C33.894 185.087 51.7294 187.361 69.1217 188.665C107.621 191.519 146.328 190.282 184.928 189.045C199.214 188.585 213.564 188.123 227.616 185.723C235.42 184.392 243.479 182.281 249.145 177.186C256.336 170.716 258.12 159.764 253.3 151.651C245.216 138.047 222.864 134.666 217.212 120.065C214.103 112.028 217.297 103.075 221.818 95.6208C231.512 79.6323 247.766 65.6037 248.622 47.3256C249.211 34.7714 241.397 22.2018 229.315 16.2607C216.654 10.0283 199.094 10.8154 189.753 21.1158C180.134 31.728 163.23 35.8114 148.741 35.2671Z" fill="#493657"/>
<path d="M57.0987 185.266C57.0987 185.266 44.1352 174.641 41.6863 161.126C40.6932 155.45 38.0294 150.276 34.0944 146.379C32.212 144.547 30.1788 142.904 28.0204 141.473" stroke="#535461" stroke-width="2" stroke-miterlimit="10"/>
<path d="M26.434 132.959C27.5701 134.625 28.0839 141.685 28.0839 141.685C28.0839 141.685 22.0099 139.092 20.8715 137.428C20.3248 136.629 20.0935 135.626 20.2286 134.642C20.3636 133.657 20.8539 132.771 21.5915 132.178C22.3292 131.586 23.2537 131.335 24.1619 131.481C25.07 131.628 25.8873 132.159 26.434 132.959V132.959Z" fill="#493657"/>
<path d="M37.3282 138.499C37.446 140.566 34.3418 146.796 34.3418 146.796C34.3418 146.796 30.54 141.036 30.4198 138.969C30.3741 137.984 30.6884 137.018 31.2946 136.282C31.9009 135.546 32.7502 135.099 33.6586 135.037C34.567 134.975 35.4613 135.304 36.1478 135.952C36.8342 136.6 37.2574 137.515 37.3258 138.499H37.3282Z" fill="#493657"/>
<path d="M47.8874 154.424C47.0295 156.274 41.4457 159.953 41.4457 159.953C41.4457 159.953 40.8494 152.901 41.7074 151.051C42.1297 150.181 42.8502 149.525 43.7138 149.225C44.5775 148.925 45.5152 149.005 46.3252 149.447C47.1352 149.889 47.7527 150.658 48.0449 151.589C48.337 152.52 48.2805 153.538 47.8874 154.424V154.424Z" fill="#493657"/>
<path d="M53.3769 168.416C52.8183 170.397 47.8898 175.045 47.8898 175.045C47.8898 175.045 46.1999 168.204 46.7585 166.221C47.027 165.27 47.6331 164.473 48.4436 164.006C49.254 163.539 50.2024 163.44 51.0801 163.731C51.9577 164.022 52.6928 164.68 53.1235 165.558C53.5543 166.437 53.6454 167.465 53.3769 168.416V168.416Z" fill="#493657"/>
<path d="M28.7227 151.804C30.6083 152.08 36.5692 149.162 36.5692 149.162C36.5692 149.162 31.5394 144.644 29.6443 144.368C28.7348 144.236 27.8139 144.501 27.0844 145.104C26.3548 145.708 25.8763 146.601 25.7541 147.587C25.6319 148.573 25.876 149.571 26.4327 150.362C26.9895 151.153 27.8132 151.672 28.7227 151.804V151.804Z" fill="#493657"/>
<path d="M35.334 168.084C37.2196 167.734 42.0916 163.02 42.0916 163.02C42.0916 163.02 36.0435 160.342 34.1603 160.692C33.7094 160.772 33.2776 160.948 32.8898 161.21C32.5021 161.472 32.166 161.815 31.9011 162.218C31.6361 162.622 31.4475 163.078 31.3461 163.561C31.2447 164.044 31.2326 164.544 31.3104 165.032C31.3882 165.52 31.5545 165.987 31.7995 166.405C32.0445 166.823 32.3635 167.185 32.738 167.468C33.1125 167.752 33.5352 167.953 33.9816 168.058C34.4279 168.164 34.8892 168.173 35.3388 168.084H35.334Z" fill="#493657"/>
<path d="M43.7603 182.954C45.6718 182.954 51.2108 179.2 51.2108 179.2C51.2108 179.2 45.6695 175.451 43.7579 175.451C42.8403 175.451 41.9602 175.846 41.3113 176.55C40.6624 177.253 40.2979 178.207 40.2979 179.202C40.2979 180.197 40.6624 181.151 41.3113 181.855C41.9602 182.558 42.8403 182.954 43.7579 182.954H43.7603Z" fill="#493657"/>
<path d="M183.033 93.3697C183.033 93.3697 191.024 78.0251 203.068 73.6044C208.125 71.7834 212.502 68.2338 215.541 63.4879C216.966 61.219 218.197 58.8129 219.216 56.2999" stroke="#535461" stroke-width="2" stroke-miterlimit="10"/>
<path d="M226.777 53.489C225.405 54.9302 219.02 56.4225 219.02 56.4225C219.02 56.4225 220.587 49.5488 221.959 48.105C222.621 47.4329 223.5 47.0696 224.407 47.0932C225.314 47.1169 226.176 47.5256 226.808 48.2314C227.439 48.9372 227.79 49.8837 227.784 50.867C227.778 51.8504 227.417 52.7919 226.777 53.489Z" fill="#493657"/>
<path d="M223.166 65.9155C221.28 66.3192 215.183 63.8099 215.183 63.8099C215.183 63.8099 219.944 58.9548 221.818 58.5587C222.268 58.4505 222.733 58.4408 223.187 58.5302C223.64 58.6196 224.072 58.8063 224.458 59.0793C224.844 59.3523 225.176 59.7062 225.434 60.1202C225.692 60.5341 225.871 60.9998 225.961 61.4898C226.051 61.9799 226.05 62.4845 225.957 62.9739C225.865 63.4634 225.683 63.9279 225.422 64.3402C225.162 64.7524 224.828 65.1041 224.441 65.3746C224.053 65.6452 223.62 65.829 223.166 65.9155V65.9155Z" fill="#493657"/>
<path d="M210.023 79.3768C208.218 78.6996 204.114 73.1904 204.114 73.1904C204.114 73.1904 210.478 71.6112 212.288 72.2884C212.723 72.4448 213.125 72.6933 213.471 73.0195C213.817 73.3457 214.099 73.743 214.302 74.1885C214.505 74.6339 214.624 75.1187 214.652 75.6145C214.681 76.1103 214.618 76.6073 214.468 77.0767C214.318 77.5461 214.084 77.9785 213.779 78.3489C213.473 78.7192 213.103 79.0201 212.689 79.2341C212.276 79.4481 211.827 79.5709 211.37 79.5954C210.912 79.6199 210.454 79.5456 210.023 79.3768V79.3768Z" fill="#493657"/>
<path d="M197.946 87.1347C196.06 86.7974 191.167 82.1084 191.167 82.1084C191.167 82.1084 197.199 79.3844 199.082 79.7217C199.989 79.8834 200.799 80.4287 201.334 81.2379C201.87 82.047 202.087 83.0537 201.938 84.0364C201.789 85.019 201.286 85.8972 200.539 86.4778C199.793 87.0584 198.864 87.2937 197.958 87.1321L197.946 87.1347Z" fill="#493657"/>
<path d="M209.858 58.436C209.856 60.5084 213.323 66.521 213.323 66.521C213.323 66.521 216.786 60.516 216.786 58.4462C216.798 57.9456 216.717 57.4473 216.549 56.9809C216.38 56.5145 216.127 56.0894 215.805 55.7307C215.483 55.3719 215.097 55.0868 214.672 54.8921C214.246 54.6975 213.789 54.5972 213.327 54.5972C212.865 54.5972 212.407 54.6975 211.982 54.8921C211.556 55.0868 211.171 55.3719 210.848 55.7307C210.526 56.0894 210.273 56.5145 210.105 56.9809C209.936 57.4473 209.856 57.9456 209.868 58.4462L209.858 58.436Z" fill="#493657"/>
<path d="M195.851 67.7016C196.421 69.6794 201.38 74.2918 201.38 74.2918C201.38 74.2918 203.03 67.4384 202.455 65.4606C202.157 64.5443 201.542 63.7892 200.741 63.3543C199.939 62.9194 199.013 62.8387 198.158 63.1291C197.303 63.4196 196.585 64.0585 196.155 64.9114C195.726 65.7643 195.618 66.7646 195.855 67.7016H195.851Z" fill="#493657"/>
<path d="M183.389 78.7329C183.644 80.7771 187.811 86.2378 187.811 86.2378C187.811 86.2378 190.5 79.7857 190.246 77.7338C190.195 77.2366 190.054 76.7554 189.829 76.3185C189.604 75.8816 189.302 75.4978 188.938 75.1896C188.575 74.8815 188.158 74.6552 187.713 74.5242C187.268 74.3932 186.803 74.36 186.346 74.4266C185.888 74.4932 185.448 74.6583 185.05 74.9122C184.653 75.166 184.306 75.5035 184.031 75.9047C183.755 76.3059 183.557 76.7629 183.447 77.2485C183.336 77.7342 183.317 78.2389 183.389 78.7329V78.7329Z" fill="#493657"/>
<path opacity="0.25" d="M226.777 53.489C225.405 54.9302 219.02 56.4225 219.02 56.4225C219.02 56.4225 220.587 49.5488 221.959 48.105C222.621 47.4329 223.5 47.0696 224.407 47.0932C225.314 47.1169 226.176 47.5256 226.808 48.2314C227.439 48.9372 227.79 49.8837 227.784 50.867C227.778 51.8504 227.417 52.7919 226.777 53.489Z" fill="black"/>
<path opacity="0.25" d="M223.166 65.9155C221.28 66.3192 215.183 63.8099 215.183 63.8099C215.183 63.8099 219.944 58.9548 221.818 58.5587C222.268 58.4505 222.733 58.4408 223.187 58.5302C223.64 58.6196 224.072 58.8063 224.458 59.0793C224.844 59.3523 225.176 59.7062 225.434 60.1202C225.692 60.5341 225.871 60.9998 225.961 61.4898C226.051 61.9799 226.05 62.4845 225.957 62.9739C225.865 63.4634 225.683 63.9279 225.422 64.3402C225.162 64.7524 224.828 65.1041 224.441 65.3746C224.053 65.6452 223.62 65.829 223.166 65.9155V65.9155Z" fill="black"/>
<path opacity="0.25" d="M210.023 79.3768C208.218 78.6996 204.114 73.1904 204.114 73.1904C204.114 73.1904 210.478 71.6112 212.288 72.2884C212.723 72.4448 213.125 72.6933 213.471 73.0195C213.817 73.3457 214.099 73.743 214.302 74.1885C214.505 74.6339 214.624 75.1187 214.652 75.6145C214.681 76.1103 214.618 76.6073 214.468 77.0767C214.318 77.5461 214.084 77.9785 213.779 78.3489C213.473 78.7192 213.103 79.0201 212.689 79.2341C212.276 79.4481 211.827 79.5709 211.37 79.5954C210.912 79.6199 210.454 79.5456 210.023 79.3768V79.3768Z" fill="black"/>
<path opacity="0.25" d="M197.946 87.1347C196.06 86.7974 191.167 82.1084 191.167 82.1084C191.167 82.1084 197.199 79.3844 199.082 79.7217C199.989 79.8834 200.799 80.4287 201.334 81.2379C201.87 82.047 202.087 83.0537 201.938 84.0364C201.789 85.019 201.286 85.8972 200.539 86.4778C199.793 87.0584 198.864 87.2937 197.958 87.1321L197.946 87.1347Z" fill="black"/>
<path opacity="0.25" d="M209.858 58.436C209.856 60.5084 213.323 66.521 213.323 66.521C213.323 66.521 216.786 60.516 216.786 58.4462C216.798 57.9456 216.717 57.4473 216.549 56.9809C216.38 56.5145 216.127 56.0894 215.805 55.7307C215.483 55.3719 215.097 55.0868 214.672 54.8921C214.246 54.6975 213.789 54.5972 213.327 54.5972C212.865 54.5972 212.407 54.6975 211.982 54.8921C211.556 55.0868 211.171 55.3719 210.848 55.7307C210.526 56.0894 210.273 56.5145 210.105 56.9809C209.936 57.4473 209.856 57.9456 209.868 58.4462L209.858 58.436Z" fill="black"/>
<path opacity="0.25" d="M195.851 67.7016C196.421 69.6794 201.38 74.2918 201.38 74.2918C201.38 74.2918 203.03 67.4384 202.455 65.4606C202.157 64.5443 201.542 63.7892 200.741 63.3543C199.939 62.9194 199.013 62.8387 198.158 63.1291C197.303 63.4196 196.585 64.0585 196.155 64.9114C195.726 65.7643 195.618 66.7646 195.855 67.7016H195.851Z" fill="black"/>
<path opacity="0.25" d="M183.389 78.7329C183.644 80.7771 187.811 86.2378 187.811 86.2378C187.811 86.2378 190.5 79.7857 190.246 77.7338C190.195 77.2366 190.054 76.7554 189.829 76.3185C189.604 75.8816 189.302 75.4978 188.938 75.1896C188.575 74.8815 188.158 74.6552 187.713 74.5242C187.268 74.3932 186.803 74.36 186.346 74.4266C185.888 74.4932 185.448 74.6583 185.05 74.9122C184.653 75.166 184.306 75.5035 184.031 75.9047C183.755 76.3059 183.557 76.7629 183.447 77.2485C183.336 77.7342 183.317 78.2389 183.389 78.7329V78.7329Z" fill="black"/>
<path d="M183.493 93.0656C183.493 93.0656 185.063 75.526 194.411 66.1991C198.353 62.312 201.028 57.1442 202.033 51.4703C202.491 48.773 202.719 46.0359 202.714 43.2933" stroke="#535461" stroke-width="2" stroke-miterlimit="10"/>
<path d="M208.574 37.3752C207.867 39.2968 202.578 43.467 202.578 43.467C202.578 43.467 201.442 36.4936 202.156 34.572C202.5 33.6493 203.167 32.9125 204.012 32.5236C204.857 32.1347 205.81 32.1257 206.661 32.4984C207.512 32.8711 208.192 33.5952 208.551 34.5112C208.909 35.4272 208.918 36.4602 208.574 37.3829V37.3752Z" fill="#493657"/>
<path d="M209.92 50.3357C208.357 51.5265 201.835 51.9175 201.835 51.9175C201.835 51.9175 204.376 45.3912 205.939 44.2005C206.309 43.8997 206.732 43.6827 207.181 43.5622C207.631 43.4417 208.098 43.4202 208.555 43.4989C209.012 43.5777 209.45 43.755 209.843 44.0206C210.236 44.2861 210.575 44.6344 210.842 45.0448C211.108 45.4552 211.296 45.9194 211.394 46.4099C211.492 46.9004 211.498 47.4072 211.412 47.9003C211.326 48.3934 211.15 48.8628 210.893 49.2807C210.637 49.6986 210.306 50.0565 209.92 50.3332V50.3357Z" fill="#493657"/>
<path d="M202.929 68.4222C201.024 68.596 195.212 65.3558 195.212 65.3558C195.212 65.3558 200.444 61.114 202.349 60.9403C203.263 60.8569 204.171 61.1708 204.872 61.813C205.573 62.4551 206.01 63.3729 206.087 64.3644C206.164 65.3559 205.874 66.3399 205.282 67.0999C204.69 67.8599 203.843 68.3337 202.929 68.4171V68.4222Z" fill="#493657"/>
<path d="M194.795 80.8129C192.945 81.3239 186.713 79.2107 186.713 79.2107C186.713 79.2107 191.207 74.072 193.058 73.5507C193.946 73.301 194.889 73.444 195.68 73.9484C196.471 74.4528 197.045 75.2771 197.276 76.2402C197.506 77.2032 197.374 78.226 196.909 79.0835C196.444 79.9411 195.683 80.5631 194.795 80.8129V80.8129Z" fill="#493657"/>
<path d="M194.96 49.3443C195.733 51.2377 201.14 55.2215 201.14 55.2215C201.14 55.2215 202.059 48.2097 201.286 46.3162C200.901 45.4303 200.211 44.7429 199.365 44.4009C198.518 44.0588 197.582 44.0892 196.756 44.4856C195.93 44.882 195.28 45.613 194.944 46.5223C194.608 47.4316 194.614 48.4472 194.96 49.3519V49.3443Z" fill="#493657"/>
<path d="M185.617 63.9658C186.878 65.5219 193.133 67.5611 193.133 67.5611C193.133 67.5611 192.077 60.5723 190.816 59.0161C190.519 58.6381 190.155 58.3279 189.745 58.1037C189.336 57.8795 188.89 57.7456 188.433 57.7099C187.976 57.6743 187.516 57.7375 187.082 57.8959C186.647 58.0543 186.246 58.3047 185.901 58.6327C185.557 58.9606 185.276 59.3595 185.075 59.8062C184.874 60.2529 184.757 60.7384 184.73 61.2346C184.704 61.7308 184.768 62.2278 184.921 62.6967C185.073 63.1655 185.309 63.5969 185.617 63.9658V63.9658Z" fill="#493657"/>
<path d="M178.336 79.5327C179.335 81.2959 185.183 84.4517 185.183 84.4517C185.183 84.4517 185.232 77.3709 184.24 75.6052C183.746 74.7899 182.979 74.2153 182.101 74.0032C181.222 73.7911 180.302 73.9582 179.536 74.4691C178.77 74.9799 178.217 75.7944 177.995 76.7397C177.773 77.685 177.9 78.6868 178.348 79.5327H178.336Z" fill="#493657"/>
<path d="M171.472 24.3764C171.863 22.8203 172.335 21.2564 172.665 19.6798C172.269 21.2564 171.795 22.8254 171.472 24.3764Z" fill="url(#paint0_linear)"/>
<path d="M169.719 39.3658C169.686 39.3045 169.662 39.2432 169.636 39.187C169.636 39.1614 169.613 39.141 169.603 39.1154C169.552 39.1417 169.499 39.1647 169.445 39.1844C169.341 39.2278 169.235 39.2687 169.127 39.3019C169.019 39.3352 168.974 39.353 168.891 39.3735C168.823 39.399 168.753 39.4187 168.681 39.4323L168.7 39.4783C168.788 39.4578 168.872 39.4399 168.96 39.4144L168.983 39.7312C169.082 39.7312 169.174 39.7159 169.264 39.7159C169.306 39.7134 169.349 39.7134 169.391 39.7159C169.575 39.7159 169.735 39.7159 169.862 39.7159C169.813 39.6009 169.761 39.4808 169.719 39.3658ZM217.566 121.935C216.458 120.318 214.247 102.957 214.247 102.957C214.247 102.957 209.898 90.6125 211.084 85.6859C212.27 80.7592 207.845 68.1539 207.845 68.1539C207.845 68.1539 204.923 66.7766 204.765 64.7323C204.765 64.7323 192.831 60.6439 192.273 57.5775C191.82 55.0631 184.419 53.259 181.761 52.6892C180.95 49.1424 180.134 45.8333 179.533 44.0267C179.371 43.4645 179.217 42.979 179.076 42.5957C178.06 39.7849 174.92 39.5294 172.644 39.7542C172.545 39.2752 172.362 38.8213 172.104 38.4178C172.066 38.2791 171.992 38.1555 171.889 38.0626C171.841 38.0175 171.788 37.9765 171.734 37.94C171.693 37.8571 171.638 37.7828 171.574 37.7202C171.509 37.657 171.438 37.6022 171.361 37.5567C171.307 37.5245 171.25 37.4964 171.192 37.4723C171.055 37.416 170.914 37.374 170.77 37.3471C170.602 37.3097 170.432 37.2858 170.261 37.2756C170.677 37.0783 171.048 36.7843 171.347 36.4144C171.551 36.1548 171.703 35.8519 171.793 35.5252C171.867 35.2535 171.901 34.9704 171.892 34.6871C171.831 34.8038 171.76 34.9142 171.68 35.0167C171.779 33.8847 171.227 32.7348 170.911 31.6079C170.529 30.1409 170.458 28.5988 170.704 27.0978C171.02 24.8338 171.802 22.5442 172.333 20.2394C172.334 20.2266 172.334 20.2138 172.333 20.201C172.611 19.0564 172.783 17.8845 172.846 16.7028C172.938 14.3187 172.375 11.9397 171.47 9.76772C170.666 7.84357 169.481 5.95009 167.666 5.16817C166.317 4.57789 164.807 4.67244 163.355 4.57534C160.097 4.35558 156.991 3.1137 153.894 1.98426C150.797 0.854814 147.61 -0.172419 144.35 0.0243392C141.09 0.221098 137.736 1.92549 136.249 5.05318C135.778 6.02931 135.507 7.11531 134.943 8.03267C133.887 9.76261 131.997 10.6289 130.42 11.8222C128.843 13.0155 127.455 14.7097 126.885 16.7309C126.573 17.8199 126.529 18.9782 126.757 20.0912V20.0912C126.809 20.3425 126.875 20.59 126.955 20.8322C127.179 21.5074 127.528 22.1257 127.981 22.649C128.322 23.0358 128.715 23.3656 129.145 23.6277V23.6277C129.686 23.9526 130.265 24.1968 130.866 24.3534C130.845 24.4301 130.823 24.5118 130.8 24.591C130.762 24.7214 130.729 24.8466 130.694 24.9871C130.616 25.3014 130.543 25.6208 130.482 25.9428C130.479 25.9657 130.479 25.9889 130.482 26.0118C130.192 27.4652 130.047 28.9481 130.048 30.435C130.047 31.1383 130.08 31.8411 130.147 32.5406V32.5406C131.09 42.91 138.986 51.0896 148.741 51.6211C149.076 51.639 149.413 51.6492 149.755 51.6492C149.91 51.6492 150.064 51.6492 150.226 51.6492C150.379 51.8689 150.53 52.0938 150.674 52.3136C150.818 52.5333 150.95 52.7582 151.075 52.9779L150.733 52.5946L150.391 52.2548C150.298 52.3927 150.195 52.5217 150.082 52.6406C149.86 52.5556 149.632 52.4857 149.401 52.4311V52.4311C148.423 52.196 146.933 52.1091 144.972 52.7505C143.169 53.3357 140.966 54.5392 138.387 56.8262L125.822 65.0032L119.024 69.4852L116.575 75.9757C116.575 75.9757 114.734 83.6876 112.686 92.5239C112.606 92.5494 112.528 92.575 112.45 92.6056C112.285 92.5851 112.118 92.5749 111.951 92.575C110.762 92.5719 109.619 93.0683 108.761 93.9598C107.903 94.8513 107.397 96.0686 107.35 97.3559C103.277 102.722 103.046 108.088 104.003 110.552C104.09 110.782 104.199 111.002 104.328 111.208C104.955 112.189 106.127 114.719 107.315 117.415C107.284 117.637 107.265 117.824 107.256 117.964C107.253 118.01 107.253 118.056 107.256 118.102C107.256 118.102 107.963 129.681 105.606 133C105.09 133.723 105.167 134.674 105.606 135.726C107.185 139.513 113.429 144.57 113.429 144.57C113.429 144.57 120.917 144.527 125.089 144.034C125.077 144.489 125.068 144.941 125.058 145.383C124.964 149.85 124.964 153.593 124.964 153.593L124.808 158.277C124.808 158.277 123.394 168.148 122.687 170.87C122.241 172.576 122.755 188.381 123.203 200H196.982C197.849 193.126 196.626 172.242 196.626 172.242C196.626 172.242 195.464 166.842 195.422 162.135C195.419 162.13 195.418 162.125 195.418 162.119C195.418 162.113 195.419 162.107 195.422 162.102C195.422 161.691 195.422 161.29 195.436 160.896L195.971 160.876L196.933 160.84H197.02C197.02 160.84 197.043 160.743 197.098 160.584C197.225 160.19 197.398 159.814 197.614 159.468C198.024 158.811 198.665 158.167 199.629 158.124C200.162 158.101 200.987 157.633 201.918 156.943C201.924 156.945 201.93 156.945 201.936 156.943C204.442 155.106 207.754 151.715 208.557 151.158C209.663 150.391 214.957 145.281 214.957 145.281C214.957 145.281 215.746 144.197 216.588 142.891L216.618 142.845C217.665 141.21 218.777 139.255 218.504 138.639C218.032 137.536 218.82 134.896 218.82 134.896C221.278 130.018 218.674 123.553 217.566 121.935ZM171.988 43.3393C172.011 43.4156 172.025 43.4945 172.031 43.5744C171.972 43.4901 171.913 43.4007 171.854 43.3189L171.797 43.2371L171.757 43.1758L171.847 43.0429C171.847 43.0429 171.847 43.0429 171.847 43.0608C171.909 43.1436 171.957 43.238 171.988 43.3393V43.3393ZM171.196 41.0753C170.94 41.1315 170.737 41.1827 170.605 41.221C170.437 40.899 170.277 40.577 170.133 40.25C170.511 40.4876 170.867 40.764 171.196 41.0753V41.0753ZM170.753 41.4791C170.753 41.474 170.753 41.4688 170.753 41.4637L170.772 41.4791C170.869 41.5481 170.963 41.6145 171.05 41.6835C171.128 41.7448 171.199 41.8036 171.269 41.8649C171.222 41.9544 171.17 42.0463 171.119 42.1204C171.036 41.9799 170.958 41.8445 170.883 41.7039C170.836 41.6477 170.793 41.5711 170.753 41.4791ZM169.339 38.3258C169.794 38.2771 170.253 38.2771 170.709 38.3258V38.3258C170.772 38.3258 170.829 38.3386 170.885 38.3488C171.013 38.3702 171.139 38.4053 171.26 38.4536C171.539 38.8761 171.71 39.3703 171.757 39.8871L171.63 39.9076L171.505 39.9331C171.269 39.9765 171.034 40.02 170.85 40.0609L170.614 40.1145C170.301 40.1886 170.119 40.2449 170.112 40.2474C170.082 40.1784 170.051 40.1145 170.018 40.0481C169.966 39.9382 169.912 39.8258 169.865 39.7159C169.818 39.606 169.756 39.4808 169.707 39.3658C169.674 39.3045 169.65 39.2432 169.624 39.187C169.624 39.1614 169.601 39.141 169.591 39.1154C169.578 39.0883 169.566 39.0601 169.556 39.0311C169.412 38.7142 169.28 38.3974 169.153 38.0856C169.139 38.055 169.127 38.0217 169.115 37.9911L169.294 37.9783V38.0447L169.339 38.3258ZM113.103 196.842C113.085 193.037 112.83 188.92 112.123 185.057C111.821 183.414 111.51 181.77 111.194 180.156C111.114 179.752 111.036 179.353 110.959 178.955L110.233 179.059H110.167C108.187 168.938 106.117 160.02 106.117 160.02C106.117 160.02 102.007 143.004 102.483 141.647C102.544 141.471 102.466 140.995 102.292 140.298C101.297 136.429 97.1441 125.768 95.6922 122.125C95.6922 122.109 95.6804 122.091 95.6757 122.079C95.44 121.468 95.2703 121.056 95.2184 120.936L95.5602 115.499L95.5791 115.172L95.6238 114.476L95.605 114.459L95.6238 114.137C95.6238 114.137 92.0365 110.948 85.9601 108.645C85.7244 108.553 85.4746 108.464 85.2271 108.377C85.5311 106.177 85.9342 103.693 86.4598 101.273C86.5093 101.03 86.5635 100.795 86.6201 100.558C86.6696 100.32 86.7261 100.09 86.7827 99.8576C86.8723 99.4794 86.9689 99.1063 87.0679 98.7384C87.3955 98.6259 87.7184 98.5007 88.0366 98.3678L88.1592 98.3167C92.0791 96.6631 95.3136 93.5256 97.2636 89.4852C99.2137 85.4449 99.7474 80.7753 98.7657 76.3411V76.3411C98.206 73.8263 97.1724 71.4642 95.7299 69.4034C95.6215 69.245 95.506 69.0866 95.3905 68.9307C95.275 68.7748 95.1359 68.6011 95.0063 68.4426C95.6875 66.7638 96.4912 65.1667 96.5572 63.5339C96.569 63.3271 96.569 63.1198 96.5572 62.913V62.8874C96.47 61.8372 96.041 60.7742 95.0417 59.6575C93.5827 58.0196 91.5061 57.1891 89.4296 56.7905C87.3531 56.3918 85.2365 56.3816 83.1482 56.1133C79.6858 55.6636 76.3129 54.506 72.8505 54.1508C68.5857 53.7227 64.2919 54.5157 60.3984 56.4506C57.8222 57.7283 55.213 59.9616 55.0575 63.0254C54.9302 65.5577 56.5565 67.9852 56.1464 70.4869C55.7386 72.9451 53.4288 74.8795 53.6315 77.3658C53.7092 78.3368 54.1689 79.2056 54.744 79.9799C54.942 80.2354 55.1517 80.4909 55.3686 80.7465C56.2077 81.7098 57.1316 82.6348 57.6007 83.8486C57.6195 83.8997 57.6384 83.9508 57.6549 84.0019C58.0532 85.2003 57.8741 86.7156 56.8888 87.403C56.8943 87.4076 56.8984 87.4138 56.9006 87.4209V87.4209C56.9148 87.4413 56.9289 87.4567 56.9407 87.4771C56.9421 87.473 56.9421 87.4685 56.9407 87.4643C57.29 87.9133 57.7609 88.2316 58.2865 88.374L58.4869 88.4405C58.3243 88.6321 58.171 88.8314 58.0155 89.041L57.9141 89.1866C57.6544 89.5653 57.4182 89.9622 57.207 90.3748C57.0868 90.6048 56.9713 90.8348 56.8747 91.0648C56.5516 91.7658 56.3177 92.5111 56.1794 93.2802C55.9272 94.9718 56.2831 96.735 55.9013 98.3908C55.4299 100.435 53.9379 102.004 53.0964 103.903C51.5031 107.48 52.4058 111.678 52.7264 115.629C53.1624 120.995 52.4553 126.384 51.7506 131.715C51.3766 134.549 51.0026 137.387 50.6286 140.226C49.6858 147.354 48.743 154.481 47.8002 161.609C47.4561 164.221 47.0484 166.975 45.4432 168.991H45.4597C45.4597 168.991 45.4597 169.007 45.4432 169.012C45.9251 169.24 46.4375 169.383 46.9611 169.436V169.436C49.0565 169.663 51.2768 168.565 53.1624 167.364C54.6557 166.428 56.0699 165.352 57.3885 164.147C57.1953 164.913 56.9878 165.749 56.7663 166.648C56.767 166.657 56.767 166.665 56.7663 166.674V166.674C54.1052 177.662 49.8249 197.805 49.8249 197.805C49.8249 197.805 49.436 198.681 48.9316 199.987H115.399C114.621 198.965 113.898 197.986 113.332 197.197L113.103 196.842ZM63.8891 95.2427C63.9056 95.212 63.9174 95.1839 63.9339 95.1558C63.9339 95.2376 63.9339 95.3168 63.9339 95.3935C63.9339 95.4701 63.9339 95.5391 63.9339 95.6107C63.9339 95.6822 63.9339 95.6745 63.9339 95.7103C63.9339 95.7461 63.9339 95.7103 63.9339 95.7103C63.9339 95.8151 63.9127 95.9198 63.8962 96.0246C63.8962 96.0246 63.8962 96.0374 63.8962 96.0476L64.1319 96.1422L64.4053 96.2648C66.0207 96.9565 67.6564 97.5825 69.3126 98.143C69.4823 98.2017 69.6544 98.258 69.8264 98.3116L69.8618 98.6285C69.9042 98.953 69.9443 99.2826 69.982 99.6123C69.982 99.6123 69.982 99.6276 69.982 99.6378C70.0881 100.55 70.1918 101.46 70.2837 102.349C70.2837 102.349 65.9562 100.56 66.0104 103.277C66.008 103.325 66.008 103.374 66.0104 103.422C66.0057 103.487 66.0057 103.552 66.0104 103.616C66.0505 105.732 66.661 106.987 66.7835 107.631C66.7762 107.657 66.7633 107.682 66.7458 107.702C66.6413 107.949 66.6052 108.223 66.6421 108.492C66.638 108.949 66.6711 109.406 66.7411 109.856C66.6138 109.941 66.4889 110.025 66.364 110.112C66.2697 110.176 66.1801 110.247 66.0882 110.319C65.51 108.145 64.7535 106.031 63.8279 104.002C63.1797 102.556 62.4514 101.048 62.4584 99.4615C62.4584 99.3593 62.4584 99.2545 62.4702 99.1498C62.4965 98.6899 62.5773 98.2355 62.7106 97.798C62.7649 97.6319 62.8238 97.4684 62.8898 97.3074C63.0438 96.9249 63.2161 96.5513 63.406 96.1882C63.5285 95.948 63.6582 95.7103 63.7831 95.4701C63.8231 95.3986 63.8609 95.3245 63.8986 95.2529L63.8891 95.2427ZM169.719 39.3658C169.686 39.3045 169.662 39.2432 169.636 39.187C169.636 39.1614 169.613 39.141 169.603 39.1154C169.552 39.1417 169.499 39.1647 169.445 39.1844C169.341 39.2278 169.235 39.2687 169.127 39.3019C169.019 39.3352 168.974 39.353 168.891 39.3735L168.681 39.4323L168.7 39.4783C168.788 39.4578 168.872 39.4399 168.96 39.4144L168.983 39.7312C169.082 39.7312 169.174 39.7159 169.264 39.7159H169.391C169.575 39.7159 169.735 39.7159 169.862 39.7159C169.813 39.6009 169.761 39.4808 169.719 39.3658Z" fill="url(#paint1_linear)"/>
<path d="M118.218 76.8981L116.804 77.5753C116.804 77.5753 107.586 116.401 107.586 119.538C107.586 122.676 127.132 140.137 127.132 140.137L130.182 117.819C130.182 117.819 125.803 66.6386 118.218 76.8981Z" fill="#E8F5FF"/>
<path d="M161.094 64.5484L152.927 59.9284C152.47 57.8142 151.658 55.8091 150.533 54.0129C149.338 52.1424 147.749 50.3051 145.769 49.3469C140.765 46.9142 166.935 34.1454 166.935 34.1454C167.347 35.6793 167.833 37.1889 168.389 38.6682C169.738 42.2763 171.974 46.9423 174.857 48.2711C179.757 50.5325 161.094 64.5484 161.094 64.5484Z" fill="#FFC1C7"/>
<path opacity="0.1" d="M168.389 38.6682C167.271 42.9318 164.946 46.7067 161.742 49.4601C158.538 52.2134 154.617 53.806 150.533 54.0129C149.338 52.1424 147.749 50.3051 145.769 49.3469C140.765 46.9142 166.935 34.1454 166.935 34.1454C167.347 35.6793 167.833 37.1889 168.389 38.6682V38.6682Z" fill="black"/>
<path d="M169.125 32.2212C169.126 36.4026 167.983 40.4904 165.84 43.9676C163.698 47.4448 160.653 50.1552 157.09 51.7559C153.527 53.3567 149.606 53.7759 145.823 52.9606C142.04 52.1453 138.565 50.132 135.838 47.1755C133.11 44.2189 131.253 40.4519 130.5 36.3508C129.748 32.2498 130.134 27.9989 131.61 24.1358C133.086 20.2727 135.586 16.9709 138.793 14.6481C142 12.3253 145.771 11.0857 149.627 11.0863C152.191 11.0734 154.731 11.6113 157.102 12.6688C159.473 13.7264 161.627 15.2826 163.44 17.2477C165.252 19.2128 166.688 21.5478 167.664 24.1178C168.64 26.6878 169.136 29.442 169.125 32.2212V32.2212Z" fill="#FFC1C7"/>
<path d="M171.939 61.8346L166.622 75.2858L161.931 84.214H146.917L142.538 72.0073L144.313 59.3483H155.779L163.183 58.896L165.683 57.9915L167.296 58.9829L171.939 61.8346Z" fill="#575A89"/>
<path opacity="0.1" d="M170.108 43.9041C170.108 43.9041 173.424 44.6707 170.454 47.3103C167.484 49.9499 157.238 58.3441 157.238 58.3441C157.238 58.3441 160.837 61.8193 160.093 65.8899L172.017 58.684L174.138 47.1544C174.138 47.1544 174.376 43.6894 170.108 43.9041Z" fill="black"/>
<path opacity="0.1" d="M159.584 58.3441L151.999 59.7009C151.999 59.7009 153.564 65.9742 152.781 67.7552C152.758 67.8106 152.738 67.8678 152.722 67.9265L149.628 76.9952L151.947 84.1169L159.975 72.2475L157.238 67.7552C157.238 67.7552 160.13 63.6003 161.851 62.1591C163.572 60.7179 159.584 58.3441 159.584 58.3441Z" fill="black"/>
<path d="M159.584 57.994L151.999 59.3484C151.999 59.3484 153.564 65.6216 152.781 67.4027C152.758 67.458 152.738 67.5153 152.722 67.5739L149.628 76.6427L151.947 83.7643L159.975 71.8872L157.238 67.395C157.238 67.395 160.13 63.2401 161.851 61.7989C163.572 60.3577 159.584 57.994 159.584 57.994Z" fill="#DCE6F2"/>
<path d="M170.426 43.2269C170.426 43.2269 173.742 43.9935 170.77 46.6331C167.798 49.2728 157.238 58.3441 157.238 58.3441C157.238 58.3441 161.149 61.1422 160.406 65.2102L172.33 58.0068L174.451 46.4773C174.451 46.4773 174.687 43.0123 170.426 43.2269Z" fill="#575A89"/>
<path opacity="0.1" d="M151.054 54.8127C151.054 54.8127 151.777 56.2794 154.971 58.9242C154.971 58.9242 149.653 61.9906 151.688 66.3014L143.554 64.0016L142.302 59.7623L151.054 54.8127Z" fill="black"/>
<path d="M150.74 54.4753C150.74 54.4753 151.464 55.9421 154.657 58.5868C154.657 58.5868 149.34 61.6378 151.374 65.9614L143.242 63.6616L141.991 59.4249L150.74 54.4753Z" fill="#575A89"/>
<path opacity="0.1" d="M171.939 61.8347L166.622 75.2858L161.941 84.214H146.917L142.538 72.0073L144.31 59.3483H147.499C147.447 62.3023 148.442 65.7724 148.378 67.0628C148.27 69.1837 151.296 80.6264 151.296 80.6264C151.296 80.6264 157.63 69.521 160.13 68.5321C161.703 67.9112 165.033 62.7444 167.293 58.9829L171.939 61.8347Z" fill="black"/>
<path d="M192.886 132.619L192.346 133.355C192.346 133.355 196.256 154.633 195.174 159.465C194.99 160.336 194.885 161.224 194.861 162.118V162.156C194.67 167.072 196.039 173.453 196.039 173.453C196.039 173.453 197.133 192.26 196.511 199.995H123.297C122.869 188.557 122.407 173.739 122.826 172.096C123.533 169.385 124.947 159.549 124.947 159.549L125.103 154.889C125.103 154.889 125.103 150.384 125.23 145.365C125.284 143.109 125.365 140.74 125.48 138.639C125.629 135.997 125.836 133.772 126.121 132.678C126.297 131.849 126.398 131.003 126.423 130.153C126.423 130.074 126.423 129.992 126.437 129.91C126.437 129.655 126.461 129.379 126.47 129.095C126.47 129.016 126.47 128.937 126.47 128.84C126.515 127.194 126.498 125.242 126.449 123.218C126.449 123.108 126.449 122.996 126.449 122.883C126.409 121.366 126.35 119.817 126.284 118.345C126.079 113.746 125.812 109.856 125.812 109.856L116.82 77.5574L119.243 71.0873L125.968 66.6207L138.401 58.482C144.466 53.0775 148.458 53.7266 149.981 54.3194C150.129 54.3741 150.274 54.4381 150.415 54.5111C150.462 54.5366 150.5 54.5571 150.535 54.5801C150.583 54.6049 150.63 54.634 150.674 54.6669V54.6669C150.257 54.8844 149.895 55.2079 149.618 55.6098C149.306 56.0673 149.084 56.589 148.965 57.143C148.886 57.4864 148.83 57.8358 148.798 58.1882C148.767 58.5587 148.755 58.942 148.755 59.3278C148.772 60.174 148.839 61.0181 148.956 61.855C148.956 61.8703 148.956 61.8908 148.956 61.9112C149.034 62.5092 149.13 63.0943 149.225 63.6437C149.223 63.6531 149.223 63.6625 149.225 63.6718C149.333 64.3132 149.441 64.906 149.514 65.4171C149.529 65.5091 149.54 65.5934 149.552 65.6726C149.604 66.0104 149.629 66.3524 149.625 66.6948C149.652 67.5215 149.754 68.3433 149.932 69.1479C149.993 69.4852 150.064 69.8455 150.141 70.2211C150.247 70.7321 150.363 71.2892 150.488 71.8565C150.556 72.1682 150.629 72.4902 150.705 72.8096C150.733 72.9374 150.764 73.0651 150.792 73.1955L150.839 73.3973C151.341 75.5617 151.886 77.7158 152.22 79.019C152.418 79.7856 152.543 80.2583 152.543 80.2583C152.543 80.2583 156.093 74.0361 158.926 70.4945C158.968 70.4434 159.006 70.3948 159.046 70.3488C159.327 69.9988 159.602 69.6794 159.866 69.3983C160.444 68.7748 160.962 68.3302 161.38 68.1666C161.469 68.1313 161.554 68.0876 161.636 68.0363C162.796 67.3234 164.668 64.7348 166.419 62.0237C166.591 61.7681 166.758 61.4896 166.928 61.2264C167.317 60.6182 167.694 60.0075 168.05 59.4224C168.323 58.9752 168.585 58.5408 168.832 58.1268C170.011 56.1388 170.841 54.6567 170.841 54.6567L172.476 54.5775L172.762 54.5622H172.952L180.379 54.1891C180.379 54.1891 180.7 54.2479 181.228 54.3629C181.256 54.3629 181.284 54.3629 181.315 54.3833C183.95 54.9506 191.271 56.747 191.719 59.2384C192.266 62.2894 204.074 66.36 204.074 66.36C204.23 68.4043 207.122 69.7509 207.122 69.7509C207.122 69.7509 211.501 82.2975 210.33 87.2139C209.173 92.0689 213.342 104.079 213.453 104.416L212.654 105.51L192.886 132.619Z" fill="#E8F5FF"/>
<path opacity="0.1" d="M170.105 43.0123C170.105 43.0123 177.334 40.7891 178.977 45.3657C180.62 49.9422 184.294 68.4248 184.294 68.4248C184.294 68.4248 174.753 70.3745 172.252 68.4248C170.785 67.2676 168.97 66.753 167.168 66.9836L161.773 70.9673L160.18 70.4562C160.18 70.4562 168.811 56.5451 170.687 51.8178C172.563 47.0905 173.198 44.9773 170.105 43.0123Z" fill="black"/>
<path d="M169.792 41.9901C169.792 41.9901 177.025 39.767 178.675 44.3436C180.325 48.9201 183.993 67.4026 183.993 67.4026C183.993 67.4026 174.454 69.3523 171.951 67.4026C170.485 66.2454 168.67 65.7307 166.869 65.9614L161.469 69.9452L159.876 69.4341C159.876 69.4341 168.507 55.523 170.383 50.7957C172.26 46.0684 172.884 43.9603 169.792 41.9901Z" fill="#E8F5FF"/>
<path opacity="0.1" d="M121.268 115.723C121.268 115.723 126.663 117.165 127.681 120.471C128.7 123.778 123.693 123.862 123.693 123.862C123.693 123.862 120.643 118.013 121.268 115.723Z" fill="black"/>
<path opacity="0.1" d="M141.364 140.137C141.364 140.137 128.15 169.469 131.2 172.267C134.25 175.065 141.364 140.137 141.364 140.137Z" fill="black"/>
<path opacity="0.1" d="M159.583 118.522C159.583 118.522 170.141 147.013 168.029 151.413C165.917 155.814 172.564 151.413 172.564 151.413L159.583 118.522Z" fill="black"/>
<path d="M174.284 146.666C174.284 146.666 138.627 148.531 149.029 160.569C159.43 172.607 180.775 161.08 180.775 161.08L174.284 146.666Z" fill="#FFC1C7"/>
<path opacity="0.1" d="M169.125 32.2212C169.128 34.9937 168.626 37.7396 167.647 40.301C167.319 40.3419 166.992 40.3675 166.676 40.3828C166.204 39.261 166.457 37.9655 166.466 36.7313C166.475 35.4971 166.056 34.0456 164.96 33.7135C162.775 33.0465 161.266 37.4749 159.112 36.6751C157.462 36.0669 157.894 33.3532 156.944 31.7868C156.192 30.5474 154.686 30.1974 153.514 29.4205C151.023 27.7621 151.098 25.1097 149.941 22.6004C148.73 19.971 146.17 20.7478 143.947 22.2989C142.26 23.4795 140.803 25.0612 138.997 26.0015C137.435 26.8192 135.679 27.1157 133.946 27.1591C132.88 27.2039 131.813 27.0817 130.779 26.7962C131.995 21.8374 134.834 17.5276 138.766 14.6705C142.697 11.8134 147.453 10.6041 152.146 11.2681C156.839 11.9321 161.15 14.4241 164.273 18.2793C167.397 22.1346 169.12 27.0899 169.122 32.2212H169.125Z" fill="black"/>
<path d="M143.954 21.6217C142.264 22.8023 140.81 24.3815 139.004 25.3269C137.442 26.1421 135.686 26.4385 133.953 26.4819C131.832 26.533 129.548 26.1293 128.099 24.4684C126.767 22.9352 126.449 20.5766 127.012 18.5656C127.575 16.5546 128.926 14.886 130.512 13.6773C132.098 12.4686 133.939 11.6331 134.99 9.90312C135.547 8.98832 135.815 7.90998 136.277 6.93641C137.755 3.82149 141.079 2.13499 144.291 1.92545C147.504 1.71592 150.688 2.75337 153.748 3.87771C156.807 5.00204 159.89 6.23881 163.119 6.47134C164.557 6.56844 166.051 6.47134 167.385 7.06162C169.179 7.85121 170.355 9.73958 171.156 11.6612C172.054 13.8281 172.613 16.1943 172.519 18.5605C172.321 23.6123 169.242 28.5696 170.595 33.4094C170.954 34.6998 171.625 36.0234 171.267 37.3139C170.744 39.1971 168.502 39.6264 166.69 39.7159C166.218 38.5941 166.471 37.296 166.48 36.0643C166.489 34.8327 166.07 33.3787 164.976 33.0465C162.789 32.3847 161.281 36.8054 159.131 36.0081C157.493 35.3974 157.917 32.6862 156.965 31.1198C156.213 29.8779 154.704 29.5304 153.535 28.7536C151.044 27.0952 151.119 24.4428 149.962 21.9335C148.741 19.2913 146.179 20.0681 143.954 21.6217Z" fill="#99607E"/>
<path d="M109.379 118.859L107.581 119.539C107.581 119.539 108.288 131.068 105.931 134.375C103.574 137.681 113.671 145.902 113.671 145.902C113.671 145.902 127.512 145.817 127.903 144.624C128.294 143.431 127.196 123.262 127.196 123.262C127.196 123.262 119.767 120.124 120.391 115.123C120.391 115.123 118.124 126.906 114.763 126.397C111.402 125.889 107.586 122.845 109.379 118.859Z" fill="#E8F5FF"/>
<path opacity="0.1" d="M115.378 129.964C117.998 129.964 120.123 127.858 120.123 125.26C120.123 122.662 117.998 120.556 115.378 120.556C112.758 120.556 110.633 122.662 110.633 125.26C110.633 127.858 112.758 129.964 115.378 129.964Z" fill="black"/>
<path d="M120.566 119.199C120.566 119.199 119.623 88.0035 111.416 94.9539C103.209 101.904 103.129 110.217 104.691 112.672C106.254 115.128 111.265 127.422 111.265 127.422C112.049 127.914 112.929 128.198 113.834 128.251C114.738 128.303 115.642 128.123 116.47 127.724C117.297 127.325 118.026 126.719 118.597 125.956C119.167 125.193 119.562 124.294 119.75 123.333L120.566 119.199Z" fill="#FFC1C7"/>
<path opacity="0.1" d="M171.762 40.1809C171.724 40.0438 171.65 39.9215 171.55 39.8283C171.145 39.4271 170.273 39.2865 168.957 39.4092L169.012 40.0838C170.765 39.9203 171.112 40.2985 171.156 40.3623V40.4262L171.211 40.5105C171.429 40.8291 171.584 41.1937 171.665 41.5809C171.746 41.9681 171.752 42.3695 171.682 42.7592C171.298 44.8418 168.938 46.5002 168.915 46.5181L168.858 46.5538L168.823 46.6126C167.805 48.2506 162.047 52.8731 160.54 54.069L160.408 53.9055C159.734 54.5392 153.809 60.1634 153.488 62.3175C153.281 63.6693 151.876 64.1931 151.367 64.3388C150.83 63.8967 149.085 62.3916 148.178 60.7051C147.327 59.1183 150.752 56.0212 151.054 54.8126L150.582 54.2888C150.533 54.483 146.134 58.9394 147.358 61.2162C148.338 63.0432 150.13 64.6071 150.757 65.1232C150.556 67.0959 149.309 78.6791 147.393 81.4235C145.013 84.8349 143.011 102.027 143.233 108.029C143.429 113.362 142.144 123.435 137.854 127.761C137.112 128.543 136.216 129.133 135.233 129.487C134.251 129.841 133.208 129.95 132.181 129.806H132.129H132.077C132.016 129.806 125.794 130.496 120.566 125.717C116.288 121.815 113.865 115.447 113.36 106.785H113.257L113.214 104.263C114.374 104.067 115.419 103.391 116.129 102.377C116.838 101.363 117.158 100.091 117.021 98.8266C116.883 97.5626 116.299 96.4057 115.391 95.5987C114.483 94.7918 113.322 94.3978 112.152 94.4995C110.982 94.6012 109.894 95.1906 109.116 96.144C108.338 97.0973 107.931 98.3404 107.981 99.6119C108.031 100.884 108.534 102.085 109.384 102.963C110.233 103.841 111.364 104.328 112.538 104.322H112.59L112.632 106.828L112.425 106.844C112.943 115.787 115.489 122.403 119.967 126.489C123.371 129.547 127.719 131.089 132.132 130.805C132.445 130.842 132.759 130.861 133.074 130.861C135.097 130.872 137.043 130.024 138.495 128.497C143.014 123.936 144.388 113.493 144.173 107.978C143.938 101.618 146.038 85.0444 148.145 82.0266C150.21 79.065 151.461 67.5252 151.68 65.2893C152.428 65.0619 154.118 64.3439 154.405 62.4785C154.613 61.1293 158.57 56.9718 161.005 54.6695L160.932 54.5775C162.242 53.54 166.317 50.2693 168.337 48.1688C168.964 47.5172 169.587 46.8656 170.237 46.2446C171.02 45.4934 172.014 44.3001 172.276 42.8895C172.365 42.4239 172.366 41.9435 172.277 41.4777C172.189 41.0119 172.014 40.5706 171.762 40.1809V40.1809Z" fill="black"/>
<path d="M150.676 64.9623C150.578 64.8882 148.23 63.0663 147.054 60.8739C145.833 58.5971 150.231 54.1432 150.278 53.949L150.75 54.4728C150.45 55.6789 147.025 58.7785 147.876 60.3628C148.949 62.3636 151.207 64.114 151.23 64.1319L150.676 64.9623Z" fill="#353146"/>
<path d="M160.234 54.5648L159.866 54.0154C159.942 53.9567 167.345 48.151 168.512 46.2729L168.55 46.2166L168.604 46.1783C168.627 46.1604 170.987 44.5046 171.371 42.4195C171.442 42.0301 171.436 41.6291 171.355 41.2421C171.274 40.8552 171.119 40.4911 170.899 40.1733L170.845 40.0865V40.0251C170.798 39.9587 170.452 39.5831 168.698 39.7466L168.644 39.0695C169.961 38.9468 170.831 39.0873 171.237 39.4885C171.337 39.5827 171.412 39.7058 171.451 39.8437C171.706 40.2322 171.885 40.6732 171.976 41.1395C172.068 41.6058 172.07 42.0875 171.984 42.5549C171.722 43.968 170.73 45.1613 169.945 45.91C169.297 46.5309 168.672 47.1877 168.047 47.8341C165.679 50.2949 160.493 54.363 160.234 54.5648Z" fill="#E8F5FF"/>
<path d="M112.91 103.373L112.286 103.386L112.355 107.502L112.98 107.489L112.91 103.373Z" fill="#E8F5FF"/>
<path d="M112.234 103.997C114.753 103.997 116.795 101.783 116.795 99.0527C116.795 96.3219 114.753 94.1081 112.234 94.1081C109.715 94.1081 107.673 96.3219 107.673 99.0527C107.673 101.783 109.715 103.997 112.234 103.997Z" fill="#493657"/>
<path d="M112.234 103.159C114.326 103.159 116.021 101.32 116.021 99.0526C116.021 96.7847 114.326 94.9462 112.234 94.9462C110.142 94.9462 108.446 96.7847 108.446 99.0526C108.446 101.32 110.142 103.159 112.234 103.159Z" fill="#E8F5FF"/>
<path d="M132.777 130.532C132.462 130.532 132.148 130.514 131.835 130.478C127.422 130.76 123.075 129.217 119.67 126.162C115.192 122.073 112.651 115.465 112.128 106.514L113.07 106.45C113.575 115.113 115.998 121.483 120.278 125.383C125.506 130.148 131.726 129.471 131.787 129.471H131.839H131.891C132.918 129.615 133.962 129.505 134.944 129.151C135.927 128.798 136.823 128.208 137.567 127.427C141.854 123.101 143.139 113.028 142.943 107.695C142.707 101.687 144.709 84.4951 147.091 81.0864C149.177 78.0992 150.471 64.6353 150.486 64.4999L150.521 64.1166L150.87 64.0501C150.891 64.0501 152.927 63.6311 153.182 61.9803C153.512 59.8288 159.428 54.2045 160.1 53.5683L160.715 54.3349C158.271 56.6346 154.313 60.7947 154.115 62.1464C153.828 64.0169 152.138 64.7324 151.393 64.9573C151.157 67.1957 149.915 78.7329 147.858 81.6945C145.75 84.7123 143.65 101.286 143.886 107.646C144.089 113.161 142.729 123.607 138.21 128.165C136.755 129.696 134.804 130.545 132.777 130.532Z" fill="#353146"/>
<g opacity="0.1">
<path opacity="0.1" d="M171.133 26.1805C171.519 24.632 171.986 23.0732 172.311 21.5043C171.922 23.0809 171.453 24.632 171.133 26.1805Z" fill="black"/>
<path opacity="0.1" d="M167.19 38.3488C166.718 37.227 166.97 35.9289 166.98 34.6972C166.989 33.4656 166.57 32.0244 165.476 31.6794C163.289 31.0176 161.78 35.4408 159.631 34.641C157.981 34.0303 158.417 31.3191 157.465 29.7527C156.713 28.5108 155.206 28.1633 154.037 27.3865C151.544 25.7281 151.619 23.0757 150.464 20.5664C149.25 17.9344 146.693 18.7112 144.468 20.2649C142.778 21.4454 141.324 23.0272 139.518 23.9701C137.956 24.7852 136.2 25.0816 134.467 25.1251C132.358 25.1787 130.062 24.7724 128.612 23.1115C127.495 21.8338 127.092 19.9608 127.323 18.2053C127.283 18.3254 127.248 18.4455 127.212 18.5656C126.647 20.5766 126.977 22.9403 128.299 24.4683C129.749 26.1293 132.044 26.533 134.154 26.4819C135.889 26.4385 137.642 26.1421 139.207 25.3269C141.017 24.3815 142.472 22.8023 144.157 21.6217C146.382 20.0681 148.942 19.2913 150.153 21.9233C151.308 24.4326 151.235 27.085 153.726 28.7434C154.905 29.51 156.402 29.8677 157.156 31.1096C158.099 32.6811 157.681 35.3872 159.322 35.9979C161.469 36.7951 162.978 32.3745 165.165 33.0363C166.258 33.3685 166.68 34.825 166.669 36.0541C166.657 37.2832 166.412 38.5839 166.878 39.7056C168.691 39.6162 170.932 39.1946 171.458 37.3036C171.53 37.0323 171.564 36.7504 171.557 36.4681C170.791 37.9016 168.821 38.2696 167.19 38.3488Z" fill="black"/>
</g>
<path opacity="0.1" d="M209.788 101.312L212.524 104.449C212.524 104.449 214.714 121.741 215.807 123.359C216.901 124.976 219.484 131.41 217.059 136.243C217.059 136.243 216.276 138.872 216.746 139.973C217.215 141.075 213.229 146.586 213.229 146.586C213.229 146.586 207.989 151.671 206.893 152.436C205.797 153.2 200.013 159.302 198.059 159.386C196.105 159.47 195.466 162.1 195.466 162.1L184.44 162.524C184.44 162.524 178.35 162.179 177.025 163.112C177.025 163.112 177.732 153.023 170.928 146.41L179.606 143.019C179.606 143.019 182.892 141.486 183.908 139.884C184.547 138.902 185.453 138.161 186.5 137.766C186.5 137.766 188.923 135.9 189.001 134.883C189.079 133.866 191.964 132.619 191.964 132.619L190.331 117.505L191.191 92.4114C191.191 92.4114 193.927 71.3863 199.714 72.5746C205.5 73.7628 209.788 101.312 209.788 101.312Z" fill="black"/>
<path d="M210.731 101.312L213.467 104.449C213.467 104.449 215.657 121.741 216.75 123.359C217.844 124.976 220.427 131.41 218.002 136.243C218.002 136.243 217.222 138.872 217.691 139.973C218.16 141.075 214.172 146.586 214.172 146.586C214.172 146.586 208.932 151.671 207.836 152.436C206.74 153.2 200.956 159.302 199.002 159.386C197.048 159.47 196.409 162.1 196.409 162.1L185.383 162.524C185.383 162.524 179.288 162.179 177.968 163.112C177.968 163.112 178.675 153.023 171.871 146.41L180.549 143.019C180.549 143.019 183.835 141.486 184.851 139.884C185.49 138.902 186.396 138.161 187.443 137.766C187.443 137.766 189.866 135.9 189.944 134.883C190.022 133.866 192.907 132.619 192.907 132.619L191.274 117.505L192.134 92.4114C192.134 92.4114 194.87 71.3863 200.657 72.5746C206.443 73.7628 210.731 101.312 210.731 101.312Z" fill="#E8F5FF"/>
<path opacity="0.1" d="M200.558 126.66C200.558 126.66 208.612 124.36 210.723 127.171C212.835 129.982 200.558 126.66 200.558 126.66Z" fill="black"/>
<path opacity="0.1" d="M198.682 130.516C201.418 132.594 209.863 132.678 209.863 132.678L198.682 130.516Z" fill="black"/>
<path opacity="0.1" d="M202.825 140.901C203.061 140.985 208.63 147.43 210.969 145.48C213.307 143.53 202.825 140.901 202.825 140.901Z" fill="black"/>
<path opacity="0.1" d="M127.816 86.8153C127.816 86.8153 129.452 99.0246 128.646 103.997C127.839 108.97 130.781 115.131 130.781 115.131L127.816 86.8153Z" fill="black"/>
<path d="M91.6029 91.7803C89.7173 93.3824 88.3408 97.1745 87.3438 101.342C85.6043 108.612 85.0363 117.042 85.0363 117.042C85.0363 117.042 70.0221 113.311 71.1158 111.617C71.804 110.552 70.8801 102.523 70.1094 96.7018C69.6497 93.2623 69.2396 90.5921 69.2396 90.5921C69.2396 90.5921 96.7647 87.3698 91.6029 91.7803Z" fill="#FFCCD0"/>
<path opacity="0.1" d="M91.6029 91.4404C89.7173 93.0451 88.3408 96.8346 87.3438 101.002C84.3524 101.987 81.1709 102.076 78.1368 101.259C75.1026 100.443 72.3288 98.7514 70.1094 96.3644C69.6497 92.9224 69.2396 90.2521 69.2396 90.2521C69.2396 90.2521 96.7647 87.0324 91.6029 91.4404Z" fill="black"/>
<path d="M99.6732 82.3077C99.6748 86.7522 98.226 91.054 95.5832 94.4518C92.9405 97.8495 89.2742 100.124 85.2333 100.873C81.1923 101.622 77.0372 100.797 73.5034 98.544C69.9696 96.291 67.2849 92.7553 65.9245 88.5627C64.5641 84.37 64.6156 79.7908 66.0701 75.6354C67.5245 71.48 70.288 68.0164 73.8714 65.8576C77.4549 63.6988 81.6273 62.9839 85.6502 63.8396C89.6731 64.6952 93.2871 67.0662 95.8525 70.5329C98.3247 73.8722 99.6725 78.0258 99.6732 82.3077V82.3077Z" fill="#FFCCD0"/>
<path opacity="0.1" d="M113.363 199.995H108.413L107.996 190.517L107.56 180.707C107.56 180.707 108.684 180.526 110.475 180.255L111.199 180.15H111.258C111.649 182.141 112.036 184.185 112.408 186.227C113.028 189.852 113.351 193.528 113.372 197.215C113.372 197.47 113.372 197.726 113.372 197.966C113.386 198.648 113.372 199.331 113.363 199.995Z" fill="black"/>
<path d="M112.413 199.995H50.3389C50.6076 199.333 50.7867 198.932 50.7867 198.932C50.7867 198.932 55.7529 175.377 58.2773 165.411C58.278 165.403 58.278 165.394 58.2773 165.386C58.5927 164.032 58.9734 162.697 59.418 161.387V161.387C59.4468 161.298 59.4839 161.212 59.5288 161.131C60.778 158.929 62.3431 156.555 60.1534 153.164C57.9638 149.773 58.7392 134.852 58.7392 134.852C58.7392 134.852 61.3979 122.135 64.2122 115.353C64.6393 114.302 65.2454 113.349 65.9988 112.542C66.2437 112.282 66.5052 112.041 66.7813 111.821V111.821C66.9912 111.65 67.21 111.493 67.4366 111.349L67.4813 111.318C68.6636 110.591 69.9764 110.15 71.3303 110.023C72.2921 109.914 73.263 109.943 74.2177 110.109C78.7808 110.835 82.4342 112.049 85.338 113.431C93.208 117.18 95.591 122.204 95.6381 122.308L95.657 122.352C95.9728 123.152 100.593 134.845 102.257 140.3C102.688 141.721 102.924 142.72 102.829 142.994C102.358 144.348 106.426 161.302 106.426 161.302C106.426 161.302 108.312 169.479 110.197 179.064C110.28 179.463 110.358 179.862 110.433 180.265C110.77 182.006 111.105 183.779 111.428 185.55C112.053 189.199 112.376 192.902 112.392 196.614C112.426 197.771 112.433 198.898 112.413 199.995Z" fill="#FF748E"/>
<path opacity="0.1" d="M70.9603 104.191C70.9603 104.191 66.6776 102.403 66.7295 105.116C66.7813 107.83 67.7736 109.128 67.4601 109.524C67.1467 109.92 67.6157 112.294 67.6157 112.294C67.6157 112.294 73.4022 112.294 76.0609 113.592C78.7196 114.89 88.52 117.492 89.7715 118.284C91.0231 119.076 95.664 122.628 95.664 122.628L96.0812 115.902C96.0812 115.902 91.2847 111.607 83.4147 109.404C75.5447 107.201 70.9603 104.191 70.9603 104.191Z" fill="black"/>
<path d="M70.9603 103.851C70.9603 103.851 66.6776 102.063 66.7295 104.777C66.7813 107.49 67.7736 108.788 67.4601 109.184C67.1467 109.58 67.6157 111.954 67.6157 111.954C67.6157 111.954 73.4022 111.954 76.0609 113.255C78.7196 114.556 88.52 117.154 89.7715 117.944C91.0231 118.734 95.664 122.288 95.664 122.288L96.086 115.583C96.086 115.583 91.2894 111.287 83.4194 109.085C75.5494 106.882 70.9603 103.851 70.9603 103.851Z" fill="#FF748E"/>
<path opacity="0.1" d="M83.8884 120.037C83.8884 120.037 92.0719 129.642 91.6547 132.302C91.2376 134.962 83.8884 120.037 83.8884 120.037Z" fill="black"/>
<path opacity="0.1" d="M70.5949 154.735C70.5949 154.735 64.5963 160.728 62.8285 161.067C61.0608 161.407 64.1838 162.537 66.2155 161.635C68.2473 160.733 72.5795 158.359 72.5795 158.359L70.5949 154.735Z" fill="black"/>
<path d="M114.85 199.995H100.861C98.9048 198.155 97.0546 196.451 95.8761 195.426C93.9905 193.786 92.6305 191.371 91.7631 189.429C91.5675 188.987 91.3978 188.573 91.254 188.197C90.9966 187.55 90.77 186.889 90.5752 186.217L100.934 179.547C101.507 180.075 102.045 180.646 102.544 181.254L102.669 181.41C103.244 182.146 103.751 182.982 103.796 183.666C103.847 184.464 105.893 187.548 107.984 190.51C110.105 193.522 112.278 196.402 112.422 196.596C112.422 196.596 112.781 197.125 113.365 197.938C113.778 198.526 114.287 199.231 114.85 199.995Z" fill="#FFCCD0"/>
<path opacity="0.1" d="M95.8525 70.5329C95.3552 71.7492 94.9097 73.0115 94.8438 74.3658C94.6575 78.2754 94.9592 87.0171 90.9665 88.9796C88.989 89.9455 86.8724 87.8246 84.7039 87.7735C83.1436 87.7377 81.7129 88.811 80.7607 90.1525C79.8084 91.494 79.2168 93.086 78.5262 94.6038C77.8976 95.9815 77.1735 97.3056 76.3601 98.5646C76.117 98.9499 75.8492 99.3162 75.5588 99.6608C73.1241 98.547 70.9561 96.8455 69.2199 94.6857C67.4838 92.526 66.2252 89.9651 65.5402 87.1982C64.8552 84.4313 64.7619 81.5314 65.2672 78.7194C65.7726 75.9075 66.8634 73.2577 68.4564 70.972C70.0495 68.6862 72.1027 66.8249 74.4598 65.5298C76.8169 64.2347 79.4156 63.54 82.0578 63.4987C84.7 63.4573 87.3161 64.0704 89.7067 65.2911C92.0973 66.5119 94.1993 68.3082 95.8525 70.5431V70.5329Z" fill="black"/>
<path d="M94.5302 73.6759C94.3417 77.5856 94.6457 86.3272 90.6506 88.2872C88.6731 89.2531 86.5565 87.1347 84.388 87.0836C82.8277 87.0453 81.3994 88.1211 80.4448 89.4601C79.4902 90.799 78.9033 92.3936 78.2103 93.914C77.5815 95.2915 76.8574 96.6156 76.0442 97.8747C75.5587 98.6208 75.0213 99.3695 74.2741 99.7886C72.9731 100.525 71.3962 100.111 70.0009 99.6378C68.1907 99.0195 66.4072 98.3227 64.6505 97.5476C64.6908 97.2601 64.7113 96.9696 64.7118 96.6788C64.6599 96.7861 64.6034 96.8858 64.5468 96.9931L64.436 97.2026C64.2357 97.5859 64.04 97.9692 63.8609 98.3627C63.7925 98.5135 63.7265 98.6694 63.6676 98.8253C63.4306 99.4053 63.2817 100.023 63.2269 100.655C63.1067 102.359 63.8821 103.977 64.5704 105.51C67.2173 111.441 68.853 118.376 66.8614 124.598C65.9987 127.304 64.5044 129.709 63.4131 132.323C61.5054 136.953 60.9439 142.103 61.8032 147.087C62.3477 150.184 63.439 153.251 63.1703 156.391C62.6989 161.796 58.3997 165.818 54.0935 168.583C51.7671 170.07 48.9198 171.393 46.4497 170.218C48.0242 168.225 48.4296 165.468 48.769 162.866C49.6977 155.771 50.6287 148.672 51.5621 141.57C51.9345 138.744 52.3061 135.918 52.6769 133.092C53.3699 127.782 54.0723 122.413 53.6386 117.07C53.3227 113.132 52.4318 108.952 54.0063 105.387C54.8383 103.499 56.3208 101.935 56.7828 99.901C57.1623 98.2478 56.8087 96.4897 57.0586 94.8058C57.1953 94.0396 57.4268 93.297 57.7468 92.598C58.1543 91.6494 58.6862 90.7698 59.326 89.9864C58.6943 89.7871 58.1051 89.5137 57.7468 88.9413C58.7603 88.2258 58.9135 86.6134 58.4539 85.4022C57.9943 84.191 57.0751 83.2685 56.2478 82.3129C55.4205 81.3572 54.6238 80.2431 54.5201 78.9399C54.3197 76.4587 56.606 74.5371 57.0091 72.0891C57.4168 69.5977 55.8047 67.1752 55.9343 64.6531C56.0851 61.6047 58.6684 59.3892 61.2187 58.1039C65.0672 56.1725 69.3184 55.379 73.5411 55.8041C76.9776 56.1568 80.3033 57.3092 83.7304 57.7564C85.7975 58.0119 87.8929 58.0375 89.9458 58.431C91.9988 58.8245 94.0565 59.655 95.5013 61.2878C99.3102 65.5935 94.7471 69.1377 94.5302 73.6759Z" fill="#FFE0D0"/>
<path opacity="0.1" d="M91.3436 189.431C90.1415 188.867 87.9542 189.204 84.1995 187.964C80.4448 186.725 79.7212 181.124 79.7212 181.124V181.106C79.6764 180.978 79.3276 180.145 76.9658 177.227C74.3566 174.005 68.7163 157.73 68.7163 157.73C68.7163 157.73 63.7148 151.907 63.8727 149.76C64.0306 147.614 62.9841 141.903 63.0878 135.514C63.1915 129.126 74.3472 124.889 74.3472 124.889C95.8266 120.763 90.7685 147.609 90.1957 149.643C89.6229 151.677 92.5951 157.171 92.5951 157.171C92.1756 159.562 94.3157 163.265 94.3157 163.265C94.3157 163.265 94.8343 166.541 94.9403 167.785C94.9462 167.843 94.9581 167.899 94.9757 167.954C95.3198 169.127 98.1247 170.19 99.2655 170.836C100.465 171.516 104.324 177.449 104.324 177.449C105.156 181.806 92.5409 190.004 91.3436 189.431Z" fill="black"/>
<path d="M91.9682 188.409C90.7685 187.842 88.5788 188.182 84.8265 186.94C81.0741 185.698 80.3482 180.102 80.3482 180.102V180.084C80.3057 179.954 79.9546 179.123 77.5928 176.205C74.9836 172.983 69.3433 156.705 69.3433 156.705C69.3433 156.705 64.3418 150.884 64.4973 148.738C64.6529 146.592 63.6111 140.88 63.7148 134.497C63.8185 128.114 74.9671 123.88 74.9671 123.88C96.4465 119.753 91.3884 146.599 90.8156 148.633C90.2429 150.667 93.2151 156.161 93.2151 156.161C92.7955 158.553 94.9357 162.256 94.9357 162.256C94.9357 162.256 95.4542 165.532 95.5626 166.776C95.5666 166.834 95.5777 166.89 95.5956 166.945C95.9397 168.117 98.7446 169.18 99.8877 169.827C101.085 170.504 104.946 176.44 104.946 176.44C105.783 180.789 93.1679 188.987 91.9682 188.409Z" fill="#FF748E"/>
<path opacity="0.1" d="M75.3914 137.896C75.3914 137.896 84.7746 148.628 87.2235 148.628C89.6724 148.628 75.3914 137.896 75.3914 137.896Z" fill="black"/>
<path d="M91.9681 188.409C90.7683 187.842 88.5787 188.182 84.8263 186.94C81.074 185.698 80.348 180.102 80.348 180.102V180.084C82.8347 178.295 89.1326 173.243 91.6145 171.396C93.361 170.1 94.787 168.197 95.6214 166.934C95.9655 168.107 98.7704 169.17 99.9135 169.817C101.111 170.494 104.972 176.43 104.972 176.43C105.782 180.789 93.1678 188.987 91.9681 188.409Z" fill="#FF748E"/>
<g opacity="0.1">
<path opacity="0.1" d="M57.761 88.9694C57.7728 88.9898 57.7893 89.0077 57.8034 89.0281C57.8741 88.931 57.9472 88.8339 58.0226 88.7419C57.9423 88.8266 57.8547 88.9028 57.761 88.9694V88.9694Z" fill="black"/>
<path opacity="0.1" d="M63.2292 100.683C63.3282 99.2647 64.0282 98.0151 64.6835 96.7681C64.2545 96.5893 63.8255 96.4079 63.4013 96.2188C63.4417 95.9321 63.4622 95.6425 63.4626 95.3525C62.8002 96.6302 62.079 97.8874 61.9777 99.326C61.8574 101.033 62.6329 102.648 63.3211 104.181C65.9704 110.109 67.6038 117.045 65.6121 123.269C64.7471 125.973 63.2551 128.38 62.1638 130.994C60.2569 135.623 59.6962 140.772 60.5564 145.756C61.0961 148.856 62.1898 151.919 61.9211 155.06C61.4497 160.464 57.1529 164.486 52.8443 167.249C51.0836 168.378 49.0259 169.413 47.0578 169.339C46.8756 169.657 46.6724 169.96 46.4497 170.246C48.9222 171.429 51.7671 170.098 54.0935 168.605C58.4044 165.846 62.7107 161.834 63.1821 156.419C63.4508 153.279 62.3571 150.215 61.815 147.115C60.9545 142.132 61.5136 136.983 63.4178 132.353C64.502 129.742 66.0105 127.332 66.8661 124.629C68.8577 118.404 67.222 111.469 64.5751 105.541C63.8892 103.997 63.109 102.39 63.2292 100.683Z" fill="black"/>
<path opacity="0.1" d="M95.4966 61.3184C95.2648 61.0606 95.0158 60.8214 94.7518 60.603C97.6085 64.6199 93.4837 68.0338 93.2787 72.3574C93.0948 76.267 93.3965 85.0112 89.4014 86.9686C87.4262 87.9371 85.3073 85.8161 83.1412 85.765C81.5785 85.7293 80.1502 86.8051 79.1956 88.144C78.241 89.483 77.6541 91.0775 76.9635 92.5954C76.3335 93.9728 75.6086 95.2968 74.795 96.5561C74.3236 97.3048 73.7721 98.051 73.0226 98.4726C71.7262 99.206 70.1494 98.7945 68.7517 98.3193C67.3925 97.8559 66.0459 97.3448 64.7118 96.7861C64.709 97.0522 64.6886 97.3178 64.6505 97.5808C66.4088 98.3576 68.1931 99.0543 70.0033 99.671C71.3986 100.146 72.9754 100.558 74.2742 99.8243C75.0213 99.4027 75.5634 98.654 76.0466 97.9053C76.8608 96.6478 77.5849 95.3245 78.2127 93.9471C78.9057 92.4293 79.4902 90.8322 80.4471 89.4932C81.4041 88.1543 82.8301 87.081 84.3904 87.1168C86.5589 87.1679 88.6778 89.2888 90.653 88.3203C94.6481 86.363 94.344 77.6187 94.5302 73.7091C94.7471 69.1632 99.3102 65.6216 95.4966 61.3184Z" fill="black"/>
</g>
<path opacity="0.1" d="M64.4383 97.2051C64.238 97.5884 64.0423 97.9717 63.8632 98.3652C63.7949 98.516 63.7289 98.6719 63.6699 98.8278C62.4349 97.4786 59.4273 94.2716 57.7491 93.2776C58.1572 92.3295 58.689 91.4499 59.3283 90.6661C59.3283 90.6661 63.3282 92.9582 64.4383 97.2051Z" fill="black"/>
<path d="M64.5491 96.9956C63.6228 92.4497 59.3283 89.989 59.3283 89.989C58.6885 90.7723 58.1566 91.652 57.7491 92.6005C59.5193 93.6507 62.7813 97.1719 63.8632 98.3652L64.5491 96.9956Z" fill="#FF748E"/>
<defs>
<linearGradient id="paint0_linear" x1="172.068" y1="24.3764" x2="172.068" y2="19.6798" gradientUnits="userSpaceOnUse">
<stop stop-color="#808080" stop-opacity="0.25"/>
<stop offset="0.54" stop-color="#808080" stop-opacity="0.12"/>
<stop offset="1" stop-color="#808080" stop-opacity="0.1"/>
</linearGradient>
<linearGradient id="paint1_linear" x1="108133" y1="168268" x2="108133" y2="11732" gradientUnits="userSpaceOnUse">
<stop stop-color="#808080" stop-opacity="0.25"/>
<stop offset="0.54" stop-color="#808080" stop-opacity="0.12"/>
<stop offset="1" stop-color="#808080" stop-opacity="0.1"/>
</linearGradient>
</defs>
</svg>
