<svg width="256" height="200" viewBox="0 0 256 200" fill="none" xmlns="http://www.w3.org/2000/svg">
<path d="M32.4816 137.241L32.0423 137.123C36.9407 111.119 49.2508 87.5042 66.705 70.6297C79.901 57.8919 95.5955 49.3728 112.311 45.8745C129.026 42.3762 146.212 44.0139 162.251 50.6333C178.29 57.2527 192.654 68.6361 203.99 83.7116C215.326 98.7871 223.262 117.059 227.049 136.806L226.611 136.925C216.241 82.5757 176.339 44.6173 129.576 44.6173C83.4254 44.6173 42.5913 83.5713 32.4816 137.241Z" fill="#3F3D56"/>
<path d="M202.556 73.7039C209.31 73.7039 214.785 67.1678 214.785 59.1052C214.785 51.0425 209.31 44.5064 202.556 44.5064C195.802 44.5064 190.327 51.0425 190.327 59.1052C190.327 67.1678 195.802 73.7039 202.556 73.7039Z" fill="#CC929B"/>
<path d="M197.91 117.471H197.46V138.705H197.91V117.471Z" fill="#3F3D56"/>
<path d="M202.066 120.177C202.095 127.602 197.719 133.645 197.719 133.645C197.719 133.645 193.297 127.651 193.268 120.226C193.239 112.801 197.615 106.758 197.615 106.758C197.615 106.758 202.037 112.753 202.066 120.177Z" fill="#CC929B"/>
<path opacity="0.1" d="M208.302 186.532C208.331 193.957 203.955 200 203.955 200C203.955 200 199.533 194.005 199.504 186.58C199.475 179.156 203.851 173.112 203.851 173.112C203.851 173.112 208.274 179.107 208.302 186.532Z" fill="#CC929B"/>
<path opacity="0.4" d="M112.807 75.2553C116.693 75.2553 119.842 71.4951 119.842 66.8565C119.842 62.218 116.693 58.4578 112.807 58.4578C108.921 58.4578 105.771 62.218 105.771 66.8565C105.771 71.4951 108.921 75.2553 112.807 75.2553Z" fill="#CC929B"/>
<path opacity="0.4" d="M99.7859 76.7595C102.512 76.7595 104.721 74.1217 104.721 70.8678C104.721 67.614 102.512 64.9762 99.7859 64.9762C97.0602 64.9762 94.8505 67.614 94.8505 70.8678C94.8505 74.1217 97.0602 76.7595 99.7859 76.7595Z" fill="#CC929B"/>
<path opacity="0.4" d="M46.8747 93.6926C49.6005 93.6926 51.8102 91.0548 51.8102 87.8009C51.8102 84.547 49.6005 81.9092 46.8747 81.9092C44.149 81.9092 41.9393 84.547 41.9393 87.8009C41.9393 91.0548 44.149 93.6926 46.8747 93.6926Z" fill="#CC929B"/>
<path opacity="0.4" d="M192.802 74.5643C196.688 74.5643 199.838 70.8041 199.838 66.1656C199.838 61.5271 196.688 57.7668 192.802 57.7668C188.916 57.7668 185.766 61.5271 185.766 66.1656C185.766 70.8041 188.916 74.5643 192.802 74.5643Z" fill="#CC929B"/>
<path d="M12.7507 136.344C13.1321 138.027 14.4384 139.069 14.4384 139.069C14.4384 139.069 15.1265 137.383 14.7451 135.7C14.3637 134.017 13.0573 132.974 13.0573 132.974C13.0573 132.974 12.3693 134.661 12.7507 136.344Z" fill="#3F3D56"/>
<path d="M13.3111 135.982C14.3577 137.198 14.4855 139.068 14.4855 139.068C14.4855 139.068 12.9165 138.966 11.87 137.75C10.8234 136.533 10.6956 134.664 10.6956 134.664C10.6956 134.664 12.2645 134.766 13.3111 135.982Z" fill="#493657"/>
<path d="M150.545 136.344C150.926 138.027 152.233 139.069 152.233 139.069C152.233 139.069 152.921 137.383 152.539 135.7C152.158 134.017 150.851 132.974 150.851 132.974C150.851 132.974 150.163 134.661 150.545 136.344Z" fill="#3F3D56"/>
<path d="M151.105 135.982C152.152 137.198 152.28 139.068 152.28 139.068C152.28 139.068 150.711 138.966 149.664 137.75C148.618 136.533 148.49 134.664 148.49 134.664C148.49 134.664 150.059 134.766 151.105 135.982Z" fill="#493657"/>
<path d="M15.3413 123.693L14.4099 121.839L23.1039 112.943H45.4604V115.538L37.3873 125.917L28.072 128.141L15.3413 123.693Z" fill="#3F3D56"/>
<path d="M49.3087 118.164V112.364H46.3817V114.193L45.4604 112.943L38.0082 121.839L36.7661 123.322L35.2136 130.735L38.0082 138.89H52.2913V122.21L49.3087 118.164Z" fill="#CCCCCC"/>
<path d="M38.0082 121.839H14.4099V138.89H38.0082V121.839Z" fill="#F2F2F2"/>
<path d="M34.7479 127.214H29.7798V132.403H34.7479V127.214Z" fill="#3F3D56"/>
<path d="M27.7615 127.029H23.4145V138.89H27.7615V127.029Z" fill="#CCCCCC"/>
<path d="M18.4465 128.882V127.029H16.5836V128.882H18.2911H18.4465Z" fill="#3F3D56"/>
<path d="M18.2911 130.365H16.5836V132.218H18.4465V130.365H18.2911Z" fill="#3F3D56"/>
<path d="M21.5514 127.029H19.6884V128.882H21.5514V127.029Z" fill="#3F3D56"/>
<path d="M21.5514 130.365H19.6884V132.218H21.5514V130.365Z" fill="#3F3D56"/>
<path d="M44.6841 129.067V127.214H42.8209V129.067H44.5287H44.6841Z" fill="#3F3D56"/>
<path d="M44.5287 130.55H42.8209V132.403H44.6841V130.55H44.5287Z" fill="#3F3D56"/>
<path d="M47.7891 127.214H45.926V129.067H47.7891V127.214Z" fill="#3F3D56"/>
<path d="M47.7891 130.55H45.926V132.403H47.7891V130.55Z" fill="#3F3D56"/>
<path d="M105.178 123.693L104.246 121.839L112.94 112.943H135.297V115.538L127.224 125.917L117.908 128.141L105.178 123.693Z" fill="#3F3D56"/>
<path d="M139.145 118.164V112.364H136.218V114.193L135.297 112.943L127.845 121.839L126.602 123.322L125.05 130.735L127.845 138.89H142.128V122.21L139.145 118.164Z" fill="#CCCCCC"/>
<path d="M127.845 121.839H104.246V138.89H127.845V121.839Z" fill="#F2F2F2"/>
<path d="M124.584 127.214H119.616V132.403H124.584V127.214Z" fill="#3F3D56"/>
<path d="M117.598 127.029H113.251V138.89H117.598V127.029Z" fill="#CCCCCC"/>
<path d="M108.283 128.882V127.029H106.42V128.882H108.127H108.283Z" fill="#3F3D56"/>
<path d="M108.127 130.365H106.42V132.218H108.283V130.365H108.127Z" fill="#3F3D56"/>
<path d="M111.388 127.029H109.525V128.882H111.388V127.029Z" fill="#3F3D56"/>
<path d="M111.388 130.365H109.525V132.218H111.388V130.365Z" fill="#3F3D56"/>
<path d="M134.52 129.067V127.214H132.657V129.067H134.365H134.52Z" fill="#3F3D56"/>
<path d="M134.365 130.55H132.657V132.403H134.52V130.55H134.365Z" fill="#3F3D56"/>
<path d="M137.625 127.214H135.762V129.067H137.625V127.214Z" fill="#3F3D56"/>
<path d="M137.625 130.55H135.762V132.403H137.625V130.55Z" fill="#3F3D56"/>
<path d="M63.1591 92.5569L61.6066 91.074L70.3007 81.8073H92.3464V89.9621L78.0634 101.453L63.1591 92.5569Z" fill="#3F3D56"/>
<path d="M96.3659 87.0055V81.9925H93.4389V83.2203L92.3465 81.8073L85.2048 91.074L82.4104 93.2981L78.0773 131.089L84.612 138.89H99.7986V91.4446L96.3659 87.0055Z" fill="#CCCCCC"/>
<path d="M85.2048 91.0741H61.6065V138.89H85.2048V91.0741Z" fill="#F2F2F2"/>
<path d="M75.1135 127.214H70.7664V138.89H75.1135V127.214Z" fill="#CCCCCC"/>
<path d="M66.1088 130.55V128.697H64.2458V130.55H65.9536H66.1088Z" fill="#3F3D56"/>
<path d="M65.9536 132.033H64.2458V133.886H66.1088V132.033H65.9536Z" fill="#3F3D56"/>
<path d="M69.2139 128.697H67.3509V130.55H69.2139V128.697Z" fill="#3F3D56"/>
<path d="M69.2139 132.033H67.3509V133.886H69.2139V132.033Z" fill="#3F3D56"/>
<path d="M78.8395 130.55V128.697H76.9766V130.55H78.6843H78.8395Z" fill="#3F3D56"/>
<path d="M78.6843 132.033H76.9766V133.886H78.8395V132.033H78.6843Z" fill="#3F3D56"/>
<path d="M81.9446 128.697H80.0815V130.55H81.9446V128.697Z" fill="#3F3D56"/>
<path d="M81.9446 132.033H80.0815V133.886H81.9446V132.033Z" fill="#3F3D56"/>
<path d="M91.8806 93.4833V91.6301H90.0177V93.4833H91.7255H91.8806Z" fill="#3F3D56"/>
<path d="M91.7255 94.9662H90.0177V96.8194H91.8806V94.9662H91.7255Z" fill="#3F3D56"/>
<path d="M94.9857 91.6301H93.1227V93.4834H94.9857V91.6301Z" fill="#3F3D56"/>
<path d="M94.9857 94.9661H93.1227V96.8194H94.9857V94.9661Z" fill="#3F3D56"/>
<path d="M91.8806 103.862V102.009H90.0177V103.862H91.7255H91.8806Z" fill="#3F3D56"/>
<path d="M91.7255 105.345H90.0177V107.198H91.8806V105.345H91.7255Z" fill="#3F3D56"/>
<path d="M94.9857 102.009H93.1227V103.862H94.9857V102.009Z" fill="#3F3D56"/>
<path d="M94.9857 105.345H93.1227V107.198H94.9857V105.345Z" fill="#3F3D56"/>
<path d="M91.8806 114.241V112.387H90.0177V114.241H91.7255H91.8806Z" fill="#3F3D56"/>
<path d="M91.7255 115.723H90.0177V117.577H91.8806V115.723H91.7255Z" fill="#3F3D56"/>
<path d="M94.9857 112.387H93.1227V114.241H94.9857V112.387Z" fill="#3F3D56"/>
<path d="M94.9857 115.723H93.1227V117.577H94.9857V115.723Z" fill="#3F3D56"/>
<path d="M91.8806 124.619V122.766H90.0177V124.619H91.7255H91.8806Z" fill="#3F3D56"/>
<path d="M91.7255 126.102H90.0177V127.955H91.8806V126.102H91.7255Z" fill="#3F3D56"/>
<path d="M94.9857 122.766H93.1227V124.619H94.9857V122.766Z" fill="#3F3D56"/>
<path d="M94.9857 126.102H93.1227V127.955H94.9857V126.102Z" fill="#3F3D56"/>
<path d="M82.2551 93.4834H64.2458V97.9314H82.2551V93.4834Z" fill="#3F3D56"/>
<path d="M82.2551 102.379H64.2458V106.827H82.2551V102.379Z" fill="#3F3D56"/>
<path d="M82.2551 111.275H64.2458V115.723H82.2551V111.275Z" fill="#3F3D56"/>
<path d="M82.2551 120.171H64.2458V124.619H82.2551V120.171Z" fill="#3F3D56"/>
<path d="M153.896 92.5569L152.344 91.074L161.038 81.8073H183.083V89.9621L168.8 101.453L153.896 92.5569Z" fill="#3F3D56"/>
<path d="M187.103 87.0055V81.9925H184.176V83.2203L183.083 81.8073L175.942 91.074L173.147 93.2981L168.814 131.089L175.349 138.89H190.536V91.4446L187.103 87.0055Z" fill="#CCCCCC"/>
<path d="M175.942 91.0741H152.344V138.89H175.942V91.0741Z" fill="#F2F2F2"/>
<path d="M165.85 127.214H161.503V138.89H165.85V127.214Z" fill="#CCCCCC"/>
<path d="M156.846 130.55V128.697H154.983V130.55H156.691H156.846Z" fill="#3F3D56"/>
<path d="M156.691 132.033H154.983V133.886H156.846V132.033H156.691Z" fill="#3F3D56"/>
<path d="M159.951 128.697H158.088V130.55H159.951V128.697Z" fill="#3F3D56"/>
<path d="M159.951 132.033H158.088V133.886H159.951V132.033Z" fill="#3F3D56"/>
<path d="M169.576 130.55V128.697H167.713V130.55H169.421H169.576Z" fill="#3F3D56"/>
<path d="M169.421 132.033H167.713V133.886H169.576V132.033H169.421Z" fill="#3F3D56"/>
<path d="M172.682 128.697H170.819V130.55H172.682V128.697Z" fill="#3F3D56"/>
<path d="M172.682 132.033H170.819V133.886H172.682V132.033Z" fill="#3F3D56"/>
<path d="M182.618 93.4833V91.6301H180.755V93.4833H182.463H182.618Z" fill="#3F3D56"/>
<path d="M182.463 94.9662H180.755V96.8194H182.618V94.9662H182.463Z" fill="#3F3D56"/>
<path d="M185.723 91.6301H183.86V93.4834H185.723V91.6301Z" fill="#3F3D56"/>
<path d="M185.723 94.9661H183.86V96.8194H185.723V94.9661Z" fill="#3F3D56"/>
<path d="M182.618 103.862V102.009H180.755V103.862H182.463H182.618Z" fill="#3F3D56"/>
<path d="M182.463 105.345H180.755V107.198H182.618V105.345H182.463Z" fill="#3F3D56"/>
<path d="M185.723 102.009H183.86V103.862H185.723V102.009Z" fill="#3F3D56"/>
<path d="M185.723 105.345H183.86V107.198H185.723V105.345Z" fill="#3F3D56"/>
<path d="M182.618 114.241V112.387H180.755V114.241H182.463H182.618Z" fill="#3F3D56"/>
<path d="M182.463 115.723H180.755V117.577H182.618V115.723H182.463Z" fill="#3F3D56"/>
<path d="M185.723 112.387H183.86V114.241H185.723V112.387Z" fill="#3F3D56"/>
<path d="M185.723 115.723H183.86V117.577H185.723V115.723Z" fill="#3F3D56"/>
<path d="M182.618 124.619V122.766H180.755V124.619H182.463H182.618Z" fill="#3F3D56"/>
<path d="M182.463 126.102H180.755V127.955H182.618V126.102H182.463Z" fill="#3F3D56"/>
<path d="M185.723 122.766H183.86V124.619H185.723V122.766Z" fill="#3F3D56"/>
<path d="M185.723 126.102H183.86V127.955H185.723V126.102Z" fill="#3F3D56"/>
<path d="M172.992 93.4834H154.983V97.9314H172.992V93.4834Z" fill="#3F3D56"/>
<path d="M172.992 102.379H154.983V106.827H172.992V102.379Z" fill="#3F3D56"/>
<path d="M172.992 111.275H154.983V115.723H172.992V111.275Z" fill="#3F3D56"/>
<path d="M172.992 120.171H154.983V124.619H172.992V120.171Z" fill="#3F3D56"/>
<path d="M203.655 92.5569L202.103 91.074L210.797 81.8073H232.842V89.9621L218.559 101.453L203.655 92.5569Z" fill="#3F3D56"/>
<path d="M236.862 87.0055V81.9925H233.935V83.2203L232.843 81.8073L225.701 91.074L222.907 93.2981L218.573 131.089L225.108 138.89H240.295V91.4446L236.862 87.0055Z" fill="#CCCCCC"/>
<path d="M225.701 91.0741H202.102V138.89H225.701V91.0741Z" fill="#F2F2F2"/>
<path d="M215.61 127.214H211.263V138.89H215.61V127.214Z" fill="#CCCCCC"/>
<path d="M206.605 130.55V128.697H204.742V130.55H206.45H206.605Z" fill="#3F3D56"/>
<path d="M206.45 132.033H204.742V133.886H206.605V132.033H206.45Z" fill="#3F3D56"/>
<path d="M209.71 128.697H207.847V130.55H209.71V128.697Z" fill="#3F3D56"/>
<path d="M209.71 132.033H207.847V133.886H209.71V132.033Z" fill="#3F3D56"/>
<path d="M219.335 130.55V128.697H217.472V130.55H219.18H219.335Z" fill="#3F3D56"/>
<path d="M219.18 132.033H217.472V133.886H219.335V132.033H219.18Z" fill="#3F3D56"/>
<path d="M222.441 128.697H220.578V130.55H222.441V128.697Z" fill="#3F3D56"/>
<path d="M222.441 132.033H220.578V133.886H222.441V132.033Z" fill="#3F3D56"/>
<path d="M232.377 93.4833V91.6301H230.514V93.4833H232.222H232.377Z" fill="#3F3D56"/>
<path d="M232.222 94.9662H230.514V96.8194H232.377V94.9662H232.222Z" fill="#3F3D56"/>
<path d="M235.482 91.6301H233.619V93.4834H235.482V91.6301Z" fill="#3F3D56"/>
<path d="M235.482 94.9661H233.619V96.8194H235.482V94.9661Z" fill="#3F3D56"/>
<path d="M232.377 103.862V102.009H230.514V103.862H232.222H232.377Z" fill="#3F3D56"/>
<path d="M232.222 105.345H230.514V107.198H232.377V105.345H232.222Z" fill="#3F3D56"/>
<path d="M235.482 102.009H233.619V103.862H235.482V102.009Z" fill="#3F3D56"/>
<path d="M235.482 105.345H233.619V107.198H235.482V105.345Z" fill="#3F3D56"/>
<path d="M232.377 114.241V112.387H230.514V114.241H232.222H232.377Z" fill="#3F3D56"/>
<path d="M232.222 115.723H230.514V117.577H232.377V115.723H232.222Z" fill="#3F3D56"/>
<path d="M235.482 112.387H233.619V114.241H235.482V112.387Z" fill="#3F3D56"/>
<path d="M235.482 115.723H233.619V117.577H235.482V115.723Z" fill="#3F3D56"/>
<path d="M232.377 124.619V122.766H230.514V124.619H232.222H232.377Z" fill="#3F3D56"/>
<path d="M232.222 126.102H230.514V127.955H232.377V126.102H232.222Z" fill="#3F3D56"/>
<path d="M235.482 122.766H233.619V124.619H235.482V122.766Z" fill="#3F3D56"/>
<path d="M235.482 126.102H233.619V127.955H235.482V126.102Z" fill="#3F3D56"/>
<path d="M222.751 93.4834H204.742V97.9314H222.751V93.4834Z" fill="#3F3D56"/>
<path d="M222.751 102.379H204.742V106.827H222.751V102.379Z" fill="#3F3D56"/>
<path d="M222.751 111.275H204.742V115.723H222.751V111.275Z" fill="#3F3D56"/>
<path d="M222.751 120.171H204.742V124.619H222.751V120.171Z" fill="#3F3D56"/>
<path d="M256 138.705H0V139.243H256V138.705Z" fill="#3F3D56"/>
<path d="M57.189 117.471H56.7387V138.705H57.189V117.471Z" fill="#3F3D56"/>
<path d="M61.3449 120.177C61.3736 127.602 56.9977 133.645 56.9977 133.645C56.9977 133.645 52.5753 127.651 52.5466 120.226C52.518 112.801 56.8939 106.758 56.8939 106.758C56.8939 106.758 61.3163 112.753 61.3449 120.177Z" fill="#CC929B"/>
<path d="M102.22 117.471H101.77V138.705H102.22V117.471Z" fill="#3F3D56"/>
<path d="M106.376 120.177C106.404 127.602 102.028 133.645 102.028 133.645C102.028 133.645 97.606 127.651 97.5773 120.226C97.5487 112.801 101.925 106.758 101.925 106.758C101.925 106.758 106.347 112.753 106.376 120.177Z" fill="#CC929B"/>
<path d="M192.056 117.471H191.606V138.705H192.056V117.471Z" fill="#3F3D56"/>
<path d="M196.212 120.177C196.241 127.602 191.865 133.645 191.865 133.645C191.865 133.645 187.442 127.651 187.414 120.226C187.385 112.801 191.761 106.758 191.761 106.758C191.761 106.758 196.183 112.753 196.212 120.177Z" fill="#CC929B"/>
<path d="M132.278 46.2433C137.003 46.2433 140.834 45.2145 140.834 43.9453C140.834 42.6761 137.003 41.6472 132.278 41.6472C127.553 41.6472 123.722 42.6761 123.722 43.9453C123.722 45.2145 127.553 46.2433 132.278 46.2433Z" fill="#493657"/>
<path d="M141.96 11.8263C141.96 18.3577 132.053 36.8227 132.053 36.8227C132.053 36.8227 122.146 18.3577 122.146 11.8263C122.146 8.68974 123.19 5.68168 125.048 3.46383C126.906 1.24598 129.425 0 132.053 0C134.68 0 137.2 1.24598 139.058 3.46383C140.916 5.68168 141.96 8.68974 141.96 11.8263Z" fill="#CC929B"/>
<path d="M132.053 18.5457C135.161 18.5457 137.682 15.5373 137.682 11.8262C137.682 8.11519 135.161 5.10678 132.053 5.10678C128.944 5.10678 126.424 8.11519 126.424 11.8262C126.424 15.5373 128.944 18.5457 132.053 18.5457Z" fill="#F2F2F2"/>
</svg>
