<svg width="256" height="200" viewBox="0 0 256 200" fill="none" xmlns="http://www.w3.org/2000/svg">
<g clip-path="url(#clip0)">
<path opacity="0.1" d="M80.8282 7.05809C87.7801 0.86593 98.6963 -0.387728 108.648 0.0880438C139.879 1.63906 168.07 16.6925 192.456 33.7227C201.285 39.8863 209.977 46.5305 215.706 55.0206C227.38 72.303 223.911 96.2438 207.692 110.481C202.172 115.325 195.482 119.045 188.613 122.33C176.401 128.182 163.224 132.881 149.363 134.225C139.481 135.176 129.475 134.403 119.647 133.073C92.1947 129.355 65.2472 121.134 42.6595 107.07C32.7534 100.902 23.412 93.2322 19.3333 83.2529C15.2546 73.2736 17.8633 60.6276 27.9791 54.7209C32.1626 52.2778 37.1657 51.174 42.0615 50.1368C49.2707 48.612 56.5943 47.1085 63.0983 44.0089C69.819 40.8069 77.7739 34.6148 76.4398 27.5258C75.0151 19.9206 73.8715 13.2431 80.8282 7.05809Z" fill="#493657"/>
<path opacity="0.1" d="M109.813 197.583C127.331 197.583 141.532 193.144 141.532 187.668C141.532 182.192 127.331 177.753 109.813 177.753C92.2945 177.753 78.0932 182.192 78.0932 187.668C78.0932 193.144 92.2945 197.583 109.813 197.583Z" fill="#493657"/>
<path d="M174.857 85.6959L176.008 146.766L178.455 147.054L177.533 85.4533L174.857 85.6959Z" fill="#F5C5CC"/>
<path d="M168.942 84.547L170.092 145.617L172.539 145.905L171.617 84.3043L168.942 84.547Z" fill="#F5C5CC"/>
<path d="M170.388 81.3545L170.507 147.963L173.009 147.725L172.056 80.0461L170.388 81.3545Z" fill="#CC929B"/>
<path d="M101.386 70.2334L102.441 125.592L104.888 125.849L104.064 70.0098L101.386 70.2334Z" fill="#F5C5CC"/>
<path d="M102.799 69.1986L104.009 126.814L104.888 125.849L104.064 70.0098L102.799 69.1986Z" fill="#CC929B"/>
<path d="M106.592 71.6345L107.647 126.991L110.094 127.247L109.269 71.4109L106.592 71.6345Z" fill="#F5C5CC"/>
<path d="M108.004 70.5973L109.217 128.213L110.094 127.247L109.269 71.4109L108.004 70.5973Z" fill="#CC929B"/>
<path d="M111.68 73.1523L112.736 128.511L115.183 128.768L114.358 72.931L111.68 73.1523Z" fill="#F5C5CC"/>
<path d="M113.093 72.1198L114.306 129.733L115.183 128.768L114.358 72.931L113.093 72.1198Z" fill="#CC929B"/>
<path d="M116.631 73.4615L117.717 130.763L120.164 131.03L119.307 73.2331L116.631 73.4615Z" fill="#F5C5CC"/>
<path d="M118.042 72.391L119.288 132.029L120.164 131.03L119.307 73.2331L118.042 72.391Z" fill="#CC929B"/>
<path d="M121.999 73.9087L123.087 131.208L125.534 131.475L124.677 73.678L121.999 73.9087Z" fill="#F5C5CC"/>
<path d="M123.411 72.8382L124.657 132.474L125.534 131.475L124.677 73.678L123.411 72.8382Z" fill="#CC929B"/>
<path d="M127.273 75.7809L128.36 133.083L130.806 133.349L129.951 75.5525L127.273 75.7809Z" fill="#F5C5CC"/>
<path d="M128.684 74.7104L129.93 134.348L130.806 133.349L129.951 75.5525L128.684 74.7104Z" fill="#CC929B"/>
<path d="M133.31 77.0178L134.425 135.918L136.872 136.192L135.988 76.7823L133.31 77.0178Z" fill="#F5C5CC"/>
<path d="M134.721 75.9188L135.995 137.22L136.872 136.192L135.988 76.7823L134.721 75.9188Z" fill="#CC929B"/>
<path d="M138.564 77.6435L139.676 136.544L142.125 136.818L141.239 77.408L138.564 77.6435Z" fill="#F5C5CC"/>
<path d="M139.974 76.5421L141.249 137.845L142.125 136.818L141.239 77.408L139.974 76.5421Z" fill="#CC929B"/>
<path d="M144.129 79.2135L145.244 138.114L147.691 138.39L146.807 78.9804L144.129 79.2135Z" fill="#F5C5CC"/>
<path d="M145.542 78.1145L146.814 139.418L147.691 138.39L146.807 78.9804L145.542 78.1145Z" fill="#CC929B"/>
<path d="M96.6188 70.1358L96.4997 66.6294L97.7386 65.9538L186.588 84.1497L186.753 88.6005L96.6188 70.1358Z" fill="#F5C5CC"/>
<path d="M97.7386 65.9538L186.915 84.1354L186.824 85.803L96.6832 66.5271" fill="#CC929B"/>
<path d="M101.417 157.402L98.9155 158.311H96.5331L96.4139 64.4551L97.7243 62.6377L98.9893 62.2666L100.583 62.0263L101.417 157.402Z" fill="#F5C5CC"/>
<path d="M101.417 157.402L98.9155 158.311L98.7606 64.6407L98.9893 62.2666L100.583 62.0263L101.417 157.402Z" fill="#CC929B"/>
<path d="M150.176 80.9573L151.29 139.855L153.737 140.131L152.853 80.7217L150.176 80.9573Z" fill="#F5C5CC"/>
<path d="M151.586 79.8558L152.861 141.159L153.737 140.131L152.853 80.7217L151.586 79.8558Z" fill="#CC929B"/>
<path d="M156.267 81.8874L157.404 142.046L159.851 142.327L158.943 81.6495L156.267 81.8874Z" fill="#F5C5CC"/>
<path d="M162.54 82.9888L163.691 144.059L166.138 144.347L165.218 82.7462L162.54 82.9888Z" fill="#F5C5CC"/>
<path d="M163.951 81.8493L165.263 145.412L166.138 144.347L165.218 82.7461L163.951 81.8493Z" fill="#CC929B"/>
<path d="M66.7529 139.399L64.2514 139.637L64.1346 73.9349L64.1322 73.0285L65.7999 71.7202L65.8261 73.5424L66.7529 139.399Z" fill="#F5C5CC"/>
<path d="M75.5678 135.711L73.0663 135.949L72.9495 71.3205L72.9471 69.3413L74.6148 68.0329L74.653 70.6877L75.5678 135.711Z" fill="#F5C5CC"/>
<path d="M90.1005 129.764L87.599 130.002L87.4847 66.1893L87.4799 63.3941L89.1476 62.0858L89.2 65.792L90.1005 129.764Z" fill="#F5C5CC"/>
<path d="M96.414 127.385L93.9124 127.623L93.8004 65.3686L93.7933 61.0153L95.461 59.707L95.5467 65.754L96.414 127.385Z" fill="#F5C5CC"/>
<path d="M71.1603 138.685L68.6588 138.923L68.5397 72.7906V72.3149L70.2074 71.0065L70.224 72.2602L71.1603 138.685Z" fill="#F5C5CC"/>
<path d="M84.0254 132.738L81.5238 132.976L81.4071 68.09L81.4047 66.3677L83.0724 65.0594L83.1058 67.5001L84.0254 132.738Z" fill="#F5C5CC"/>
<path d="M79.8562 133.927L77.3546 134.165L77.2403 69.6719L77.2355 67.5571L78.9032 66.2488L78.9413 69.0035L79.8562 133.927Z" fill="#F5C5CC"/>
<path d="M64.0846 128.423L63.489 129.671C63.489 129.671 61.9404 131.991 62.1191 135.559C62.2978 139.127 59.6247 148.583 59.6247 148.583C59.6247 148.583 62.0667 149.713 63.913 149.594C65.7594 149.475 69.75 151.438 69.75 151.438L78.0217 154L94.7582 157.925C94.7582 157.925 104.586 163.397 107.266 163.397C109.946 163.397 120.607 167.024 120.607 167.024C120.607 167.024 135.021 170.176 136.153 171.366C137.284 172.555 142.056 174.156 142.533 174.22C143.009 174.285 150.276 174.993 150.276 174.993C150.276 174.993 158.733 176.956 159.924 174.875C160.619 173.704 161.084 172.412 161.294 171.068C161.294 171.068 165.047 171.901 166.059 170.652C167.072 169.403 167.131 166.727 168.322 166.846C169.514 166.965 174.398 168.452 174.934 167.916C175.47 167.381 178.329 161.077 180.354 162.029C182.379 162.98 185.893 164.467 185.893 164.467L183.868 143.89L182.974 138.24C182.974 138.24 150.514 151.443 149.382 151.443C148.251 151.443 64.0846 128.423 64.0846 128.423Z" fill="#493657"/>
<path d="M182.796 110.403L182.617 139.425L148.899 152.335L63.489 129.676C63.489 129.676 57.7116 121.529 63.072 113.916C63.072 113.916 56.163 104.401 64.7397 98.2159L64.9518 98.1659L97.3788 90.3656L111.8 92.9966L175.517 104.634C175.517 104.634 181.776 106.953 182.796 110.403Z" fill="#493657"/>
<path opacity="0.1" d="M110.661 95.7728C109.053 96.6054 97.3788 99.6384 95.056 101.482C92.7331 103.326 76.6518 104.758 76.6518 104.758L74.865 105.115C74.865 105.115 74.9841 103.925 67.8965 100.476C66.7641 99.9196 65.761 99.1327 64.9518 98.1659L97.3788 90.3656L111.8 92.9966C111.819 94.1361 111.623 95.2732 110.661 95.7728Z" fill="black"/>
<path d="M61.6426 84.2996C61.6426 84.2996 61.047 95.837 68.1347 99.2863C75.2223 102.736 75.1104 103.92 75.1104 103.92L76.8972 103.564C76.8972 103.564 70.7029 96.6648 71.1198 95.4754C71.5367 94.286 65.5807 88.2794 64.7397 88.0415C63.8987 87.8036 61.6426 84.2996 61.6426 84.2996Z" fill="#493657"/>
<path opacity="0.1" d="M61.7689 84.4732C61.7689 84.4732 61.1733 96.0107 68.2609 99.46C75.3486 102.909 75.2295 104.099 75.2295 104.099L77.0163 103.742C77.0163 103.742 70.822 96.8433 71.239 95.6539C71.6559 94.4644 65.6927 88.4578 64.866 88.2199C64.0393 87.9821 61.7689 84.4732 61.7689 84.4732Z" fill="black"/>
<path opacity="0.1" d="M63.4366 89.3499C63.4366 89.3499 69.1544 97.9732 70.1669 98.2706C71.1794 98.5679 64.7993 89.4688 63.4366 89.3499Z" fill="black"/>
<path d="M60.8159 82.6891C60.8159 82.6891 64.5086 79.7155 64.9851 79.1208C65.4616 78.5261 70.7029 78.2882 70.8816 78.2882C71.0603 78.2882 75.0508 75.8498 79.5178 75.0767C83.9849 74.3036 85.7717 73.9468 85.7717 73.9468C85.7717 73.9468 92.3233 71.2111 92.6807 70.6164C93.038 70.0216 96.0756 69.3675 99.8279 72.2816C103.58 75.1957 111.859 88.2794 111.919 89.7067C111.978 91.134 112.514 93.7507 110.906 94.5833C109.298 95.4159 97.6242 98.449 95.3013 100.293C92.9785 102.136 76.89 103.568 76.89 103.568L70.822 96.9622L67.6058 91.7882L62.2453 86.1384L60.8159 82.6891Z" fill="#493657"/>
<path opacity="0.1" d="M70.7744 134.053C70.7744 134.053 68.5516 134.529 69.8214 135.797C71.0912 137.065 70.7744 134.053 70.7744 134.053Z" fill="black"/>
<path opacity="0.1" d="M78.5577 136.592C78.5577 136.592 76.1753 139.446 76.6518 140.238C77.1283 141.031 78.5577 136.592 78.5577 136.592Z" fill="black"/>
<path opacity="0.1" d="M92.5354 140.238C92.5354 140.238 90.153 143.093 90.6294 143.885C91.1059 144.677 92.5354 140.238 92.5354 140.238Z" fill="black"/>
<path opacity="0.1" d="M109.529 144.996C109.529 144.996 107.147 147.851 107.623 148.643C108.1 149.435 109.529 144.996 109.529 144.996Z" fill="black"/>
<path opacity="0.1" d="M132.4 150.705C132.4 150.705 130.018 153.56 130.494 154.352C130.971 155.144 132.4 150.705 132.4 150.705Z" fill="black"/>
<path opacity="0.1" d="M85.3881 137.384C85.3881 137.384 83.0057 140.238 83.4822 141.031C83.9587 141.823 85.3881 137.384 85.3881 137.384Z" fill="black"/>
<path opacity="0.1" d="M118.582 147.375C118.582 147.375 116.2 150.23 116.676 151.022C117.153 151.814 118.582 147.375 118.582 147.375Z" fill="black"/>
<path opacity="0.1" d="M125.57 149.594C125.57 149.594 123.188 152.449 123.664 153.244C124.141 154.038 125.57 149.594 125.57 149.594Z" fill="black"/>
<path opacity="0.1" d="M98.7297 142.141C98.7297 142.141 96.3472 144.996 96.8237 145.788C97.3002 146.58 98.7297 142.141 98.7297 142.141Z" fill="black"/>
<path opacity="0.1" d="M158.767 159.429L161.287 171.064C161.287 171.064 161.306 162.916 158.767 159.429Z" fill="black"/>
<path opacity="0.1" d="M166.547 161.172L168.315 166.846C168.315 166.846 168.137 164.662 166.547 161.172Z" fill="black"/>
<path opacity="0.1" d="M174.934 167.912C174.934 167.912 171.162 154.195 170.366 153.244C169.571 152.292 172.663 167.041 174.934 167.912Z" fill="black"/>
<path opacity="0.1" d="M179.413 161.489C179.413 161.489 174.967 153.719 176.713 152.292C178.46 150.865 179.413 161.489 179.413 161.489Z" fill="black"/>
<path opacity="0.1" d="M63.0721 113.912L149.394 133.261L182.591 123.586L149.077 132.31C149.077 132.31 65.6927 113.119 63.0721 113.912Z" fill="black"/>
<path d="M65.6808 92.892L65.7999 148.26L68.2419 148.557L68.361 92.7136L65.6808 92.892Z" fill="#F5C5CC"/>
<path d="M67.1102 91.881L67.3485 149.509L68.2419 148.557L68.361 92.7136L67.1102 91.881Z" fill="#CC929B"/>
<path d="M70.8625 94.3788L70.9817 149.747L73.4236 150.044L73.5428 94.2004L70.8625 94.3788Z" fill="#F5C5CC"/>
<path d="M72.292 93.3678L72.5302 150.996L73.4237 150.044L73.5428 94.2004L72.292 93.3678Z" fill="#CC929B"/>
<path d="M75.9252 95.9845L76.0443 151.352L78.4863 151.65L78.6054 95.8061L75.9252 95.9845Z" fill="#F5C5CC"/>
<path d="M77.3546 94.9735L77.5929 152.601L78.4863 151.65L78.6054 95.8061L77.3546 94.9735Z" fill="#CC929B"/>
<path d="M80.8687 96.377L80.9878 153.688L83.4298 153.995L83.5489 96.1914L80.8687 96.377Z" fill="#F5C5CC"/>
<path d="M82.2981 95.3303L82.5364 154.98L83.4298 153.995L83.5489 96.1915L82.2981 95.3303Z" fill="#CC929B"/>
<path d="M86.2291 96.9123L86.3482 154.224L88.7902 154.531L88.9093 96.7267L86.2291 96.9123Z" fill="#F5C5CC"/>
<path d="M87.6586 95.8656L87.8968 155.515L88.7902 154.531L88.9093 96.7267L87.6586 95.8656Z" fill="#CC929B"/>
<path d="M91.4704 98.8748L91.5895 156.186L94.0315 156.493L94.1507 98.6892L91.4704 98.8748Z" fill="#F5C5CC"/>
<path d="M92.8999 97.8281L93.1381 157.478L94.0315 156.493L94.1507 98.6892L92.8999 97.8281Z" fill="#CC929B"/>
<path d="M98.9155 99.1365L99.1537 160.452L100.047 159.438L100.166 100.021L98.9155 99.1365Z" fill="#CC929B"/>
<path d="M102.727 100.925L102.846 159.835L105.288 160.152L105.408 100.735L102.727 100.925Z" fill="#F5C5CC"/>
<path d="M104.157 99.8501L104.395 161.165L105.288 160.152L105.408 100.735L104.157 99.8501Z" fill="#CC929B"/>
<path d="M108.266 102.591L108.386 161.501L110.828 161.817L110.947 102.4L108.266 102.591Z" fill="#F5C5CC"/>
<path d="M109.696 101.515L109.934 162.83L110.828 161.817L110.947 102.4L109.696 101.515Z" fill="#CC929B"/>
<path d="M114.282 104.434L114.401 163.344L116.843 163.661L116.962 104.244L114.282 104.434Z" fill="#F5C5CC"/>
<path d="M115.711 103.359L115.95 164.674L116.843 163.661L116.962 104.244L115.711 103.359Z" fill="#CC929B"/>
<path d="M120.357 105.469L120.476 165.635L122.918 165.959L123.037 105.274L120.357 105.469Z" fill="#F5C5CC"/>
<path d="M121.787 104.37L122.025 166.993L122.918 165.959L123.037 105.274L121.787 104.37Z" fill="#CC929B"/>
<path d="M126.611 106.675L126.73 167.757L129.172 168.085L129.291 106.478L126.611 106.675Z" fill="#CC929B"/>
<path d="M132.984 108.34L133.103 169.422L135.545 169.75L135.664 108.143L132.984 108.34Z" fill="#F5C5CC"/>
<path d="M134.413 107.225L134.652 170.8L135.545 169.75L135.664 108.143L134.413 107.225Z" fill="#CC929B"/>
<path d="M138.88 109.589L139 170.671L141.442 170.999L141.561 109.392L138.88 109.589Z" fill="#CC929B"/>
<path d="M62.4645 159.024L59.963 159.976H57.5806L57.4615 72.6717L58.7718 70.7686L60.0368 70.3808L61.8689 69.817L62.4645 159.024Z" fill="#F5C5CC"/>
<path d="M62.4645 159.024L59.963 159.976L59.8081 72.8644L60.0369 70.3808L61.8689 69.817L62.4645 159.024Z" fill="#CC929B"/>
<path d="M60.2012 162.711C61.7802 162.711 63.0601 161.433 63.0601 159.857C63.0601 158.28 61.7802 157.002 60.2012 157.002C58.6223 157.002 57.3423 158.28 57.3423 159.857C57.3423 161.433 58.6223 162.711 60.2012 162.711Z" fill="#40414D"/>
<path d="M190.4 172.389L187.899 173.297H185.516L185.397 77.3009L186.707 77.6245L187.973 77.2534L189.805 76.7157L190.4 172.389Z" fill="#F5C5CC"/>
<path d="M190.4 172.389L187.899 173.297L187.744 79.6275L187.973 77.2534L189.805 76.7157L190.4 172.389Z" fill="#CC929B"/>
<path d="M155.736 154.385L153.235 154.623L153.12 90.4917L153.115 88.0153L154.783 86.707L154.831 90.1254L155.736 154.385Z" fill="#F5C5CC"/>
<path d="M164.551 150.698L162.049 150.936L161.937 87.9892L161.93 84.3281L163.598 83.0197L163.66 87.3635L164.551 150.698Z" fill="#F5C5CC"/>
<path d="M179.084 144.751L176.582 144.989L176.47 82.1895L176.463 78.3809L178.131 77.0726L178.193 81.4758L179.084 144.751Z" fill="#F5C5CC"/>
<path d="M182.776 76.0021L182.896 142.61L185.397 142.372L184.444 74.6937L182.776 76.0021Z" fill="#F5C5CC"/>
<path d="M160.143 153.672L157.642 153.91L157.528 89.4141L157.523 87.3016L159.191 85.9933L159.231 88.8979L160.143 153.672Z" fill="#F5C5CC"/>
<path d="M168.839 148.914L166.338 149.152L166.226 86.3715L166.219 82.5439L167.886 81.2356L167.948 85.6793L168.839 148.914Z" fill="#F5C5CC"/>
<path d="M173.683 147.327L171.181 147.565L171.069 84.7848V84.4113L171.062 80.9572L172.73 79.6488L172.787 83.7072L172.792 84.0926L173.683 147.327Z" fill="#F5C5CC"/>
<path d="M150.733 153.95L185.278 139.28L187.66 139.834L187.739 145.305L151.369 159.341L150.733 153.95Z" fill="#F5C5CC"/>
<path d="M185.278 139.28L150.733 153.95L187.532 139.803" fill="#CC929B"/>
<path d="M61.2328 146.178L148.351 172.584L148.191 176.866L60.916 149.985L61.2328 146.178Z" fill="#F5C5CC"/>
<path d="M152.162 187.57L149.661 188.522H147.278L147.159 90.751V90.2752L147.345 90.004L148.47 88.3721L149.735 87.9844L151.567 87.4206L151.586 90.751L152.162 187.57Z" fill="#F5C5CC"/>
<path d="M152.162 187.57L149.661 188.522L149.506 90.4679L149.735 87.9844L151.567 87.4206L152.162 187.57Z" fill="#CC929B"/>
<path opacity="0.1" d="M151.567 87.4206L151.586 90.751C150.896 90.8516 150.202 90.9167 149.506 90.946C147.791 91.0127 147.159 90.7534 147.159 90.7534C147.159 90.7201 147.226 90.4536 147.345 90.0088L148.47 88.3769L149.735 87.9891L151.567 87.4206Z" fill="black"/>
<path opacity="0.1" d="M154.783 86.707L154.831 90.1254C154.216 90.2681 153.646 90.3902 153.12 90.4917V88.0153L154.783 86.707Z" fill="black"/>
<path opacity="0.1" d="M159.191 85.9933L159.231 88.8979C158.638 89.0858 158.068 89.2571 157.528 89.4141V87.3016L159.191 85.9933Z" fill="black"/>
<path opacity="0.1" d="M163.598 83.0197L163.66 87.3635C163.064 87.584 162.49 87.7925 161.938 87.9892V84.3281L163.598 83.0197Z" fill="black"/>
<path opacity="0.1" d="M167.886 81.2356L167.948 85.6793L166.576 86.2312L166.226 86.3715V82.5439L167.886 81.2356Z" fill="black"/>
<path opacity="0.1" d="M178.193 81.4758L176.47 82.1895V78.3833L178.138 77.075L178.193 81.4758Z" fill="black"/>
<path opacity="0.1" d="M172.789 83.7072L171.072 84.4209V80.9667L172.739 79.6584L172.789 83.7072Z" fill="black"/>
<path d="M191.234 78.8567C191.234 78.8567 186.827 78.8567 185.635 78.4999C184.444 78.1431 181.943 79.5704 166.576 85.7554C157.285 89.4973 152.127 90.3656 149.506 90.4679C147.791 90.5345 147.159 90.2752 147.159 90.2752C147.159 90.2752 150.297 75.9022 160.289 73.2164C161.403 72.9134 162.498 72.5457 163.569 72.115L163.762 72.0413C164.601 71.7167 165.462 71.4505 166.338 71.2444C169.545 70.5093 171.834 69.1034 177.63 69.0606C181.227 69.0004 184.737 70.1631 187.584 72.3577C189.571 73.9182 191.284 76.0758 191.234 78.8567Z" fill="#CC929B"/>
<path d="M164.194 71.958C151.829 77.2819 149.942 87.2327 149.506 90.4679C147.791 90.5345 147.159 90.2752 147.159 90.2752C147.159 90.2752 150.297 75.9022 160.289 73.2165C161.403 72.9134 162.498 72.5457 163.569 72.115L163.762 72.0413C163.905 72.0199 164.048 71.9913 164.194 71.958Z" fill="#F5C5CC"/>
<path opacity="0.1" d="M65.7999 71.7202L65.8261 73.5424C65.2234 73.6922 64.6611 73.8231 64.1346 73.9349V73.0285L65.7999 71.7202Z" fill="black"/>
<path opacity="0.1" d="M70.2074 71.0065L70.224 72.2602C69.638 72.4536 69.0765 72.6305 68.5397 72.7906V72.3149L70.2074 71.0065Z" fill="black"/>
<path opacity="0.1" d="M74.6148 68.0329L74.653 70.6877C74.0669 70.9113 73.4991 71.1223 72.9495 71.3205V69.3413L74.6148 68.0329Z" fill="black"/>
<path opacity="0.1" d="M78.9032 66.2488L78.9413 69.0035C78.3934 69.2144 77.8263 69.4372 77.2403 69.672V67.5571L78.9032 66.2488Z" fill="black"/>
<path opacity="0.1" d="M83.0724 65.0594L83.1058 67.5C82.5658 67.6808 81.9995 67.8775 81.4071 68.09V66.3677L83.0724 65.0594Z" fill="black"/>
<path opacity="0.1" d="M89.1476 62.0858L89.2 65.792C88.6735 65.9014 88.1041 66.0299 87.4846 66.1893V63.3941L89.1476 62.0858Z" fill="black"/>
<path opacity="0.1" d="M95.5467 65.7445C94.986 65.5335 94.398 65.4037 93.8004 65.3591V61.0058L95.4681 59.6974L95.5467 65.7445Z" fill="black"/>
<path d="M101.536 65.773C101.536 65.773 97.1287 65.773 95.9375 65.4162C94.7462 65.0593 92.2447 63.1563 76.8781 69.3413C67.5867 73.0832 62.4288 73.9515 59.8081 74.0538C58.0928 74.1204 57.4615 73.8611 57.4615 73.8611C57.4615 73.8611 59.8272 61.3721 70.2598 59.2645C70.842 59.1511 71.4171 59.0042 71.9823 58.8244C72.6231 58.615 73.6333 58.3153 74.9913 58.0037C78.4934 57.1996 84.2994 56.3171 92.016 56.6905C94.6906 56.7905 97.2273 57.901 99.1132 59.7973C99.9023 60.5769 100.524 61.5088 100.941 62.5362C101.357 63.5635 101.56 64.6649 101.536 65.773Z" fill="#CC929B"/>
<path d="M74.9913 58.0036C62.6265 63.3275 60.2441 70.8185 59.8081 74.0538C58.0928 74.1204 57.4615 73.8611 57.4615 73.8611C57.4615 73.8611 59.8272 61.3721 70.2598 59.2644C70.842 59.1511 71.4171 59.0042 71.9823 58.8244C72.6232 58.6079 73.6333 58.3153 74.9913 58.0036Z" fill="#F5C5CC"/>
<path d="M60.916 92.7136L60.8564 89.2048L62.1072 88.5506L147.636 107.7L147.398 112.161L60.916 92.7136Z" fill="#F5C5CC"/>
<path d="M62.1072 88.5506L147.636 107.7L147.517 109.366L61.0422 89.1072" fill="#CC929B"/>
<path d="M187.899 176.152C189.478 176.152 190.758 174.874 190.758 173.297C190.758 171.721 189.478 170.443 187.899 170.443C186.32 170.443 185.04 171.721 185.04 173.297C185.04 174.874 186.32 176.152 187.899 176.152Z" fill="#40414D"/>
<path d="M150.018 192.328C151.597 192.328 152.877 191.05 152.877 189.474C152.877 187.897 151.597 186.619 150.018 186.619C148.439 186.619 147.159 187.897 147.159 189.474C147.159 191.05 148.439 192.328 150.018 192.328Z" fill="#40414D"/>
<path d="M64.1728 130.794C64.1728 130.794 61.6307 133.649 60.8374 136.187C60.044 138.725 61.7903 148.241 61.7903 148.241C62.6856 146.658 63.3286 144.945 63.6963 143.164C64.33 140.153 64.1728 130.794 64.1728 130.794Z" fill="#493657"/>
<path d="M184.802 154.504C184.802 154.504 186.35 162.355 186.469 163.544C186.588 164.733 182.538 162.949 182.538 162.949L184.802 154.504Z" fill="#493657"/>
<path d="M137.868 57.3732H137.827C137.818 57.2924 137.787 57.2154 137.739 57.1496C137.631 57.0226 137.496 56.9204 137.344 56.8499L136.227 56.229L137.191 56.5787C137.146 56.5011 137.096 56.4264 137.041 56.3551L137.153 56.4169L137.077 56.3099L136.975 56.2742C136.46 55.6724 135.602 55.4226 134.771 55.4345H134.785C134.892 55.4202 135.002 55.4107 135.109 55.4035C134.871 55.3886 134.631 55.3958 134.394 55.425C134.421 55.4365 134.449 55.4445 134.478 55.4487C134.402 55.4487 134.325 55.463 134.24 55.4725C134.117 55.5057 133.988 55.5057 133.866 55.4725C133.79 55.4342 133.725 55.3787 133.675 55.3106C133.625 55.2424 133.591 55.1634 133.577 55.08C133.458 54.6043 133.646 54.0928 133.701 53.5956C133.728 53.3623 133.703 53.1258 133.627 52.9034C133.627 52.8558 133.627 52.8082 133.627 52.7606C133.588 52.6554 133.524 52.5609 133.442 52.4848C133.359 52.4088 133.259 52.3533 133.151 52.3229C133.15 52.3411 133.15 52.3594 133.151 52.3776L133.11 52.361C133.11 52.7868 133.11 53.215 133.11 53.6408C132.74 53.3495 132.412 53.0085 132.136 52.6274C132.087 52.5695 132.053 52.4998 132.038 52.4252C132.014 52.2087 132.291 52.0589 132.307 51.84C132.306 51.7697 132.283 51.7016 132.24 51.6459C132.197 51.5901 132.137 51.5498 132.069 51.5308L132.141 51.5046C132.056 51.4654 131.962 51.449 131.869 51.457C131.665 51.5035 131.464 51.5639 131.269 51.6378L131.331 51.6497C131.284 51.6649 131.238 51.6776 131.19 51.6878C130.592 51.8115 130.058 51.3357 129.627 50.9051L129.534 50.8124C129.329 49.0211 128.998 46.9681 128.998 46.9681C128.998 46.9681 128.7 44.6226 128.284 43.3618C127.867 42.101 127.266 39.8744 127.266 39.8744C127.266 39.8744 125.894 37.1696 125.599 37.0507C125.483 36.9932 125.371 36.9297 125.263 36.8604C125.134 36.4558 125.054 36.0373 125.024 35.6138C124.951 33.2493 127.481 31.5698 127.862 29.2266C128.174 27.3235 126.973 25.4204 127.147 23.4912C127.228 22.6467 127.569 21.8522 127.752 21.0243C127.926 20.2212 127.95 19.3928 127.821 18.5812C127.761 18.1448 127.629 17.7213 127.431 17.3276C127.777 16.8808 128.066 16.3925 128.291 15.8741C128.677 14.7751 128.26 13.5476 127.657 12.5437C125.72 9.34888 121.796 6.83443 118.127 6.50853C116.648 6.37293 115.164 6.34676 113.682 6.32298C111.981 6.29205 110.222 6.27302 108.65 6.92958C105.524 8.23558 104.045 11.7254 102.146 14.5419C100.578 16.8714 98.569 18.8729 96.2329 20.4344C95.1346 21.167 93.8505 21.9473 93.5932 23.2485C93.5687 23.3733 93.5536 23.4998 93.5479 23.6268C93.5158 23.5124 93.4896 23.3965 93.4693 23.2795C93.2096 24.6378 94.1697 25.8962 94.6605 27.1927C94.9169 27.8703 95.0648 28.5839 95.0989 29.3075C95.1179 28.9652 95.1179 28.6221 95.0989 28.2798C95.5753 30.7491 94.701 33.3991 94.1602 35.9231C94.1197 36.1086 94.0887 36.2942 94.0506 36.4797C93.6067 36.6033 93.1842 36.7934 92.7974 37.0435C91.9491 37.6073 90.9883 37.9806 89.9814 38.1378C88.6307 38.3496 87.4156 39.0783 86.5936 40.1693C86.4412 40.3739 86.2935 40.5143 86.1648 40.5286C85.6288 40.5904 82.6412 49.906 82.6412 49.906C82.6412 49.906 82.0194 53.7431 82.0194 54.6423C82.0194 55.5415 80.9449 62.0358 80.9449 62.0358C80.9449 62.0358 80.5852 63.2252 80.7067 63.7177C80.7758 63.9912 80.6114 64.9071 80.4565 65.6445C80.3916 65.6176 80.3344 65.5751 80.2898 65.5208C80.1111 65.1616 76.8234 65.5208 77.8406 67.9258C78.0935 68.5729 78.4865 69.1561 78.9914 69.6339C78.5387 70.7662 78.1456 71.82 78.198 71.9533C78.198 71.9533 78.198 72.812 78.2742 73.873C77.5762 74.3488 77.0044 74.777 77.0044 74.777C76.9544 76.0901 77.8311 76.2994 78.6554 76.2518C78.8675 77.0131 79.1772 77.6173 79.6322 77.7814C81.126 78.3238 82.0813 78.0836 82.5602 78.4951C83.0391 78.9066 85.593 79.7059 85.593 79.7059C86.6777 79.8691 87.7705 79.9731 88.8665 80.0176L89.3048 80.2364L89.2524 79.9986C89.393 79.9724 89.3287 79.8059 89.1524 79.5228C89.0737 79.1588 88.9737 78.683 88.8617 78.1407L89.5169 77.9028L89.6955 78.1668C89.4573 79.4133 89.3048 80.2436 89.3048 80.2436C89.3048 80.2436 88.1136 84.5112 88.6473 85.1726C89.1809 85.8339 88.6473 86.676 88.6473 86.676C88.6473 86.676 88.5282 87.756 88.8283 87.756C89.1285 87.756 89.4835 89.1381 89.1857 89.2C88.8879 89.2618 87.518 90.4013 87.9945 90.6415C88.471 90.8818 87.9945 91.4218 87.9945 91.9642C87.9945 92.3591 88.7235 92.9443 89.119 93.2321C89.0475 93.489 88.9737 93.7626 88.9046 94.0314C88.6997 94.826 88.5401 95.5919 88.5901 95.8703C88.7092 96.5316 88.2923 98.3942 88.4114 98.9961C88.5305 99.5979 88.9498 100.918 88.6497 101.461C88.3495 102.003 88.7092 103.804 88.7092 103.804L89.2477 108.911C89.2477 108.911 88.8903 110.355 89.2477 110.714C89.605 111.074 89.9052 115.284 90.2626 115.765C90.6199 116.245 91.1607 118.769 90.739 119.611C90.3174 120.453 91.2775 122.195 91.2775 122.195C91.2775 122.195 91.2179 124.238 91.2179 124.778C91.2179 125.318 91.754 126.16 91.754 126.16C91.754 126.16 92.2924 129.046 92.2304 129.767C92.1685 130.487 92.5878 131.51 92.5878 131.51C92.5878 131.51 92.9475 133.613 92.888 134.094C92.8284 134.574 93.3645 135.236 93.3645 135.236C93.3645 135.236 94.022 136.798 93.8409 137.46C93.6599 138.121 94.2579 138.782 94.2579 138.782C94.2579 138.782 94.1983 140.224 94.1983 140.405C94.1983 140.586 95.4538 142.027 95.4538 142.027C95.4538 142.027 94.9154 143.11 95.2156 143.531C95.5158 143.952 95.4538 145.453 95.9303 145.936C96.4068 146.419 96.2877 148.398 96.8833 148.759C97.4789 149.121 98.0173 149.421 98.1364 150.201C98.2556 150.981 98.7344 152.125 99.2729 152.306C99.375 152.376 99.4638 152.464 99.5349 152.566L99.2967 153.577L98.5605 156.633C98.5605 156.633 97.8458 161.079 97.903 161.741C97.9601 162.402 97.1882 163.063 97.1882 163.063C97.1882 163.063 96.5307 166.91 96.4116 167.391C96.2925 167.871 96.4711 168.773 96.4711 168.773C96.4711 168.773 96.0542 171.056 96.352 171.178C96.6498 171.299 97.9053 172.56 97.9053 172.56H98.003L97.8744 173.012L95.8136 180.315C95.8136 180.315 93.9077 183.5 98.3247 185.123C98.4724 185.408 98.6082 185.415 98.4485 185.36C98.5939 185.484 101.546 187.977 101.784 189.145C102.022 190.313 104.054 191.548 104.771 191.669C105.489 191.791 110.268 195.635 112 191.85C113.732 188.065 108.953 185.598 108.953 185.598L105.315 183.26C105.315 183.26 103.464 180.555 103.17 180.075C102.877 179.594 102.334 177.249 102.694 176.889C102.877 176.704 103.452 175.058 103.971 173.492C104.019 173.342 104.069 173.195 104.116 173.048C105.131 173.285 106.28 172.81 106.28 172.81L108.941 168.618L109.417 167.883L109.503 168.054C109.503 168.054 111.714 168.235 112.788 168.416C113.13 168.43 113.471 168.387 113.798 168.29C113.839 168.378 113.879 168.468 113.918 168.559C114.178 169.116 114.4 169.69 114.58 170.279C114.759 171.059 114.94 173.823 114.94 173.823C114.94 173.823 113.748 177.791 113.446 178.512C113.143 179.233 113.744 185.244 119.659 182.839C119.659 182.839 120.374 181.697 121.031 181.697C121.689 181.697 123.302 180.075 122.699 178.331C122.096 176.587 119.602 171.24 121.327 168.416C122.718 166.142 122.606 163.092 120.736 161.674C120.657 161.615 120.574 161.562 120.498 161.51C120.518 161.207 120.518 160.904 120.498 160.601C120.078 154.833 117.401 154.53 117.401 154.53C117.401 154.53 115.847 154.171 115.669 153.579C115.564 153.232 114.218 151.438 113.103 149.98C113.141 149.918 113.177 149.856 113.212 149.794C113.212 149.773 113.236 149.751 113.246 149.73C113.298 149.632 113.348 149.533 113.396 149.428C114.263 147.482 114.039 144.651 113.994 144.144C113.934 143.483 113.994 142.641 113.994 141.68C113.994 140.719 114.947 139.275 114.83 138.735C114.713 138.195 115.966 135.971 115.966 135.428C115.966 134.886 116.846 131.639 116.846 131.639C116.846 131.639 118.578 127.911 118.937 126.829C119.28 125.792 125.398 106.884 125.894 105.352C125.903 105.318 125.914 105.285 125.927 105.252C125.927 105.252 127.881 98.87 126.573 94.6785C126.488 94.4017 126.385 94.1308 126.266 93.8673C126.666 93.6746 126.942 93.5342 126.942 93.5342C126.942 93.5342 126.166 91.2505 126.523 90.4084C126.88 89.5663 126.642 87.9439 126.642 87.9439C126.642 87.9439 125.213 87.1018 125.151 86.7426C125.089 86.3834 124.493 85.9005 124.674 85.42C124.855 84.9394 125.865 85.1821 125.749 84.0973C125.632 83.0126 124.376 81.8731 124.495 81.2118C124.615 80.5504 125.091 79.3491 124.495 78.6283C123.9 77.9075 123.659 76.7657 123.6 75.8641C123.583 75.6262 123.635 74.9244 123.719 73.9991C124.356 74.3948 125.013 74.7561 125.689 75.0814C125.689 75.0814 128.257 75.443 128.379 75.2028C128.609 74.8966 128.869 74.6144 129.155 74.3607C132.381 73.5804 130.947 67.6999 130.947 67.6999C130.947 67.6999 130.899 67.2693 130.823 66.5604C130.904 66.54 130.98 66.5036 131.047 66.4533C131.321 66.2535 131.388 65.8729 131.555 65.5732C131.744 65.2898 131.967 65.0295 132.217 64.7976C132.808 64.1554 133.158 63.3347 133.496 62.5282C133.711 62.0144 133.93 61.5006 134.147 60.9843C134.363 60.4681 134.623 59.852 135.1 59.4785C135.648 59.0384 136.391 58.9528 137.089 58.8886C137.061 58.3548 136.861 57.8442 136.52 57.4327C136.729 57.3686 136.951 57.3523 137.168 57.3853C137.385 57.4182 137.591 57.4995 137.773 57.623C137.782 57.6069 137.791 57.5902 137.799 57.5731H137.813C137.853 57.5143 137.872 57.4441 137.868 57.3732ZM86.8533 73.8326C86.8676 73.7136 86.8891 73.5947 86.9153 73.4757C87.032 73.3663 87.1726 73.2378 87.3227 73.1189L88.1565 73.1998C87.9516 73.3663 87.7729 73.5185 87.6276 73.6422C87.3703 73.5114 87.0892 73.6399 86.8533 73.8326ZM88.521 72.184C88.639 72.1755 88.7553 72.1506 88.8665 72.1103C89.0261 72.1103 89.1905 72.1103 89.3572 72.1103H89.5955C89.1976 72.3886 88.795 72.6978 88.4376 72.9857L88.521 72.203V72.184ZM89.8957 60.0518C89.8957 60.0518 89.8409 61.7598 89.9624 63.4774C89.7765 63.6082 89.5836 63.751 89.393 63.9008L89.8147 59.94L89.8957 60.0518Z" fill="url(#paint0_linear)"/>
<path d="M121.012 181.445C120.357 181.445 119.642 182.575 119.642 182.575C113.746 184.954 113.15 179.007 113.448 178.293C113.746 177.579 114.937 173.654 114.937 173.654C114.937 173.654 114.759 170.918 114.58 170.145C114.399 169.564 114.179 168.996 113.92 168.444C113.52 167.533 113.091 166.637 113.091 166.637C113.091 166.637 115.652 160.333 119.047 160.927C119.652 161.028 120.224 161.273 120.715 161.641C122.58 163.044 122.692 166.063 121.303 168.302C119.576 171.097 122.077 176.39 122.673 178.115C123.269 179.839 121.668 181.445 121.012 181.445Z" fill="#FDC2CC"/>
<path d="M112.019 191.496C110.291 195.242 105.527 191.436 104.812 191.317C104.097 191.198 102.072 190.009 101.834 188.819C101.596 187.63 98.6486 185.196 98.4985 185.075C98.6582 185.125 98.5224 185.118 98.3747 184.837C93.9672 183.231 95.8731 180.079 95.8731 180.079L97.9268 172.852L98.4938 170.861L104.926 170.445C104.926 170.445 104.486 171.851 103.995 173.328C103.478 174.877 102.906 176.506 102.723 176.69C102.365 177.046 102.901 179.366 103.199 179.842C103.497 180.317 105.343 182.994 105.343 182.994L108.976 185.313C108.976 185.313 113.746 187.749 112.019 191.496Z" fill="#FDC2CC"/>
<path opacity="0.1" d="M104.931 170.443C104.931 170.443 104.49 171.849 104 173.326C103.664 173.229 103.365 173.033 103.144 172.762L97.9625 172.881L97.9315 172.85L98.4986 170.859L104.931 170.443Z" fill="black"/>
<path d="M125.896 105.797C125.896 105.797 125.896 105.831 125.865 105.895C125.37 107.41 119.271 126.115 118.928 127.148C118.57 128.218 116.843 131.905 116.843 131.905C116.843 131.905 115.95 135.117 115.95 135.652C115.95 136.187 114.699 138.388 114.818 138.923C114.937 139.458 113.984 140.885 113.984 141.837C113.984 142.788 113.925 143.621 113.984 144.275C114.029 144.777 114.251 147.58 113.386 149.509C113.198 149.958 112.918 150.363 112.564 150.698C112.468 150.785 112.365 150.865 112.257 150.936C110.113 152.363 109.934 166.993 109.934 166.993L109.834 167.15L108.964 168.511L106.301 172.65C106.301 172.65 104.157 173.542 103.144 172.293L97.9625 172.412C97.9625 172.412 96.7117 171.164 96.4139 171.045C96.1161 170.926 96.5331 168.666 96.5331 168.666C96.5331 168.666 96.3544 167.774 96.4735 167.298C96.5926 166.822 97.2478 163.016 97.2478 163.016C97.2478 163.016 98.0221 162.362 97.9625 161.708C97.903 161.053 98.6177 156.652 98.6177 156.652L99.3515 153.629L99.7136 152.137L100.464 149.045L105.527 104.382L111.959 102.419L124.348 103.014L125.706 105.464L125.896 105.797Z" fill="#5F5D7E"/>
<path opacity="0.1" d="M108.445 127.742C108.386 128.872 108.088 130.597 108.207 131.608C108.326 132.619 108.743 136.425 108.564 137.139C108.386 137.852 109.219 138.685 109.517 139.042C109.815 139.399 109.636 140.469 109.696 141.302C109.755 142.134 110.53 142.907 110.53 142.907C110.53 142.907 109.636 144.811 110.291 145.108C110.947 145.405 112.317 148.141 112.317 148.141C112.317 148.141 112.776 148.719 113.386 149.504C113.153 150.077 112.761 150.572 112.257 150.931C110.113 152.359 109.934 166.989 109.934 166.989L109.834 167.146L108.505 164.491C108.505 164.491 100.583 152.537 100.047 152.359C99.9179 152.308 99.8033 152.226 99.7136 152.121L100.464 149.028L105.527 104.365L111.959 102.403L124.348 102.997L117.825 103.652C117.825 103.652 114.925 105.728 114.906 105.793L109.696 107.993L108.743 122.266C108.743 122.266 108.505 126.612 108.445 127.742Z" fill="black"/>
<path opacity="0.1" d="M125.706 105.452C125.541 106.114 108.386 104.132 108.386 104.132L108.505 108.711L107.552 122.985C107.552 122.985 107.313 127.326 107.254 128.456C107.194 129.586 106.897 131.311 107.016 132.322C107.135 133.333 107.552 137.139 107.373 137.852C107.194 138.566 108.028 139.399 108.326 139.755C108.624 140.112 108.445 141.183 108.505 142.015C108.564 142.848 109.339 143.621 109.339 143.621C109.339 143.621 108.445 145.524 109.1 145.822C109.755 146.119 111.125 148.855 111.125 148.855C111.125 148.855 111.78 149.68 112.555 150.693C112.459 150.78 112.356 150.86 112.247 150.931C110.103 152.359 109.925 166.989 109.925 166.989L109.825 167.146L108.964 168.511L107.313 165.216C107.313 165.216 101.203 155.994 99.3514 153.629L99.7136 152.137L100.464 149.045L105.527 104.382L111.959 102.419L124.348 103.014L125.706 105.452Z" fill="black"/>
<path opacity="0.1" d="M120.722 161.631C120.483 165.89 115.99 167.973 113.92 168.444C113.52 167.533 113.091 166.637 113.091 166.637C113.091 166.637 115.652 160.333 119.047 160.927C119.654 161.024 120.228 161.266 120.722 161.631Z" fill="black"/>
<path d="M107.73 127.742C107.671 128.872 107.373 130.597 107.492 131.608C107.611 132.619 108.028 136.425 107.85 137.139C107.671 137.852 108.505 138.685 108.802 139.042C109.1 139.399 108.922 140.469 108.981 141.302C109.041 142.134 109.815 142.907 109.815 142.907C109.815 142.907 108.922 144.811 109.577 145.108C110.232 145.405 111.602 148.141 111.602 148.141C111.602 148.141 115.473 153.018 115.652 153.612C115.831 154.207 117.379 154.564 117.379 154.564C117.379 154.564 120.059 154.861 120.476 160.57C120.893 166.28 113.865 168.48 112.793 168.302C111.721 168.123 109.517 167.945 109.517 167.945L107.79 164.496C107.79 164.496 99.8684 152.542 99.3324 152.363C98.7963 152.185 98.3199 151.055 98.2007 150.282C98.0816 149.509 97.5456 149.211 96.95 148.855C96.3544 148.498 96.4735 146.535 95.997 146.059C95.5205 145.584 95.5801 144.097 95.2823 143.681C94.9845 143.264 95.5205 142.194 95.5205 142.194C95.5205 142.194 94.2698 140.766 94.2698 140.588C94.2698 140.41 94.3293 138.982 94.3293 138.982C94.3293 138.982 93.7337 138.328 93.9124 137.674C94.0911 137.02 93.4359 135.474 93.4359 135.474C93.4359 135.474 92.8999 134.819 92.9594 134.344C93.019 133.868 92.6616 131.786 92.6616 131.786C92.6616 131.786 92.2447 130.775 92.3043 130.062C92.3638 129.348 91.8278 126.493 91.8278 126.493C91.8278 126.493 91.2917 125.661 91.2917 125.125C91.2917 124.59 91.3513 122.568 91.3513 122.568C91.3513 122.568 90.3983 120.844 90.8153 120.011C91.2322 119.178 90.6961 116.681 90.3388 116.205C89.9814 115.729 89.6836 111.566 89.3263 111.209C88.9689 110.852 89.3263 109.425 89.3263 109.425L88.7902 104.37C88.7902 104.37 88.4328 102.586 88.7306 102.051C89.0285 101.515 88.6115 100.207 88.4924 99.6123C88.3733 99.0175 88.7902 97.1739 88.6711 96.5197C88.6211 96.2438 88.7807 95.4873 88.9832 94.6999C89.2643 93.6152 89.6241 92.4757 89.6241 92.4757C89.6241 92.4757 120.238 89.6211 124.646 92.5946C125.598 93.2322 126.187 94.2004 126.551 95.3327C127.855 99.4814 125.906 105.8 125.906 105.8L108.991 108L108.038 122.273C108.038 122.273 107.79 126.612 107.73 127.742Z" fill="#5F5D7E"/>
<path opacity="0.1" d="M102.846 148.914C102.846 148.914 108.147 147.308 109.398 148.379C110.649 149.449 102.846 148.914 102.846 148.914Z" fill="black"/>
<path opacity="0.1" d="M104.752 155.694C104.752 155.694 106.361 153.969 108.743 154.504C110.141 154.83 111.607 154.683 112.912 154.088L104.752 155.694Z" fill="black"/>
<path opacity="0.1" d="M110.351 157.656C110.351 157.656 114.699 157.062 114.878 157.597C115.056 158.132 110.351 157.656 110.351 157.656Z" fill="black"/>
<path opacity="0.1" d="M109.1 161.165C109.1 161.165 113.925 159.738 114.163 160.333C114.401 160.927 108.862 161.106 108.862 161.106L109.1 161.165Z" fill="black"/>
<path opacity="0.1" d="M114.52 129.11C114.52 129.11 109.994 133.095 110.649 133.511C111.304 133.927 114.52 129.11 114.52 129.11Z" fill="black"/>
<path opacity="0.1" d="M110.828 138.982C110.828 138.982 113.984 138.982 113.389 139.696C112.793 140.41 110.828 138.982 110.828 138.982Z" fill="black"/>
<path opacity="0.1" d="M112.733 141.777C112.733 141.777 111.483 142.848 111.781 143.086C112.078 143.324 112.733 141.777 112.733 141.777Z" fill="black"/>
<path opacity="0.1" d="M98.975 167.291C98.975 167.291 102.906 168.599 102.966 169.432C103.025 170.264 98.975 167.291 98.975 167.291Z" fill="black"/>
<path d="M118.034 42.936L116.784 50.3699C116.784 50.3699 105.944 56.0792 105.765 56.0792C105.586 56.0792 97.8434 54.7708 97.5456 54.7708C97.2478 54.7708 92.1852 39.4867 95.7588 38.5351C96.7261 38.2782 98.1293 37.6597 99.6612 36.8913C103.792 34.8289 108.862 31.6959 108.862 31.6959C108.862 31.6959 116.426 30.8633 114.58 36.0968C113.865 38.1497 114.232 39.6437 114.954 40.7023C116.088 42.3437 118.034 42.936 118.034 42.936Z" fill="#FDC2CC"/>
<path opacity="0.1" d="M118.034 42.936L116.784 50.3699C116.784 50.3699 105.944 56.0791 105.765 56.0791C105.586 56.0791 97.8434 54.7708 97.5456 54.7708C97.2478 54.7708 92.1852 39.4866 95.7588 38.5351C96.7261 38.2782 98.1293 37.6597 99.6612 36.8913C100.636 36.9555 101.298 37.0483 101.298 37.0483C101.298 37.0483 103.68 46.1474 103.859 48.9426C104.038 51.7377 110.232 52.0351 110.649 51.9161C111.066 51.7972 112.793 44.958 112.793 44.958C112.793 44.958 112.614 42.5791 113.15 42.5791C113.598 42.5791 114.632 41.1518 114.954 40.7022C116.088 42.3436 118.034 42.936 118.034 42.936Z" fill="black"/>
<path opacity="0.1" d="M126.542 95.3327C125.713 95.7371 123.731 96.6601 123.207 96.5221C122.551 96.3437 120.943 96.3437 120.943 96.3437C120.943 96.3437 119.99 97.4142 118.978 97.1763C117.965 96.9384 113.975 97.1168 113.975 97.1168C113.975 97.1168 106.827 97.4142 105.458 96.9384C104.088 96.4627 99.2038 96.0464 99.2038 96.0464C99.2038 96.0464 92.533 95.2732 91.4013 94.7975C91.0823 94.6584 90.7317 94.6072 90.3861 94.649C90.0405 94.6908 89.7124 94.8242 89.4359 95.0353C89.4359 95.0353 89.2286 94.8998 88.9737 94.7023C89.2548 93.6176 89.6145 92.4781 89.6145 92.4781C89.6145 92.4781 120.229 89.6235 124.636 92.597C125.589 93.2322 126.187 94.2004 126.542 95.3327Z" fill="black"/>
<path d="M101.298 37.5241C101.298 37.5241 95.2823 36.6915 92.8999 38.2972C92.0533 38.8555 91.096 39.2247 90.0934 39.3796C88.7491 39.5876 87.5381 40.3082 86.7151 41.3897C86.5626 41.5943 86.4149 41.7323 86.2887 41.7465C85.7526 41.806 82.7746 51.0241 82.7746 51.0241L89.9814 61.0748C89.9814 61.0748 89.8027 66.6651 90.8153 67.7355C91.8278 68.806 89.3858 81.0571 89.3858 81.0571C89.3858 81.0571 88.1946 85.2796 88.7306 85.9338C89.2667 86.588 88.7306 87.4206 88.7306 87.4206C88.7306 87.4206 88.6115 88.4911 88.9093 88.4911C89.2071 88.4911 89.5645 89.8589 89.2667 89.9184C88.9689 89.9779 87.599 91.1078 88.0755 91.3457C88.552 91.5836 88.0755 92.1188 88.0755 92.6541C88.0755 93.1893 89.4454 94.0814 89.4454 94.0814C89.7219 93.8703 90.05 93.7369 90.3956 93.695C90.7413 93.6532 91.0918 93.7045 91.4109 93.8435C92.5425 94.3193 99.2133 95.0924 99.2133 95.0924C99.2133 95.0924 104.097 95.5087 105.467 95.9845C106.837 96.4602 113.984 96.1629 113.984 96.1629C113.984 96.1629 117.975 95.9845 118.987 96.2224C120 96.4602 120.953 95.3898 120.953 95.3898C120.953 95.3898 122.561 95.3898 123.216 95.5682C123.871 95.7466 126.909 94.2003 126.909 94.2003C126.909 94.2003 126.135 91.9404 126.492 91.1078C126.849 90.2752 126.611 88.6695 126.611 88.6695C126.611 88.6695 125.182 87.8369 125.122 87.4801C125.062 87.1232 124.467 86.6475 124.646 86.1717C124.824 85.6959 125.837 85.9338 125.718 84.8633C125.599 83.7928 124.348 82.6629 124.467 82.0087C124.586 81.3545 125.062 80.1651 124.467 79.4514C123.871 78.7378 123.633 77.6078 123.573 76.7157C123.514 75.8237 124.467 67.7355 124.467 67.7355L122.263 51.4404L128.993 48.11C128.993 48.11 128.696 45.7906 128.279 44.5417C127.862 43.2928 127.266 41.0924 127.266 41.0924C127.266 41.0924 125.896 38.4161 125.599 38.2972C125.301 38.1783 122.144 36.0968 121.429 36.3941C120.715 36.6915 115.056 41.0329 115.056 41.0329C115.056 41.0329 113.686 43.0549 113.15 43.0549C112.614 43.0549 112.793 45.4338 112.793 45.4338C112.793 45.4338 111.066 52.273 110.649 52.3919C110.232 52.5109 104.038 52.2135 103.859 49.4184C103.68 46.6232 101.298 37.5241 101.298 37.5241Z" fill="#D39999"/>
<path d="M91.9588 72.686C91.1326 72.8674 90.291 72.971 89.4454 72.9952C88.2232 73.0285 87.1487 72.8739 86.8843 72.4338C86.1696 71.2444 86.1696 68.9844 86.1696 68.9844C86.1696 68.9844 89.4001 69.729 91.63 70.5426L91.9993 70.6806C92.8641 71.016 93.5217 71.3585 93.667 71.6583C93.8743 72.0603 93.0762 72.4362 91.9588 72.686Z" fill="#FDC2CC"/>
<path opacity="0.1" d="M115.354 39.6056C121.374 39.6056 126.254 34.733 126.254 28.7224C126.254 22.7117 121.374 17.8391 115.354 17.8391C109.334 17.8391 104.455 22.7117 104.455 28.7224C104.455 34.733 109.334 39.6056 115.354 39.6056Z" fill="black"/>
<path d="M115.354 39.1298C121.374 39.1298 126.254 34.2572 126.254 28.2465C126.254 22.2359 121.374 17.3633 115.354 17.3633C109.334 17.3633 104.455 22.2359 104.455 28.2465C104.455 34.2572 109.334 39.1298 115.354 39.1298Z" fill="#FDC2CC"/>
<path opacity="0.1" d="M91.2322 87.0043C91.2322 87.0043 94.3293 87.0043 95.5205 87.3017C96.7118 87.599 99.2133 87.6585 99.2133 87.6585C99.2133 87.6585 92.3043 87.4206 91.2322 87.0043Z" fill="black"/>
<path opacity="0.1" d="M91.3513 88.9074C91.3513 88.9074 95.3419 89.2048 95.4014 89.7995C95.461 90.3942 91.3513 88.9074 91.3513 88.9074Z" fill="black"/>
<path opacity="0.1" d="M121.727 81.5924C121.727 81.5924 124.169 82.4845 124.11 82.7818C124.05 83.0792 121.965 82.3061 121.727 81.5924Z" fill="black"/>
<path d="M84.3232 49.9536L82.7746 51.0241C82.7746 51.0241 82.1194 54.8302 82.1194 55.7223C82.1194 56.6144 81.0474 63.0373 81.0474 63.0373C81.0474 63.0373 80.69 64.2267 80.8091 64.7025C80.9282 65.1783 80.3326 67.6166 80.3326 67.6166C80.3326 67.6166 78.1885 72.5527 78.3076 72.8501C78.4267 73.1474 88.4924 74.099 88.4924 74.099L89.9218 60.7774L84.3232 49.9536Z" fill="#D39999"/>
<path d="M79.7966 71.2444L78.3076 72.8501C78.3076 72.8501 78.248 78.0836 79.737 78.6189C81.226 79.1541 82.179 78.9162 82.6555 79.3325C83.132 79.7488 85.6931 80.522 85.6931 80.522C85.6931 80.522 88.4924 80.9383 89.3262 80.8193C90.1601 80.7004 84.4423 76.1211 88.1946 72.2554L79.7966 71.2444Z" fill="#D39999"/>
<path d="M126.909 45.7906L128.993 48.11C128.993 48.11 129.887 53.6408 129.649 54.414C129.41 55.1871 130.899 68.6276 130.899 68.6276C130.899 68.6276 132.329 74.4558 129.113 75.229C128.827 75.4796 128.568 75.7586 128.338 76.0616C128.219 76.2995 125.658 75.9426 125.658 75.9426L121.727 50.1915L126.909 45.7906Z" fill="#D39999"/>
<path opacity="0.1" d="M98.5581 67.0814C98.5581 67.0814 106.361 62.4426 107.79 62.2047C109.219 61.9668 118.094 57.7444 118.094 57.7444C118.094 57.7444 122.501 60.0043 122.918 61.729C123.335 63.4536 121.072 70.3523 121.072 70.3523C121.072 70.3523 113.806 75.4074 113.389 76.4779C112.972 77.5483 106.718 80.7003 106.718 81.2356C106.718 81.7708 96.8309 87.599 92.483 82.4845C88.1351 77.3699 88.1946 75.8832 88.1946 75.8832L99.2133 73.3259L100.285 68.5682L98.5581 67.0814Z" fill="black"/>
<path d="M98.5581 66.6056C98.5581 66.6056 106.361 61.9669 107.79 61.729C109.219 61.4911 118.094 57.2686 118.094 57.2686C118.094 57.2686 122.501 59.5285 122.918 61.2532C123.335 62.9779 121.072 69.8766 121.072 69.8766C121.072 69.8766 113.806 74.9316 113.389 76.0021C112.972 77.0726 106.718 80.2246 106.718 80.7598C106.718 81.2951 96.8309 87.1233 92.483 82.0087C88.1351 76.8942 88.1946 75.4074 88.1946 75.4074L99.2133 72.8501L100.285 68.0924L98.5581 66.6056Z" fill="#C4C8E2"/>
<path d="M86.5269 68.6872L86.1695 71.6607L83.3369 71.4538L80.5709 71.2492C80.5709 71.2492 78.9627 71.2492 77.9502 68.8703C76.9377 66.4915 80.2135 66.1346 80.3922 66.4915C80.528 66.7603 83.9658 67.8807 85.6335 68.4112L86.5269 68.6872Z" fill="#FDC2CC"/>
<path opacity="0.1" d="M86.5269 68.6871L86.1696 71.6607L83.3369 71.4537C83.799 70.7686 84.7663 69.515 85.6359 68.4112L86.5269 68.6871Z" fill="black"/>
<path opacity="0.1" d="M86.1696 68.9844C86.1696 68.9844 89.4001 69.729 91.63 70.5426C91.4823 70.7805 90.496 72.322 89.4454 72.9952C88.2232 73.0285 87.1487 72.8739 86.8843 72.4338C86.1696 71.2444 86.1696 68.9844 86.1696 68.9844Z" fill="black"/>
<path opacity="0.1" d="M91.9588 72.686L91.9064 72.2744C91.9064 72.2744 91.8826 72.1864 91.8611 72.0532C91.8183 71.782 91.7873 71.3252 91.9874 71.0469C92.1041 70.8828 92.0779 70.7662 92.0017 70.683C92.8665 71.0184 93.5241 71.3609 93.6694 71.6607C93.8743 72.0603 93.0762 72.4362 91.9588 72.686Z" fill="black"/>
<path d="M102.072 70.7401C102.072 70.7401 98.8368 73.9729 98.6367 74.6652C98.4366 75.3574 92.3233 75.3788 92.3233 75.3788L91.9064 72.0484C91.9064 72.0484 91.8826 71.9604 91.8611 71.8272C91.8183 71.556 91.7873 71.0993 91.9874 70.8209C92.2852 70.4046 91.6491 70.2857 91.6491 70.2857C91.6491 70.2857 90.0005 73 88.6115 73.0808C88.6115 73.0808 86.6865 74.4677 86.7056 74.746C86.7056 74.746 85.7717 75.5977 85.7526 76.6277C85.7336 77.6578 84.5424 78.0764 83.668 77.7791C82.7937 77.4817 80.6304 76.8466 79.9348 76.9465C79.2391 77.0464 77.0378 77.6982 77.1164 75.6572C77.1164 75.6572 79.9753 73.5162 80.69 73.5757C81.4047 73.6351 83.0724 72.8025 83.3107 72.1483C83.5489 71.4942 87.599 66.4986 87.599 66.4986C87.599 66.4986 90.1601 64.0793 91.1917 63.8414C91.1917 63.8414 93.2572 62.2356 96.3734 64.674C96.3734 64.674 100.683 67.3288 100.821 67.6856C100.931 67.9663 102.182 69.1653 102.287 70.0645C102.311 70.186 102.304 70.3116 102.266 70.4298C102.229 70.5479 102.162 70.6546 102.072 70.7401Z" fill="#FDC2CC"/>
<path opacity="0.1" d="M91.966 66.0109C91.966 66.0109 92.2828 67.8355 92.1256 68.4896C91.9684 69.1438 91.6491 70.2738 91.6491 70.2738C91.6491 70.2738 93.5741 67.2598 91.966 66.0109Z" fill="black"/>
<path opacity="0.1" d="M92.1042 70.4522C92.1042 70.4522 93.0976 69.3603 93.3168 69.6386C93.536 69.917 92.1042 70.4522 92.1042 70.4522Z" fill="black"/>
<path d="M132.777 59.3216C132.777 60.8349 132.283 62.3071 131.37 63.515C130.457 64.723 129.174 65.6008 127.717 66.0157C127.107 66.1906 126.476 66.2803 125.842 66.2821H125.806C124.891 66.2818 123.985 66.1015 123.139 65.7515C122.294 65.4015 121.526 64.8887 120.879 64.2424C120.232 63.5961 119.719 62.8288 119.369 61.9845C119.019 61.1402 118.839 60.2353 118.84 59.3216C118.838 58.9131 118.875 58.5053 118.949 58.1036C119.221 56.582 119.993 55.1944 121.143 54.1603C122.294 53.1262 123.757 52.5048 125.301 52.3943C125.468 52.38 125.637 52.3729 125.806 52.3729C127.653 52.3723 129.424 53.1038 130.731 54.4067C132.039 55.7096 132.774 57.4774 132.777 59.3216Z" fill="#F8BDC5"/>
<path d="M136.453 58.4676C136.793 58.8742 136.992 59.38 137.02 59.9092C136.324 59.9734 135.59 60.0566 135.038 60.492C134.561 60.8631 134.323 61.4435 134.085 61.9835C133.867 62.4926 133.651 63.0017 133.437 63.5107C133.098 64.3077 132.751 65.1212 132.162 65.7564C131.913 65.9854 131.69 66.2424 131.5 66.5224C131.335 66.8197 131.262 67.1956 130.995 67.3954C130.86 67.4774 130.708 67.5248 130.551 67.5335C130.394 67.5422 130.237 67.512 130.094 67.4454C129.801 67.336 129.539 67.1528 129.246 67.0362C129.058 66.9638 128.862 66.9128 128.662 66.884C127.79 66.7555 126.83 66.9434 126.089 66.4748C126.004 66.4179 125.924 66.3526 125.851 66.2797C125.562 65.9964 125.352 65.642 125.244 65.2521C125.189 65.094 125.17 64.926 125.186 64.7596C125.22 64.6075 125.288 64.4647 125.383 64.3414C125.479 64.2181 125.6 64.1172 125.739 64.046C125.78 64.0222 125.82 63.9984 125.863 63.977C126.578 63.6035 127.571 63.5155 127.945 62.7876C128.303 62.0977 127.859 61.258 127.316 60.7013C127.059 60.4396 126.754 60.1423 126.79 59.7759C126.823 59.4524 127.111 59.2264 127.352 59.0099C128.033 58.3951 128.492 57.5732 128.658 56.6715C128.721 56.393 128.716 56.1033 128.643 55.827C128.569 55.6289 128.467 55.4423 128.341 55.2728L127.569 54.1309C127.331 53.7278 127.005 53.3832 126.616 53.1223C126.294 52.9296 125.925 52.863 125.601 52.6727C125.478 52.6053 125.374 52.5069 125.301 52.3872C125.26 52.3203 125.246 52.2403 125.263 52.1636C125.303 51.9733 125.501 51.8805 125.699 51.8258C126.21 51.6775 126.745 51.6267 127.276 51.6759C127.444 51.7116 127.618 51.7116 127.786 51.6759C127.869 51.6537 127.941 51.6023 127.99 51.5311C128.038 51.4599 128.06 51.3737 128.05 51.2882C128.636 51.1359 129.191 51.5927 129.62 52.0209C130.049 52.4491 130.573 52.9177 131.178 52.7964C131.395 52.7536 131.595 52.6299 131.814 52.6061C132.033 52.5823 132.305 52.725 132.291 52.9462C132.276 53.1675 132 53.3102 132.024 53.5243C132.038 53.5984 132.072 53.6673 132.122 53.7241C132.397 54.1021 132.723 54.44 133.091 54.728C133.091 54.3069 133.091 53.8835 133.091 53.4624C133.568 53.5814 133.742 54.1904 133.687 54.6828C133.632 55.1752 133.449 55.6724 133.563 56.1529C133.577 56.2352 133.611 56.3131 133.66 56.3804C133.71 56.4477 133.774 56.5025 133.849 56.5407C133.971 56.5738 134.1 56.5738 134.223 56.5407C135.316 56.3861 136.593 56.6763 137.137 57.635L136.184 57.29L137.291 57.8943C137.443 57.9639 137.578 58.0654 137.687 58.1916C137.74 58.2558 137.771 58.3349 137.776 58.4178C137.781 58.5006 137.76 58.583 137.715 58.6531C137.532 58.5301 137.324 58.4495 137.105 58.4174C136.887 58.3853 136.664 58.4024 136.453 58.4676Z" fill="#585268"/>
<g opacity="0.1">
<path opacity="0.1" d="M134.354 56.486C134.476 56.5191 134.605 56.5191 134.728 56.486C134.835 56.4717 134.942 56.4622 135.052 56.4551C134.814 56.44 134.574 56.4471 134.337 56.4765L134.354 56.486Z" fill="black"/>
<path opacity="0.1" d="M136.679 57.2425L137.089 57.4684L137.013 57.3614L136.679 57.2425Z" fill="black"/>
<path opacity="0.1" d="M133.606 54.6733C133.606 54.3973 133.606 54.119 133.606 53.8407C133.565 53.7371 133.5 53.6442 133.418 53.5692C133.335 53.4942 133.237 53.4389 133.129 53.4077V54.2451C133.279 54.3976 133.438 54.5406 133.606 54.6733Z" fill="black"/>
<path opacity="0.1" d="M137.156 58.3843C137.366 58.4204 137.566 58.5016 137.742 58.6222C137.784 58.5669 137.805 58.4987 137.801 58.4295C137.592 58.3682 137.372 58.3528 137.156 58.3843Z" fill="black"/>
<path opacity="0.1" d="M130.621 67.4097C130.328 67.3002 130.066 67.1171 129.772 67.0005C129.584 66.9281 129.388 66.8771 129.189 66.8483C128.317 66.7198 127.357 66.9077 126.616 66.4391C126.53 66.3822 126.45 66.3169 126.378 66.244C126.088 65.9607 125.879 65.6063 125.77 65.2164C125.716 65.0583 125.696 64.8903 125.713 64.7239C125.747 64.5718 125.814 64.429 125.91 64.3057C126.005 64.1824 126.127 64.0815 126.266 64.0103C126.306 63.9865 126.347 63.9627 126.389 63.9413C127.116 63.5678 128.098 63.4798 128.472 62.7519C128.829 62.062 128.386 61.2223 127.843 60.6656C127.585 60.4039 127.28 60.1066 127.316 59.7402C127.35 59.4167 127.638 59.1907 127.878 58.9742C128.559 58.3593 129.018 57.5374 129.184 56.6358C129.247 56.3573 129.242 56.0676 129.17 55.7913C129.096 55.5932 128.994 55.4066 128.867 55.2371L128.095 54.0952C127.857 53.6921 127.531 53.3475 127.142 53.0866C126.821 52.8939 126.451 52.8273 126.127 52.637C126.004 52.5696 125.901 52.4712 125.827 52.3515C125.786 52.2846 125.773 52.2045 125.789 52.1279C125.83 51.9376 126.039 51.8448 126.225 51.7901C126.536 51.703 126.856 51.6504 127.178 51.6331C126.696 51.6047 126.213 51.6578 125.749 51.7901C125.563 51.8448 125.353 51.9376 125.313 52.1279C125.296 52.2045 125.31 52.2846 125.351 52.3515C125.424 52.4712 125.528 52.5696 125.651 52.637C125.975 52.8273 126.344 52.8939 126.666 53.0866C127.055 53.3475 127.381 53.6921 127.619 54.0952L128.391 55.2371C128.517 55.4066 128.619 55.5932 128.693 55.7913C128.766 56.0676 128.771 56.3573 128.708 56.6358C128.542 57.5374 128.083 58.3593 127.402 58.9742C127.164 59.1907 126.873 59.4167 126.84 59.7402C126.804 60.1066 127.109 60.4039 127.366 60.6656C127.909 61.2223 128.353 62.062 127.995 62.7519C127.621 63.4774 126.64 63.5654 125.913 63.9413C125.87 63.9627 125.83 63.9865 125.789 64.0103C125.65 64.0815 125.529 64.1824 125.433 64.3057C125.338 64.429 125.27 64.5718 125.236 64.7239C125.22 64.8903 125.239 65.0583 125.294 65.2164C125.402 65.6063 125.612 65.9607 125.901 66.244C125.974 66.3169 126.054 66.3822 126.139 66.4391C126.88 66.9149 127.84 66.7198 128.712 66.8483C128.912 66.8771 129.108 66.9281 129.296 67.0005C129.589 67.1171 129.851 67.3002 130.144 67.4097C130.357 67.4969 130.591 67.5168 130.816 67.4668C130.75 67.4525 130.684 67.4334 130.621 67.4097Z" fill="black"/>
<path opacity="0.1" d="M131.693 52.7416C131.839 52.7042 131.983 52.6573 132.124 52.6013C132.04 52.5601 131.946 52.5428 131.852 52.5513C131.65 52.5992 131.451 52.6596 131.257 52.7321C131.4 52.7675 131.548 52.7708 131.693 52.7416Z" fill="black"/>
<path opacity="0.1" d="M127.79 51.6331C127.959 51.6649 128.133 51.6609 128.3 51.6212C128.383 51.599 128.455 51.548 128.504 51.4773C128.552 51.4066 128.574 51.321 128.565 51.2358C128.408 51.1955 128.244 51.1955 128.088 51.2358C128.098 51.3214 128.077 51.4076 128.028 51.4788C127.98 51.5499 127.907 51.6013 127.824 51.6236C127.807 51.6287 127.791 51.6326 127.774 51.6355L127.79 51.6331Z" fill="black"/>
</g>
<path d="M119.523 55.5154C118.635 56.1791 117.217 56.4669 115.914 56.5621C114.895 56.6426 113.871 56.6426 112.853 56.5621L110.558 55.7009C110.558 55.7009 110.744 55.3322 111.059 54.8445C111.685 53.874 112.824 52.43 114.013 52.4895C115.8 52.5775 117.677 52.6655 117.856 52.6655C118.034 52.6655 121.517 54.0286 119.523 55.5154Z" fill="#FDC2CC"/>
<path d="M113.72 7.89784C112.024 7.86692 110.272 7.84789 108.717 8.49969C105.589 9.79141 104.114 13.2431 102.222 16.0264C100.653 18.3329 98.6509 20.3131 96.3258 21.857C95.2299 22.5706 93.9577 23.3557 93.6932 24.6402C93.4121 25.9986 94.3841 27.257 94.8844 28.5439C95.9446 31.282 94.8844 34.315 94.2579 37.1839C93.9647 38.5618 93.776 39.9598 93.6932 41.366C93.6251 42.0171 93.6678 42.675 93.8195 43.3119C94.296 44.9913 96.0971 46.2046 96.1114 47.9506C96.1114 49.1401 95.2728 50.2629 95.5182 51.419C95.835 52.8963 97.6314 53.4292 99.1204 53.6837C99.4769 53.7815 99.8546 53.7699 100.204 53.6504C100.443 53.5362 100.638 53.3173 100.881 53.196C101.708 52.7869 102.625 53.6504 103.549 53.6337C104.71 53.6123 105.362 52.2445 105.391 51.086C105.419 49.9275 105.11 48.7071 105.527 47.6366C106.082 46.2093 107.671 45.5313 109.012 44.782C110.496 43.9518 111.909 42.7528 112.348 41.1138C112.622 40.1004 112.498 39.0276 112.388 37.9856C112.221 36.387 112.09 34.7813 112 33.178C111.761 29.0863 115.166 25.6774 119.257 25.9962H119.333C120.524 26.0937 121.93 26.2079 122.771 25.342C123.104 24.9971 123.316 24.5213 123.724 24.2834C124.519 23.8314 125.613 24.4761 126.413 24.0312C127.04 23.6816 127.173 22.8418 127.076 22.1282C126.978 21.4145 126.728 20.7008 126.861 20.0015C127.052 19.0095 127.955 18.3006 128.291 17.3467C128.677 16.2595 128.26 15.0439 127.659 14.0591C125.737 10.8928 121.822 8.41405 118.153 8.08101C116.679 7.93828 115.199 7.92163 113.72 7.89784Z" fill="#865A61"/>
<path opacity="0.1" d="M111.059 54.8374C112.474 55.1276 114.196 55.7723 115.914 56.5597C114.895 56.6403 113.871 56.6403 112.853 56.5597L110.558 55.6985C110.558 55.6985 110.744 55.3251 111.059 54.8374Z" fill="black"/>
<path opacity="0.1" d="M128.665 66.884C127.793 66.7555 126.833 66.9434 126.092 66.4748C126.006 66.4179 125.926 66.3526 125.853 66.2797H125.818C124.902 66.281 123.995 66.1019 123.148 65.7528C122.301 65.4037 121.532 64.8914 120.884 64.2451C120.236 63.5989 119.722 62.8314 119.371 61.9865C119.02 61.1417 118.84 60.2361 118.84 59.3216C118.838 58.9131 118.875 58.5054 118.949 58.1036C121.391 59.4667 123.371 60.8678 123.752 61.5529C124.316 62.4546 124.979 63.2901 125.73 64.0436C126.394 64.7573 127.107 65.4424 127.717 66.0157C128.079 66.3511 128.405 66.6485 128.665 66.884Z" fill="black"/>
<path d="M129.053 67.6761C129.053 67.6761 124.705 63.9294 123.514 61.7884C122.323 59.6474 105.586 50.5483 107.73 57.447C109.875 64.3457 117.26 64.9999 117.26 64.9999C117.26 64.9999 119.642 67.6761 119.881 68.9845C120.119 70.2928 120.953 72.1959 120.953 72.1959L124.943 73.9801L126.79 73.5638C126.79 73.5638 131.138 71.1849 129.053 67.6761Z" fill="#FDC2CC"/>
<path opacity="0.1" d="M120.715 71.958C120.715 71.958 127.743 75.9426 128.457 66.6056L130.244 67.2003L128.457 73.5043L125.42 75.7047C125.42 75.7047 121.191 73.7422 120.715 71.958Z" fill="black"/>
<path d="M120.953 72.1959C120.953 72.1959 127.981 76.1805 128.696 66.8435L130.482 67.4382L128.696 73.7422L125.658 75.9426C125.658 75.9426 121.429 73.9801 120.953 72.1959Z" fill="#D39999"/>
<path d="M127.159 24.8805C127.24 24.0455 127.581 23.2581 127.759 22.4374C127.935 21.6434 127.96 20.8234 127.831 20.0205C127.759 19.4405 127.542 18.8877 127.202 18.4124C126.964 18.115 126.249 17.4608 125.832 17.7558C125.594 17.9247 125.529 18.9024 125.434 19.1831C125.1 20.1259 124.652 21.0246 124.1 21.8593C125.278 23.4827 125.984 25.3995 126.14 27.3982C126.296 29.3969 125.896 31.3999 124.985 33.186C124.073 34.9721 122.684 36.4719 120.973 37.5199C119.261 38.5679 117.293 39.1234 115.285 39.1251C115.025 39.1251 114.768 39.1132 114.513 39.0941C114.275 39.5081 114.058 39.9267 113.839 40.3454C113.58 40.7706 113.405 41.2414 113.324 41.7323C113.304 42.2016 113.376 42.6703 113.536 43.112C113.98 44.5653 114.592 45.9617 115.361 47.2726C115.629 47.6796 115.849 48.1163 116.016 48.5739C116.152 49.014 116.176 49.485 116.352 49.9084C116.748 50.86 117.782 51.3357 118.735 51.733C119.304 51.9709 119.9 52.2088 120.514 52.1588C120.572 52.1631 120.63 52.1554 120.684 52.1361C120.739 52.1168 120.789 52.0863 120.83 52.0467C120.872 52.007 120.906 51.9591 120.928 51.9059C120.95 51.8527 120.961 51.7954 120.96 51.7378C120.993 51.4884 120.967 51.2349 120.884 50.9973C120.802 50.7598 120.664 50.5449 120.483 50.3699C121.292 50.6229 122.14 50.7237 122.985 50.6673C123.061 50.683 123.139 50.6768 123.211 50.6491C123.284 50.6215 123.346 50.5738 123.392 50.5116C123.438 50.4494 123.464 50.3754 123.469 50.2984C123.474 50.2214 123.456 50.1446 123.419 50.0773C123.199 49.18 122.865 48.3149 122.423 47.5034C121.989 46.7041 121.436 45.774 121.832 44.958C122.058 44.4822 122.535 44.2158 122.968 43.9327C124.434 42.9812 125.732 41.4302 125.618 39.6865C125.556 38.7349 125.074 37.8286 125.046 36.8699C124.972 34.5315 127.493 32.8592 127.874 30.5493C128.176 28.6605 126.976 26.7907 127.159 24.8805Z" fill="#865A61"/>
<g opacity="0.1">
<path opacity="0.1" d="M95.9827 46.9991C95.9684 45.253 94.1697 44.0398 93.6908 42.3603C93.6171 42.0955 93.5716 41.8235 93.555 41.5491C93.5019 42.1402 93.5478 42.7359 93.6908 43.3119C94.1292 44.8462 95.6635 45.9928 95.9375 47.5129C95.9681 47.3434 95.9832 47.1714 95.9827 46.9991Z" fill="black"/>
<path opacity="0.1" d="M103.421 52.6822C102.496 52.6988 101.579 51.8353 100.752 52.2445C100.514 52.3658 100.323 52.5846 100.076 52.6988C99.7259 52.8183 99.3482 52.8299 98.9917 52.7321C97.5075 52.4776 95.7159 51.9471 95.3943 50.4817C95.3335 50.7912 95.3335 51.1095 95.3943 51.419C95.7111 52.8963 97.5075 53.4291 98.9965 53.6837C99.353 53.7815 99.7307 53.7699 100.08 53.6504C100.319 53.5362 100.514 53.3173 100.757 53.196C101.584 52.7868 102.501 53.6504 103.425 53.6337C104.586 53.6123 105.238 52.2445 105.267 51.086C105.267 50.8481 105.267 50.6102 105.25 50.3723C105.129 51.4713 104.5 52.6608 103.421 52.6822Z" fill="black"/>
<path opacity="0.1" d="M112.224 40.1599C111.781 41.7989 110.368 42.9979 108.888 43.8281C107.547 44.5798 105.958 45.2554 105.403 46.6827C105.198 47.2992 105.129 47.9521 105.198 48.5977C105.219 48.2683 105.288 47.9437 105.403 47.6343C105.958 46.207 107.547 45.529 108.888 44.7797C110.373 43.9494 111.785 42.7505 112.224 41.1115C112.375 40.4891 112.425 39.8467 112.374 39.2084C112.355 39.5297 112.305 39.8484 112.224 40.1599Z" fill="black"/>
<path opacity="0.1" d="M125.267 23.2343C124.693 23.1915 124.095 23.0583 123.6 23.3342C123.183 23.5721 122.971 24.0479 122.647 24.3928C121.806 25.2587 120.412 25.1445 119.209 25.047H119.133C115.042 24.7282 111.642 28.1395 111.876 32.2288C111.876 32.2597 111.876 32.293 111.876 32.3239C111.933 31.4319 112.166 30.56 112.562 29.7584C112.958 28.9568 113.509 28.2413 114.183 27.6533C114.857 27.0653 115.641 26.6164 116.49 26.3324C117.338 26.0484 118.235 25.9349 119.128 25.9986H119.204C120.395 26.0961 121.801 26.2103 122.642 25.3444C122.975 24.9994 123.188 24.5237 123.595 24.2858C124.071 24.0098 124.679 24.1431 125.263 24.1859C125.721 25.323 125.983 26.5296 126.037 27.7542C126.037 27.5995 126.049 27.4449 126.049 27.2784C126.049 25.893 125.784 24.5203 125.267 23.2343Z" fill="black"/>
<path opacity="0.1" d="M95.2013 30.6421C95.2727 29.6078 95.1241 28.57 94.7653 27.5971C94.3889 26.6242 93.7432 25.6703 93.5741 24.6783C93.3144 26.0223 94.2745 27.2665 94.7653 28.5487C95.0199 29.2193 95.167 29.9257 95.2013 30.6421Z" fill="black"/>
<path opacity="0.1" d="M127.774 20.5748C127.752 20.8814 127.707 21.1859 127.64 21.4859C127.462 22.3066 127.121 23.094 127.04 23.929C127.011 24.2264 127.011 24.5259 127.04 24.8234C127.13 24.0098 127.457 23.2391 127.633 22.4445C127.771 21.8315 127.818 21.2015 127.774 20.5748Z" fill="black"/>
<path opacity="0.1" d="M127.745 29.6025C127.364 31.9124 124.843 33.5847 124.917 35.9231C124.921 36.0497 124.932 36.176 124.951 36.3014C125.251 34.2532 127.397 32.6712 127.745 30.554C127.804 30.1706 127.812 29.7811 127.769 29.3955C127.762 29.4645 127.762 29.5335 127.745 29.6025Z" fill="black"/>
<path opacity="0.1" d="M128.179 16.3903C127.954 16.9001 127.666 17.3796 127.321 17.8177C127.42 18.0092 127.5 18.21 127.559 18.4171C127.811 18.0833 128.016 17.7178 128.172 17.33C128.321 16.886 128.358 16.4122 128.281 15.9503C128.26 16.0997 128.226 16.247 128.179 16.3903Z" fill="black"/>
<path opacity="0.1" d="M125.46 39.4319C125.248 40.8878 124.107 42.1557 122.84 42.9859C122.406 43.269 121.93 43.545 121.703 44.0112C121.547 44.3621 121.524 44.758 121.639 45.1245C121.656 45.0689 121.677 45.0148 121.703 44.9628C121.93 44.487 122.406 44.2206 122.84 43.9375C124.305 42.9859 125.603 41.4349 125.489 39.6912C125.484 39.6032 125.472 39.5176 125.46 39.4319Z" fill="black"/>
<path opacity="0.1" d="M120.696 51.1073C120.607 51.1747 120.499 51.2115 120.388 51.212C119.774 51.2643 119.178 51.0241 118.609 50.7862C117.656 50.3913 116.617 49.9108 116.226 48.9616C116.05 48.5382 116.026 48.0672 115.89 47.6271C115.723 47.1695 115.503 46.7328 115.235 46.3258C114.466 45.0148 113.854 43.6185 113.41 42.1652C113.341 41.9456 113.284 41.7225 113.239 41.4968C113.222 41.5753 113.208 41.6561 113.198 41.7347C113.178 42.204 113.25 42.6726 113.41 43.1144C113.854 44.5676 114.466 45.964 115.235 47.275C115.503 47.682 115.723 48.1186 115.89 48.5762C116.026 49.0163 116.05 49.4873 116.226 49.9108C116.622 50.8623 117.656 51.3381 118.609 51.7354C119.178 51.9732 119.774 52.2111 120.388 52.1612C120.446 52.1655 120.504 52.1578 120.558 52.1384C120.612 52.1191 120.662 52.0887 120.704 52.049C120.746 52.0094 120.779 51.9614 120.802 51.9082C120.824 51.855 120.835 51.7978 120.834 51.7401C120.865 51.4999 120.841 51.2557 120.762 51.0265C120.745 51.0573 120.723 51.0847 120.696 51.1073Z" fill="black"/>
<path opacity="0.1" d="M123.168 49.6468C123.071 49.6932 122.964 49.7184 122.856 49.7205C122.011 49.777 121.163 49.6761 120.355 49.4232C120.65 49.7084 120.825 50.0957 120.843 50.5055C121.502 50.6606 122.181 50.7168 122.856 50.6721C122.932 50.6878 123.011 50.6815 123.083 50.6539C123.155 50.6263 123.218 50.5786 123.263 50.5164C123.309 50.4542 123.336 50.3802 123.341 50.3032C123.345 50.2262 123.328 50.1494 123.29 50.0821C123.254 49.9346 123.211 49.7895 123.168 49.6468Z" fill="black"/>
</g>
<path opacity="0.1" d="M89.9218 54.8897C89.9218 54.8897 89.6836 59.7664 90.3983 60.1232C91.113 60.48 89.9218 54.8897 89.9218 54.8897Z" fill="black"/>
<path opacity="0.1" d="M103.442 67.7356C103.68 67.7356 104.633 68.2113 104.752 68.7466C104.872 69.2819 103.442 67.7356 103.442 67.7356Z" fill="black"/>
<path opacity="0.1" d="M102.846 68.5087C103.085 68.5087 104.038 68.9845 104.157 69.5197C104.276 70.055 102.846 68.5087 102.846 68.5087Z" fill="black"/>
<path opacity="0.1" d="M105.05 70.6497C105.288 70.6497 106.241 71.1255 106.361 71.6607C106.48 72.196 105.05 70.6497 105.05 70.6497Z" fill="black"/>
<path opacity="0.1" d="M102.072 70.7401C102.072 70.7401 98.8368 73.973 98.6367 74.6652C98.4366 75.3575 92.3233 75.3789 92.3233 75.3789L91.9064 72.0485C91.9064 72.0485 91.8826 71.9604 91.8611 71.8272C93.5503 71.3943 99.0274 69.3746 102.287 70.0907C102.306 70.2082 102.297 70.3287 102.26 70.4418C102.222 70.5549 102.158 70.6573 102.072 70.7401Z" fill="black"/>
<path d="M87.3393 74.8317C87.3393 74.8317 90.4579 72.077 91.4109 72.1364C92.3638 72.1959 103.978 67.2598 104.752 72.7906C105.527 78.3215 89.9219 78.6188 89.9219 78.6188L87.5394 79.5109C87.5394 79.5109 85.5525 75.1885 87.3393 74.8317Z" fill="#FDC2CC"/>
<path d="M86.4268 75.229C86.4268 75.229 87.8563 73.2474 88.2923 75.6643C88.7283 78.0812 89.3858 81.0571 89.3858 81.0571L86.1886 79.4705L86.4268 75.229Z" fill="#D39999"/>
<path opacity="0.1" d="M218.796 159.707C224.69 159.707 229.467 158.975 229.467 158.073C229.467 157.17 224.69 156.438 218.796 156.438C212.903 156.438 208.125 157.17 208.125 158.073C208.125 158.975 212.903 159.707 218.796 159.707Z" fill="#493657"/>
<path opacity="0.1" d="M188.675 190.135C197.886 190.135 205.352 188.991 205.352 187.58C205.352 186.169 197.886 185.025 188.675 185.025C179.465 185.025 171.998 186.169 171.998 187.58C171.998 188.991 179.465 190.135 188.675 190.135Z" fill="#493657"/>
<path opacity="0.1" d="M233.941 200C246.124 200 256 198.487 256 196.62C256 194.753 246.124 193.239 233.941 193.239C221.759 193.239 211.882 194.753 211.882 196.62C211.882 198.487 221.759 200 233.941 200Z" fill="#493657"/>
<path opacity="0.1" d="M16.6769 163.97C25.8873 163.97 33.3538 162.826 33.3538 161.415C33.3538 160.004 25.8873 158.86 16.6769 158.86C7.4665 158.86 0 160.004 0 161.415C0 162.826 7.4665 163.97 16.6769 163.97Z" fill="#493657"/>
<path d="M210.381 142.394C210.381 142.394 208.873 149.411 215.587 150.244L216.004 149.464C216.004 149.464 210.798 144.577 210.381 142.394Z" fill="#493657"/>
<path d="M218.139 149.409L216.578 149.74L216.421 149.775C216.421 149.775 212.256 146.397 212.309 138.859C212.867 139.97 213.533 141.023 214.298 142.003C215.949 144.183 217.817 147.101 218.139 149.409Z" fill="#493657"/>
<path d="M218.668 150.132C218.545 150.212 218.405 150.264 218.26 150.283C218.114 150.302 217.966 150.288 217.827 150.241C213.817 149.307 215.173 136.261 215.173 136.261C215.394 136.366 215.649 138.024 216.559 140.167C218.177 143.93 219.961 149.188 218.668 150.132Z" fill="#493657"/>
<path d="M227.559 142.394C227.559 142.394 227.821 149.411 221.105 150.244L220.688 149.464C220.688 149.464 227.144 144.577 227.559 142.394Z" fill="#493657"/>
<path d="M225.634 138.859C225.684 146.397 220.273 149.775 220.273 149.775L220.116 149.74L218.556 149.409C218.863 147.094 220.745 144.175 222.394 142.003C223.328 140.815 224.418 139.757 225.634 138.859Z" fill="#493657"/>
<path d="M220.092 149.449C219.851 149.742 219.545 149.976 219.199 150.132C219.094 150.18 218.985 150.217 218.872 150.241C217.884 150.479 217.541 149.766 217.598 148.555C217.691 146.414 219.044 142.679 220.259 139.891C221.133 137.883 222.563 136.361 222.775 136.261C222.77 136.261 222.711 146.419 220.092 149.449Z" fill="#493657"/>
<path d="M218.97 131.686C218.97 131.686 214.494 147.539 218.346 149.93C222.198 152.321 219.961 133.09 218.97 131.686Z" fill="#493657"/>
<path opacity="0.1" d="M210.381 142.394C210.381 142.394 208.873 149.411 215.587 150.244L216.004 149.464C216.004 149.464 210.798 144.577 210.381 142.394Z" fill="black"/>
<path opacity="0.1" d="M218.139 149.409L216.578 149.74L216.421 149.775C216.421 149.775 212.256 146.397 212.309 138.859C212.867 139.97 213.533 141.023 214.298 142.003C215.949 144.183 217.817 147.101 218.139 149.409Z" fill="black"/>
<path opacity="0.1" d="M218.668 150.132C218.545 150.212 218.405 150.264 218.26 150.283C218.114 150.302 217.966 150.288 217.827 150.241C213.817 149.307 215.173 136.261 215.173 136.261C215.394 136.366 215.649 138.024 216.559 140.167C218.177 143.93 219.961 149.188 218.668 150.132Z" fill="black"/>
<path opacity="0.1" d="M227.559 142.394C227.559 142.394 227.821 149.411 221.105 150.244L220.688 149.464C220.688 149.464 227.144 144.577 227.559 142.394Z" fill="black"/>
<path opacity="0.1" d="M225.634 138.859C225.684 146.397 220.273 149.775 220.273 149.775L220.116 149.74L218.556 149.409C218.863 147.094 220.745 144.175 222.394 142.003C223.328 140.815 224.418 139.757 225.634 138.859Z" fill="black"/>
<path opacity="0.1" d="M220.092 149.449C219.851 149.742 219.545 149.976 219.199 150.132C219.094 150.18 218.985 150.217 218.872 150.241C217.884 150.479 217.541 149.766 217.598 148.555C217.691 146.414 219.044 142.679 220.259 139.891C221.133 137.883 222.563 136.361 222.775 136.261C222.77 136.261 222.711 146.419 220.092 149.449Z" fill="black"/>
<path opacity="0.1" d="M218.97 131.686C218.97 131.686 214.494 147.539 218.346 149.93C222.198 152.321 219.961 133.09 218.97 131.686Z" fill="black"/>
<path d="M210.382 142.394C210.382 142.394 209.498 149.411 216.211 150.244L216.628 149.464C216.628 149.464 210.798 144.577 210.382 142.394Z" fill="#493657"/>
<path d="M218.77 149.409L217.21 149.74L217.052 149.775C217.052 149.775 212.264 146.397 212.316 138.859C212.316 138.859 213.543 140.172 214.937 142.003C216.576 144.183 218.451 147.101 218.77 149.409Z" fill="#493657"/>
<path opacity="0.1" d="M218.77 149.409L217.21 149.74C215.73 148.443 215.142 145.056 214.93 142.003C216.576 144.182 218.451 147.101 218.77 149.409Z" fill="black"/>
<path d="M219.292 150.132C219.169 150.212 219.029 150.264 218.884 150.283C218.738 150.302 218.59 150.288 218.451 150.241C214.441 149.307 215.173 136.261 215.173 136.261C215.394 136.366 216.261 138.024 217.183 140.167C218.801 143.93 220.578 149.188 219.292 150.132Z" fill="#493657"/>
<path d="M227.559 142.394C227.559 142.394 228.445 149.411 221.729 150.244L221.314 149.464C221.314 149.464 227.144 144.577 227.559 142.394Z" fill="#493657"/>
<path d="M225.634 138.859C225.684 146.397 220.897 149.775 220.897 149.775L220.74 149.74L219.18 149.409C219.489 147.094 221.369 144.175 223.018 142.003C224.407 140.172 225.634 138.859 225.634 138.859Z" fill="#493657"/>
<path opacity="0.1" d="M223.018 142.003C222.818 144.858 222.303 147.984 221.029 149.449C220.941 149.554 220.845 149.651 220.74 149.74L219.18 149.409C219.485 147.101 221.369 144.182 223.018 142.003Z" fill="black"/>
<path d="M220.716 149.449C220.476 149.743 220.17 149.977 219.823 150.132C219.718 150.18 219.607 150.216 219.494 150.241C218.508 150.479 218.162 149.766 218.22 148.555C218.313 146.414 219.666 142.679 220.881 139.891C221.755 137.883 222.548 136.361 222.772 136.261C222.77 136.261 223.337 146.419 220.716 149.449Z" fill="#493657"/>
<path opacity="0.1" d="M219.292 150.132C219.065 150.132 218.843 150.061 218.658 149.93C216.771 148.757 216.733 144.354 217.183 140.177C218.801 143.93 220.578 149.188 219.292 150.132Z" fill="black"/>
<path opacity="0.1" d="M220.716 149.449C220.5 149.925 220.207 150.163 219.823 150.132C219.63 150.107 219.446 150.038 219.285 149.93C218.795 149.593 218.423 149.113 218.22 148.555C218.313 146.414 219.666 142.679 220.881 139.891C221.312 143.771 221.455 147.863 220.716 149.449Z" fill="black"/>
<path d="M218.97 131.686C218.97 131.686 215.12 147.539 218.97 149.93C222.82 152.321 219.961 133.09 218.97 131.686Z" fill="#493657"/>
<path d="M226.363 149.152H210.331V151.802H212.776L212.838 152.114L213.817 157.259H223.137L224.116 152.114L224.176 151.802H226.363V149.152Z" fill="#4B4770"/>
<path opacity="0.1" d="M226.363 149.152H210.331V151.802H212.776L212.838 152.114L213.817 157.259H223.137L224.116 152.114L224.176 151.802H226.363V149.152Z" fill="black"/>
<path d="M225.01 150.71L224.743 152.114L223.761 157.259H214.441L213.462 152.114L213.193 150.71H225.01Z" fill="#4B4770"/>
<path opacity="0.1" d="M225.01 150.71L224.743 152.114H213.462L213.193 150.71H225.01Z" fill="black"/>
<path d="M226.987 149.152H210.956V151.802H226.987V149.152Z" fill="#4B4770"/>
<path d="M26.004 133.492C25.7755 133.805 25.5926 134.148 25.4609 134.512C25.4275 134.6 25.3941 134.703 25.3608 134.8C25.3007 134.772 25.2376 134.75 25.1726 134.736C24.895 134.665 24.6077 134.641 24.3221 134.662C24.3221 134.553 24.3364 134.424 24.3387 134.313C24.3745 133.059 24.2268 131.313 23.0284 132.053C21.8801 132.766 22.6996 133.956 23.4406 134.717C23.5049 134.784 23.5692 134.845 23.6312 134.905C22.9546 135.381 22.8259 136.506 22.7139 137.674C22.602 138.842 21.6085 140.119 20.9486 140.847C20.8819 140.921 20.8223 140.988 20.7627 141.05C20.4978 140.838 20.191 140.685 19.8625 140.6C19.534 140.515 19.1913 140.5 18.8568 140.557C18.8306 140.455 18.802 140.348 18.7687 140.234C18.2231 138.3 17.1176 134.969 15.7025 134.256C15.762 134.182 15.824 134.106 15.8883 134.018C16.4887 133.233 17.1653 132.067 16.1671 131.77C15.1688 131.472 15.0783 132.781 15.1331 133.761C15.1331 133.882 15.1521 133.999 15.1617 134.108C14.9629 134.117 14.7681 134.166 14.5891 134.253C14.41 134.34 14.2506 134.462 14.1206 134.612L13.9657 134.429C13.1557 133.478 11.6714 131.965 11.2212 133.109C10.8042 134.172 12.1098 135.557 13.0294 136.358L13.0866 136.408C12.4695 138.911 15.1641 140.95 16.615 141.839L16.8032 141.956C14.8019 144.309 13.5655 148.724 13.5655 148.724L19.1713 149.723C19.1713 149.723 22.8855 146.521 22.409 143.516H22.4471C26.1613 142.772 27.0047 138.818 26.4281 136.473L26.4924 136.444C27.1686 136.168 27.7613 135.721 28.2125 135.148C29.2489 133.704 27.0714 132.077 26.004 133.492Z" fill="#493657"/>
<path opacity="0.1" d="M26.004 133.492C25.7755 133.805 25.5926 134.148 25.4609 134.512C25.4275 134.6 25.3941 134.703 25.3608 134.8C25.3007 134.772 25.2376 134.75 25.1726 134.736C24.895 134.665 24.6077 134.641 24.3221 134.662C24.3221 134.553 24.3364 134.424 24.3387 134.313C24.3745 133.059 24.2268 131.313 23.0284 132.053C21.8801 132.766 22.6996 133.956 23.4406 134.717C23.5049 134.784 23.5692 134.845 23.6312 134.905C22.9546 135.381 22.8259 136.506 22.7139 137.674C22.602 138.842 21.6085 140.119 20.9486 140.847C20.8819 140.921 20.8223 140.988 20.7627 141.05C20.4978 140.838 20.191 140.685 19.8625 140.6C19.534 140.515 19.1913 140.5 18.8568 140.557C18.8306 140.455 18.802 140.348 18.7687 140.234C18.2231 138.3 17.1176 134.969 15.7025 134.256C15.762 134.182 15.824 134.106 15.8883 134.018C16.4887 133.233 17.1653 132.067 16.1671 131.77C15.1688 131.472 15.0783 132.781 15.1331 133.761C15.1331 133.882 15.1521 133.999 15.1617 134.108C14.9629 134.117 14.7681 134.166 14.5891 134.253C14.41 134.34 14.2506 134.462 14.1206 134.612L13.9657 134.429C13.1557 133.478 11.6714 131.965 11.2212 133.109C10.8042 134.172 12.1098 135.557 13.0294 136.358L13.0866 136.408C12.4695 138.911 15.1641 140.95 16.615 141.839L16.8032 141.956C14.8019 144.309 13.5655 148.724 13.5655 148.724L19.1713 149.723C19.1713 149.723 22.8855 146.521 22.409 143.516H22.4471C26.1613 142.772 27.0047 138.818 26.4281 136.473L26.4924 136.444C27.1686 136.168 27.7613 135.721 28.2125 135.148C29.2489 133.704 27.0714 132.077 26.004 133.492Z" fill="black"/>
<path d="M14.8496 135.105L14.1944 137.008C14.1944 137.008 13.8299 136.751 13.3701 136.347C12.4505 135.545 11.1449 134.16 11.5619 133.097C12.0121 131.953 13.4964 133.463 14.3064 134.417C14.6328 134.81 14.8496 135.105 14.8496 135.105Z" fill="#493657"/>
<path d="M16.2314 134.018C16.032 134.279 15.8189 134.529 15.5929 134.767C15.5371 134.434 15.4981 134.098 15.4762 133.761C15.4214 132.781 15.5262 131.479 16.5101 131.77C17.4941 132.06 16.8318 133.228 16.2314 134.018Z" fill="#493657"/>
<path d="M24.6818 134.313C24.6628 134.943 24.6008 135.447 24.6008 135.447C24.312 135.223 24.0389 134.979 23.7837 134.717C23.0427 133.951 22.2232 132.766 23.3715 132.053C24.5699 131.313 24.7176 133.066 24.6818 134.313Z" fill="#493657"/>
<path d="M28.5532 135.14C28.102 135.714 27.5093 136.161 26.8331 136.437C26.6458 136.519 26.4532 136.589 26.2566 136.646L25.4847 135.564C25.5664 135.206 25.6731 134.855 25.8039 134.512C25.9357 134.148 26.1186 133.805 26.3471 133.492C27.4144 132.077 29.592 133.704 28.5532 135.14Z" fill="#493657"/>
<path opacity="0.1" d="M14.3064 134.429C14.6328 134.81 14.8496 135.105 14.8496 135.105L14.1944 137.008C14.1944 137.008 13.8299 136.751 13.3701 136.347C13.4723 135.733 13.7261 135.155 14.1087 134.665C14.173 134.589 14.2421 134.505 14.3064 134.429Z" fill="black"/>
<path opacity="0.1" d="M16.2314 134.018C16.032 134.279 15.8189 134.529 15.5929 134.767C15.5371 134.434 15.4981 134.098 15.4762 133.761C15.7486 133.765 16.0128 133.855 16.2314 134.018Z" fill="black"/>
<path d="M19.4548 141.613L17.8229 142.327C17.8229 142.327 17.4679 142.156 16.9557 141.837C15.2427 140.786 11.8001 138.138 14.0968 135.017C16.3934 131.896 18.3303 137.493 19.0998 140.231C19.3309 141.052 19.4548 141.613 19.4548 141.613Z" fill="#493657"/>
<path opacity="0.1" d="M23.7836 134.717C24.021 134.474 24.3419 134.329 24.6818 134.313C24.6628 134.943 24.6008 135.447 24.6008 135.447C24.3119 135.223 24.0389 134.979 23.7836 134.717Z" fill="black"/>
<path opacity="0.1" d="M26.8331 136.437C26.6458 136.519 26.4532 136.589 26.2566 136.646L25.4847 135.564C25.5664 135.206 25.6731 134.855 25.8039 134.512C26.3018 134.803 26.6687 135.526 26.8331 136.437Z" fill="black"/>
<path d="M22.7878 143.509L22.5138 143.557C17.0509 144.385 20.7127 141.442 20.7127 141.442C20.7127 141.442 20.951 141.204 21.2916 140.847C21.9516 140.119 22.9427 138.849 23.057 137.674C23.2285 135.906 23.4263 134.248 25.5157 134.736C27.5669 135.207 27.96 142.475 22.7878 143.509Z" fill="#493657"/>
<path d="M22.6853 157.09H12.248V159.831H22.6853V157.09Z" fill="#D4DFEC"/>
<path d="M24.2268 148.181H10.5898V157.744H24.2268V148.181Z" fill="#D4DFEC"/>
<path opacity="0.1" d="M22.6853 157.09H12.248V159.831H22.6853V157.09Z" fill="black"/>
<path opacity="0.1" d="M24.2268 148.181H10.5898V157.744H24.2268V148.181Z" fill="black"/>
<path d="M23.3715 157.09H12.9341V159.831H23.3715V157.09Z" fill="#D4DFEC"/>
<path opacity="0.1" d="M19.0998 140.234C19.3381 141.052 19.4548 141.613 19.4548 141.613L17.8228 142.327C17.8228 142.327 17.4679 142.156 16.9556 141.837C17.5941 141.033 18.3136 140.422 19.0998 140.234Z" fill="black"/>
<path opacity="0.1" d="M22.7878 143.509L22.5138 143.557C17.0509 144.385 20.7127 141.442 20.7127 141.442C20.7127 141.442 20.951 141.204 21.2916 140.847C22.3113 141.661 22.733 142.582 22.7878 143.509Z" fill="black"/>
<path d="M13.9062 148.724C13.9062 148.724 16.9652 137.781 21.2559 141.159C25.5466 144.537 19.512 149.723 19.512 149.723L13.9062 148.724Z" fill="#493657"/>
<path opacity="0.1" d="M15.45 137.077C15.6394 137.077 15.793 136.923 15.793 136.734C15.793 136.545 15.6394 136.392 15.45 136.392C15.2605 136.392 15.1069 136.545 15.1069 136.734C15.1069 136.923 15.2605 137.077 15.45 137.077Z" fill="black"/>
<path opacity="0.1" d="M15.4214 138.675C15.6108 138.675 15.7644 138.522 15.7644 138.333C15.7644 138.144 15.6108 137.99 15.4214 137.99C15.2319 137.99 15.0783 138.144 15.0783 138.333C15.0783 138.522 15.2319 138.675 15.4214 138.675Z" fill="black"/>
<path opacity="0.1" d="M25.3727 137.391C25.5622 137.391 25.7158 137.238 25.7158 137.048C25.7158 136.859 25.5622 136.706 25.3727 136.706C25.1832 136.706 25.0296 136.859 25.0296 137.048C25.0296 137.238 25.1832 137.391 25.3727 137.391Z" fill="black"/>
<path opacity="0.1" d="M17.3654 145.584C17.5549 145.584 17.7085 145.43 17.7085 145.241C17.7085 145.052 17.5549 144.899 17.3654 144.899C17.176 144.899 17.0224 145.052 17.0224 145.241C17.0224 145.43 17.176 145.584 17.3654 145.584Z" fill="black"/>
<path opacity="0.1" d="M24.658 140.046C24.8475 140.046 25.0011 139.892 25.0011 139.703C25.0011 139.514 24.8475 139.361 24.658 139.361C24.4685 139.361 24.3149 139.514 24.3149 139.703C24.3149 139.892 24.4685 140.046 24.658 140.046Z" fill="black"/>
<path opacity="0.1" d="M21.113 143.585C21.3024 143.585 21.456 143.432 21.456 143.243C21.456 143.054 21.3024 142.9 21.113 142.9C20.9235 142.9 20.7699 143.054 20.7699 143.243C20.7699 143.432 20.9235 143.585 21.113 143.585Z" fill="black"/>
<path opacity="0.1" d="M16.6221 137.762C16.8116 137.762 16.9652 137.609 16.9652 137.419C16.9652 137.23 16.8116 137.077 16.6221 137.077C16.4326 137.077 16.279 137.23 16.279 137.419C16.279 137.609 16.4326 137.762 16.6221 137.762Z" fill="black"/>
<path opacity="0.1" d="M24.4293 138.418C24.6187 138.418 24.7723 138.265 24.7723 138.076C24.7723 137.887 24.6187 137.733 24.4293 137.733C24.2398 137.733 24.0862 137.887 24.0862 138.076C24.0862 138.265 24.2398 138.418 24.4293 138.418Z" fill="black"/>
<path opacity="0.1" d="M23.2571 141.073C23.4466 141.073 23.6002 140.92 23.6002 140.731C23.6002 140.542 23.4466 140.388 23.2571 140.388C23.0677 140.388 22.9141 140.542 22.9141 140.731C22.9141 140.92 23.0677 141.073 23.2571 141.073Z" fill="black"/>
<path opacity="0.1" d="M19.6549 145.327C19.8444 145.327 19.998 145.173 19.998 144.984C19.998 144.795 19.8444 144.642 19.6549 144.642C19.4655 144.642 19.3119 144.795 19.3119 144.984C19.3119 145.173 19.4655 145.327 19.6549 145.327Z" fill="black"/>
<path opacity="0.1" d="M18.9116 143.643C19.1011 143.643 19.2547 143.489 19.2547 143.3C19.2547 143.111 19.1011 142.957 18.9116 142.957C18.7221 142.957 18.5685 143.111 18.5685 143.3C18.5685 143.489 18.7221 143.643 18.9116 143.643Z" fill="black"/>
<path opacity="0.1" d="M17.1367 139.846C17.3262 139.846 17.4798 139.692 17.4798 139.503C17.4798 139.314 17.3262 139.161 17.1367 139.161C16.9472 139.161 16.7936 139.314 16.7936 139.503C16.7936 139.692 16.9472 139.846 17.1367 139.846Z" fill="black"/>
<path opacity="0.1" d="M23.3715 157.09H12.9341V158.092H23.3715V157.09Z" fill="black"/>
<path d="M24.9129 148.181H11.276V157.744H24.9129V148.181Z" fill="#D4DFEC"/>
<path opacity="0.1" d="M20.1123 146.868C20.3018 146.868 20.4554 146.715 20.4554 146.526C20.4554 146.337 20.3018 146.183 20.1123 146.183C19.9229 146.183 19.7693 146.337 19.7693 146.526C19.7693 146.715 19.9229 146.868 20.1123 146.868Z" fill="black"/>
<path opacity="0.1" d="M18.0539 147.296C18.2434 147.296 18.397 147.143 18.397 146.954C18.397 146.765 18.2434 146.611 18.0539 146.611C17.8645 146.611 17.7109 146.765 17.7109 146.954C17.7109 147.143 17.8645 147.296 18.0539 147.296Z" fill="black"/>
</g>
<defs>
<linearGradient id="paint0_linear" x1="107.433" y1="193.518" x2="107.433" y2="6.30157" gradientUnits="userSpaceOnUse">
<stop stop-color="#808080" stop-opacity="0.25"/>
<stop offset="0.54" stop-color="#808080" stop-opacity="0.12"/>
<stop offset="1" stop-color="#808080" stop-opacity="0.1"/>
</linearGradient>
<clipPath id="clip0">
<rect width="256" height="200" fill="white"/>
</clipPath>
</defs>
</svg>
