<svg width="38" height="43" viewBox="0 0 38 43" fill="none" xmlns="http://www.w3.org/2000/svg">
<g clip-path="url(#clip0)">
<path d="M17.5019 4.2482V15.3967C17.5019 17.7424 15.8057 19.6436 13.718 19.6436H3.78388C1.69618 19.6436 0 17.7424 0 15.3967V4.2482C0 1.90245 1.69618 0 3.78388 0H13.718C15.8092 0 17.5019 1.90245 17.5019 4.2482ZM34.2161 0H24.282C22.1943 0 20.4981 1.90245 20.4981 4.2482V15.3967C20.4981 17.7424 22.1943 19.6436 24.282 19.6436H34.2161C36.3038 19.6436 38 17.7424 38 15.3967V4.2482C38 1.90245 36.3038 0 34.2161 0ZM13.718 23.0064H3.78388C1.69618 23.0064 0 24.9063 0 27.2534V38.4031C0 40.7463 1.69618 42.65 3.78388 42.65H13.718C15.8057 42.65 17.5019 40.7463 17.5019 38.4031V27.2534C17.5019 24.9063 15.8092 23.0064 13.718 23.0064ZM34.2161 23.0064H24.282C22.1943 23.0064 20.4981 24.9076 20.4981 27.2534V38.4031C20.4981 40.7463 22.1943 42.65 24.282 42.65H34.2161C36.3038 42.65 38 40.7463 38 38.4031V27.2534C38 24.9063 36.3038 23.0064 34.2161 23.0064Z" fill="#493657"/>
</g>
<defs>
<clipPath id="clip0">
<rect width="38" height="42.65" fill="white"/>
</clipPath>
</defs>
</svg>
