<svg width="18" height="18" viewBox="0 0 18 18" fill="none" xmlns="http://www.w3.org/2000/svg">
<path d="M3.98918 10.8776L3.36263 13.2166L1.07258 13.2651C0.388195 11.9957 0 10.5433 0 8.99998C0 7.50756 0.362953 6.10018 1.00631 4.86096H1.0068L3.04559 5.23474L3.9387 7.26129C3.75177 7.80625 3.64989 8.39125 3.64989 8.99998C3.64996 9.66063 3.76963 10.2936 3.98918 10.8776Z" fill="#FBBB00"/>
<path d="M17.8427 7.31866C17.9461 7.86309 18 8.42535 18 8.99998C18 9.64432 17.9323 10.2728 17.8032 10.8791C17.3651 12.9422 16.2203 14.7437 14.6344 16.0185L14.6339 16.018L12.066 15.887L11.7025 13.6182C12.7548 13.001 13.5772 12.0353 14.0104 10.8791H9.19786V7.31866H14.0806H17.8427Z" fill="#518EF8"/>
<path d="M14.6339 16.0181L14.6344 16.0185C13.092 17.2583 11.1328 18 9 18C5.57258 18 2.5927 16.0843 1.07258 13.2651L3.98918 10.8777C4.74922 12.9061 6.70598 14.3501 9 14.3501C9.98602 14.3501 10.9098 14.0835 11.7025 13.6182L14.6339 16.0181Z" fill="#28B446"/>
<path d="M14.7447 2.07197L11.8291 4.45894C11.0087 3.94615 10.0389 3.64992 9 3.64992C6.65406 3.64992 4.6607 5.16013 3.93873 7.26131L1.0068 4.86098H1.00631C2.50418 1.97307 5.52164 0 9 0C11.1837 0 13.186 0.777867 14.7447 2.07197Z" fill="#F14336"/>
</svg>
