<svg width="20" height="20" viewBox="0 0 20 20" fill="none" xmlns="http://www.w3.org/2000/svg">
<path d="M4.455 16.4103L0 20V1.02564C0 0.753624 0.105357 0.492748 0.292893 0.300403C0.48043 0.108058 0.734784 0 1 0H19C19.2652 0 19.5196 0.108058 19.7071 0.300403C19.8946 0.492748 20 0.753624 20 1.02564V15.3846C20 15.6566 19.8946 15.9175 19.7071 16.1099C19.5196 16.3022 19.2652 16.4103 19 16.4103H4.455ZM5 7.17949V9.23077H7V7.17949H5ZM9 7.17949V9.23077H11V7.17949H9ZM13 7.17949V9.23077H15V7.17949H13Z" fill="#493657"/>
</svg>
