<svg width="38" height="43" viewBox="0 0 38 43" fill="none" xmlns="http://www.w3.org/2000/svg">
<path d="M28.1659 28.5551C25.1375 25.5267 25.5853 23.3659 27.1946 21.7565C28.8036 20.1475 30.9648 19.6994 33.9932 22.7278C36.3522 25.0872 37.5652 29.8368 37.9863 31.8206C38.0784 32.2547 37.6928 32.6406 37.2584 32.5482C35.2745 32.1275 30.5249 30.9144 28.1659 28.5551V28.5551Z" fill="#935B45"/>
<path d="M9.83412 28.5551C12.8625 25.5267 12.4147 23.3659 10.8054 21.7565C9.19637 20.1475 7.03517 19.6994 4.00683 22.7278C1.6478 25.0872 0.434771 29.8368 0.0137252 31.8206C-0.0783582 32.2547 0.307221 32.6406 0.741608 32.5482C2.72547 32.1275 7.47509 30.9144 9.83412 28.5551V28.5551Z" fill="#774839"/>
<path d="M5.12808 42.6486C5.12808 34.9874 11.3387 28.7769 19.0002 28.7769C26.6613 28.7769 32.8719 34.9874 32.8719 42.6486H5.12808Z" fill="#FF8DA3"/>
<path d="M11.2433 42.6487H13.851V29.7645C12.9288 30.1335 12.0555 30.5978 11.2433 31.1464V42.6487Z" fill="#FFEB99"/>
<path d="M24.149 42.6487H26.7566V31.1464C25.9448 30.5978 25.0712 30.1335 24.149 29.7645V42.6487Z" fill="#FFEB99"/>
<path d="M22.7499 30.1927C22.7499 32.2637 21.0712 33.9427 19.0002 33.9427C16.9291 33.9427 15.2501 32.2637 15.2501 30.1927C15.2501 28.1216 16.9291 26.4426 19.0002 26.4426C21.0712 26.4426 22.7499 28.1216 22.7499 30.1927V30.1927Z" fill="#FFCFC2"/>
<path d="M36.1358 17.0034C36.1358 18.6332 34.8144 19.9543 33.1849 19.9543C31.5551 19.9543 30.2337 18.6332 30.2337 17.0034C30.2337 15.3735 31.5551 14.0521 33.1849 14.0521C34.8144 14.0521 36.1358 15.3735 36.1358 17.0034Z" fill="#FFCFC2"/>
<path d="M7.76628 17.0034C7.76628 18.6332 6.4449 19.9543 4.81538 19.9543C3.18553 19.9543 1.86415 18.6332 1.86415 17.0034C1.86415 15.3735 3.18553 14.0521 4.81538 14.0521C6.4449 14.0521 7.76628 15.3735 7.76628 17.0034Z" fill="#FFAEA1"/>
<path d="M19.0002 26.4426C16.9291 26.4426 15.2501 28.1216 15.2501 30.1927C15.2501 30.8623 15.4265 31.4903 15.734 32.0343C16.7892 32.2514 17.8815 32.3656 19.0002 32.3656C20.1185 32.3656 21.2111 32.2514 22.2663 32.0343C22.5738 31.4903 22.7502 30.8623 22.7502 30.1927C22.7499 28.1216 21.0709 26.4426 19.0002 26.4426V26.4426Z" fill="#FFAEA1"/>
<path d="M33.8871 16.1747C33.8871 24.3965 27.2219 31.0617 19.0002 31.0617C10.778 31.0617 4.11288 24.3965 4.11288 16.1747C4.11288 7.95263 10.778 1.28748 19.0002 1.28748C27.2219 1.28748 33.8871 7.95263 33.8871 16.1747Z" fill="#FFE2D9"/>
<path d="M7.58961 16.1747C7.58961 8.54092 13.3356 2.25029 20.7384 1.389C20.168 1.32294 19.5881 1.28748 19.0002 1.28748C10.778 1.28748 4.11288 7.95263 4.11288 16.1747C4.11288 24.3965 10.778 31.0617 19.0002 31.0617C19.5881 31.0617 20.168 31.0265 20.7384 30.9602C13.3356 30.0992 7.58961 23.8082 7.58961 16.1747Z" fill="#FFCFC2"/>
<path d="M27.9088 42.6487H10.0912V37.3033C10.0912 36.6434 10.6261 36.1082 11.2863 36.1082H26.7137C27.3739 36.1082 27.9088 36.6434 27.9088 37.3033V42.6487Z" fill="#FFDE55"/>
<path d="M29.3753 17.0032V21.5261C29.3753 24.0178 31.3953 26.0378 33.8871 26.0378V15.9985C33.8871 15.3207 34.4367 14.7711 35.1144 14.7711C34.4009 6.50702 27.4461 0 19.0001 0C10.5538 0 3.59909 6.50702 2.88553 14.7711C3.5633 14.7711 4.11287 15.3207 4.11287 15.9985V26.0378C6.60466 26.0378 8.62464 24.0178 8.62464 21.5261V10.357C8.62464 10.357 11.0575 16.3554 20.7149 16.1748C20.7149 16.1748 21.4893 13.0189 20.4162 9.29783C20.4165 9.29816 23.7644 15.2214 29.3753 17.0032Z" fill="#B2785B"/>
<path d="M19.0001 0C10.5538 0 3.59909 6.50702 2.88553 14.7711C3.5633 14.7711 4.11287 15.3207 4.11287 15.9985V26.0378C4.88989 26.0378 5.6207 25.8413 6.2591 25.4954V16.1748C6.2591 7.83653 12.6012 0.952397 20.7149 0.0914327C20.1513 0.0315622 19.5793 0 19.0001 0V0Z" fill="#935B45"/>
<path d="M19.0002 21.4157C18.1851 21.4157 17.4263 20.9765 17.0199 20.2694C16.8481 19.9704 16.9509 19.5884 17.2499 19.4166C17.5493 19.2445 17.931 19.3476 18.1031 19.6466C18.2872 19.9671 18.6312 20.1663 19.0002 20.1663C19.3691 20.1663 19.7128 19.9671 19.8972 19.6466C20.069 19.3476 20.451 19.2445 20.7501 19.4166C21.0491 19.5884 21.1522 19.9704 20.9804 20.2694C20.5737 20.9765 19.8149 21.4157 19.0002 21.4157Z" fill="#222223"/>
<path d="M24.4676 18.9024C24.1223 18.9024 23.8428 18.6226 23.8428 18.2777V17.3028C23.8428 16.9579 24.1223 16.6781 24.4676 16.6781C24.8125 16.6781 25.0923 16.9579 25.0923 17.3028V18.2777C25.0923 18.6226 24.8125 18.9024 24.4676 18.9024Z" fill="#222223"/>
<path d="M13.5324 18.9024C13.1875 18.9024 12.9077 18.6226 12.9077 18.2777V17.3028C12.9077 16.9579 13.1875 16.6781 13.5324 16.6781C13.8776 16.6781 14.1571 16.9579 14.1571 17.3028V18.2777C14.1571 18.6226 13.8776 18.9024 13.5324 18.9024Z" fill="#222223"/>
<path d="M24.9547 20.7452H23.9801C23.6349 20.7452 23.3554 20.4657 23.3554 20.1205C23.3554 19.7756 23.6349 19.4957 23.9801 19.4957H24.9547C25.2999 19.4957 25.5794 19.7756 25.5794 20.1205C25.5794 20.4657 25.2999 20.7452 24.9547 20.7452V20.7452Z" fill="#F46262"/>
</svg>
