<svg width="38" height="43" viewBox="0 0 38 43" fill="none" xmlns="http://www.w3.org/2000/svg">
<path d="M31.9694 30.7006C31.9694 29.1009 31.1064 27.7137 29.8437 27.0257C29.6461 26.918 29.5985 26.6443 29.7413 26.4648C30.2049 25.882 30.4844 25.1314 30.4844 24.3123C30.4844 22.415 28.9887 20.888 27.1742 20.9597C26.9774 20.9674 26.8158 20.7967 26.8158 20.5894V9.10906C26.8158 4.0783 22.9403 0 18.1596 0H13.8097C9.02901 0 5.15346 4.0783 5.15346 9.10906V20.5895C5.15346 20.7967 4.99178 20.9674 4.79507 20.9597C2.97892 20.8879 1.48483 22.4166 1.48483 24.3123C1.48483 25.1314 1.76435 25.8821 2.22808 26.4649C2.37089 26.6444 2.32338 26.918 2.12571 27.0257C0.863175 27.7137 0 29.1009 0 30.7006C0 32.8156 1.5085 34.5602 3.4555 34.8065C2.86939 35.6421 2.5331 36.6688 2.5331 37.7571V41.9145C2.5331 42.3206 2.84598 42.6499 3.23188 42.6499H28.7376C29.1235 42.6499 29.4364 42.3206 29.4364 41.9145V37.7571C29.4364 36.6725 29.1018 35.6485 28.5201 34.8148L28.5323 34.8047C30.4706 34.5492 31.9694 32.8091 31.9694 30.7006V30.7006Z" fill="#FFEBD2"/>
<path d="M26.2551 33.0555C26.1477 33.015 22.6922 31.7631 22.4913 31.6896C20.5768 30.9928 19.304 29.1004 19.304 26.9843C22.4328 25.6147 24.6322 22.3673 24.6322 18.5794V14.4838C24.6322 14.1908 24.4663 13.9281 24.2117 13.8097C23.0915 13.2889 21.8381 12.0297 21.0276 10.6797C20.8821 10.4374 20.5856 10.3514 20.3443 10.4842C18.5806 11.4546 12.968 13.5362 8.09028 13.1352C7.68411 13.1019 7.33725 13.4389 7.33725 13.8676V18.5794C7.33725 22.3673 9.53668 25.6147 12.6655 26.9843C12.6655 29.0991 11.3939 30.9923 9.47816 31.6896C8.4712 32.0582 5.72035 33.0472 5.7117 33.0564C4.78668 33.3947 4.00841 34.0151 3.4555 34.8065C1.5085 34.5602 0 32.8156 0 30.7006C0 29.101 0.863175 27.7137 2.12579 27.0257C2.32338 26.918 2.37098 26.6444 2.22817 26.4649C1.76452 25.8821 1.48492 25.1315 1.48492 24.3123C1.48492 22.4185 2.977 20.8881 4.79516 20.9597C4.99195 20.9674 5.15355 20.7967 5.15355 20.5895V9.10906C5.15355 4.0783 9.0291 0 13.8098 0H18.1597C22.9404 0 26.8159 4.0783 26.8159 9.10906V20.5895C26.8159 20.7967 26.9776 20.9675 27.1743 20.9597C28.9942 20.888 30.4845 22.4205 30.4845 24.3124C30.4845 25.1315 30.205 25.8821 29.7414 26.4649C29.5985 26.6444 29.6462 26.9181 29.8438 27.0258C31.1064 27.7138 31.9695 29.1011 31.9695 30.7006C31.9695 32.8092 30.4706 34.5492 28.5324 34.8048L28.5202 34.8149C27.9655 34.018 27.1855 33.3948 26.2561 33.0556H26.2551V33.0555Z" fill="#585966"/>
<path d="M29.4364 37.7569V41.9144C29.4364 42.3205 29.1235 42.6497 28.7376 42.6497H3.23188C2.84598 42.6497 2.5331 42.3205 2.5331 41.9144V37.7569C2.5331 35.64 3.80821 33.7524 5.7117 33.0563C5.72035 33.0471 8.47024 32.0584 9.47815 31.6894C9.7105 31.6049 9.93411 31.5029 10.1464 31.3843C10.9443 34.2552 13.1107 36.4227 15.9847 36.9508C18.8556 36.4233 21.0244 34.2581 21.8231 31.3843C22.0353 31.5029 22.2589 31.6049 22.4913 31.6894C22.5 31.6927 26.2473 33.0553 26.256 33.0553C28.144 33.7444 29.4364 35.6227 29.4364 37.7569Z" fill="#FFA4B8"/>
<path d="M35.2939 23.7699C32.5629 21.8751 28.7121 22.7571 26.9967 25.8841C26.2639 27.2196 26.0569 28.7225 26.3084 30.1279H26.3075C25.2298 30.6274 24.3344 31.4715 23.743 32.5509L20.6561 38.1762C19.8822 39.5862 19.7328 41.1957 20.1172 42.6499H31.0112L33.3496 38.3876C33.9627 37.2708 34.1846 36.029 34.0606 34.8387V34.8378C35.3428 34.3644 36.4766 33.4241 37.2095 32.0885C38.7896 29.2078 37.9249 25.5476 35.2939 23.7699V23.7699Z" fill="#CBE3FA"/>
<path d="M13.801 18.2917C13.4151 18.2917 13.1022 17.9625 13.1022 17.5564V16.2695C13.1022 15.8634 13.4151 15.5342 13.801 15.5342C14.1869 15.5342 14.4998 15.8634 14.4998 16.2695V17.5564C14.4998 17.9625 14.1869 18.2917 13.801 18.2917Z" fill="#585966"/>
<path d="M18.1684 18.2917C17.7825 18.2917 17.4697 17.9625 17.4697 17.5564V16.2695C17.4697 15.8634 17.7825 15.5342 18.1684 15.5342C18.5543 15.5342 18.8672 15.8634 18.8672 16.2695V17.5564C18.8672 17.9625 18.5543 18.2917 18.1684 18.2917Z" fill="#585966"/>
<path d="M20.6166 9.90229C20.4732 9.58729 20.3594 9.27412 20.2823 8.97079C20.194 8.6238 19.8853 8.39153 19.5452 8.42287C19.1094 8.46304 18.8193 8.90847 18.9325 9.35317C19.0336 9.75072 19.1816 10.1605 19.3755 10.5798C19.4621 10.767 19.6812 10.8385 19.8551 10.7394L20.4701 10.3887C20.6352 10.2944 20.6978 10.0806 20.6166 9.90229Z" fill="#42434D"/>
<path d="M21.036 0.514924C21.7287 0.77165 21.5513 1.84167 20.8169 1.83845C20.8048 1.83836 16.4308 1.83836 16.4308 1.83836C11.6501 1.83836 7.77458 5.91666 7.77458 10.9474V13.1865C7.51953 13.295 7.33784 13.557 7.33784 13.8676V18.5794C7.33784 19.5794 7.49158 20.5418 7.77458 21.4408V22.428C7.77458 22.6394 7.60679 22.8062 7.40606 22.7979C5.63508 22.725 4.10596 24.2258 4.10596 26.1506C4.10596 26.9696 4.38547 27.7206 4.84929 28.3033C4.99167 28.4826 4.9445 28.7565 4.74709 28.864C3.48404 29.5516 2.62104 30.9395 2.62104 32.5389C2.62104 33.6021 1.41424 34.0258 0.836952 33.2515C-0.665088 31.237 -0.0885898 28.2314 2.12639 27.0257C2.32379 26.9181 2.37114 26.6441 2.22876 26.4649C1.76494 25.8821 1.48551 25.1313 1.48551 24.3123C1.48551 22.3883 3.01367 20.8866 4.78561 20.9596C4.98634 20.9678 5.15414 20.8009 5.15414 20.5895V9.10906C5.15414 4.0783 9.02969 0 13.8103 0H18.1603C19.1682 0 20.1362 0.181354 21.036 0.514924V0.514924Z" fill="#6E6F80"/>
<path d="M13.3492 26.5045C12.8994 26.82 12.321 26.8437 11.8466 26.5712C9.15969 25.0275 7.33726 22.0273 7.33726 18.5793V13.8676C7.33726 13.4392 7.68412 13.1021 8.09029 13.1352C8.47846 13.1672 8.87118 13.1832 9.26626 13.1854C9.64928 13.1875 9.9577 13.5171 9.9577 13.9202V16.7409C9.9577 19.7202 11.3182 22.3651 13.4215 24.025C14.2173 24.653 14.177 25.9238 13.3492 26.5045Z" fill="#FFF3E4"/>
<path d="M18.9242 28.6155C17.0815 29.321 14.8882 29.321 13.0453 28.6155C12.7322 28.4956 12.5452 28.1549 12.6003 27.8092C12.6433 27.5397 12.6655 27.2639 12.6655 26.9844C14.6852 27.9039 17.2847 27.9039 19.304 26.9844C19.304 27.2639 19.3261 27.5397 19.3691 27.8092C19.4242 28.1549 19.2372 28.4956 18.9242 28.6155V28.6155Z" fill="#FFDFBA"/>
<path d="M10.6308 32.6949C10.8151 33.0907 10.6262 33.5672 10.2302 33.711C8.49829 34.3397 7.99124 34.5178 7.98268 34.5269C6.0825 35.2218 4.80407 37.107 4.80407 39.2276V41.9144C4.80407 42.3205 4.49119 42.6497 4.10529 42.6497H3.23181C2.8459 42.6497 2.53302 42.3205 2.53302 41.9144V37.7569C2.53302 35.6398 3.80839 33.7523 5.71162 33.0563C5.72027 33.0471 8.46475 32.0603 9.47808 31.6894C9.71042 31.6049 9.93404 31.5029 10.1463 31.3843C10.2225 31.6586 10.3689 32.1323 10.6308 32.6949Z" fill="#FFBFCB"/>
<path d="M31.4689 41.8151L31.0112 42.6498H20.1172C19.7328 41.1956 19.8822 39.5861 20.6561 38.1761C20.6561 38.1761 23.8574 32.3485 23.9186 32.2511C24.972 36.3864 27.6641 39.8317 31.3178 41.7232L31.4689 41.8151Z" fill="#B5D5F5"/>
<path d="M35.2939 23.7698C37.9248 25.5475 38.7896 29.2077 37.2095 32.0884C36.4766 33.4239 35.3428 34.3643 34.0606 34.8376C30.6458 36.1016 26.9732 33.8636 26.3084 30.1278C26.0568 28.7223 26.2639 27.2195 26.9967 25.8839C28.7102 22.7603 32.5611 21.8737 35.2939 23.7698Z" fill="#FFEBD2"/>
<path d="M32.5682 30.3475C32.3512 30.0117 32.4339 29.5543 32.753 29.3259C33.0721 29.0974 33.5068 29.1846 33.7238 29.5203C33.8601 29.7312 34.098 29.8568 34.3542 29.8345C34.7397 29.801 35.0766 30.1012 35.1088 30.5059C35.1411 30.9106 34.8554 31.2661 34.4709 31.3001C33.7199 31.3665 32.9921 31.0033 32.5682 30.3475Z" fill="#585966"/>
<path d="M30.8015 29.2446C30.5143 29.2446 30.0874 29.121 29.7384 28.8735C29.3428 28.5934 29.1262 28.2352 29.0142 27.9841C28.8503 27.6164 29.0007 27.1785 29.35 27.0061C29.6994 26.8336 30.1156 26.9918 30.2794 27.3595C30.3829 27.5917 30.5992 27.7554 30.8542 27.776C31.239 27.8071 31.5269 28.1606 31.4974 28.5655C31.4693 28.9513 31.163 29.2446 30.8015 29.2446V29.2446Z" fill="#585966"/>
<path d="M28.5167 31.9222C28.726 32.7194 27.7268 33.2312 27.2765 32.5534C26.0125 30.6508 25.804 28.0577 26.9967 25.884C28.5702 23.0157 31.926 22.0295 34.6236 23.3749C34.9633 23.5443 34.8357 24.0902 34.4602 24.0729C30.4581 23.8897 27.4515 27.8664 28.5167 31.9222V31.9222Z" fill="#FFF3E4"/>
<path d="M33.1231 27.5123C32.9024 27.5123 32.6853 27.4026 32.5494 27.1977C31.931 26.2652 31.9146 25.0203 32.5086 24.0998C33.2094 23.0091 34.5489 22.6612 35.5931 23.1014C35.9514 23.2524 36.1254 23.6805 35.9819 24.0575C35.8555 24.3896 35.5008 24.6241 35.0639 24.4647C34.5469 24.2749 33.9588 24.4685 33.6655 24.9249C33.3941 25.3455 33.4064 25.9202 33.6955 26.356C34.0215 26.8476 33.6792 27.5123 33.1231 27.5123V27.5123Z" fill="#585966"/>
<path d="M27.1531 32.3578C26.5155 33.0627 26.3076 33.5947 25.5204 35.0191C25.381 35.2713 25.0293 35.262 24.9061 35.0006C24.3893 33.9039 24.0924 32.9342 23.9185 32.2511C24.5239 31.286 25.3615 30.5663 26.3075 30.1278C26.3321 30.1279 26.4119 31.1514 27.1531 32.3578V32.3578Z" fill="#EEF7FF"/>
<path d="M23.2766 39.0953C22.6625 40.2139 22.4415 41.4576 22.569 42.6498H20.1172C19.7328 41.1956 19.8822 39.5861 20.6561 38.1761C20.6561 38.1761 23.8574 32.3485 23.9186 32.2511C24.1047 32.9826 24.432 34.0426 25.0192 35.2353C25.1294 35.459 25.1255 35.7261 25.0057 35.9444L23.2766 39.0953Z" fill="#CBE3FA"/>
</svg>
