<svg width="38" height="43" viewBox="0 0 38 43" fill="none" xmlns="http://www.w3.org/2000/svg">
<path d="M23.6249 17.5419C24.2862 18.2962 25.0667 18.8551 25.912 19.1797C25.7347 23.1154 22.7628 21.3732 22.7628 21.3732V21.3722C21.1613 22.4429 18.1078 22.5688 17.94 20.1275C17.9108 19.7415 17.9244 19.352 17.9803 18.9709L17.9661 18.9678C18.24 16.9124 17.8948 14.3289 15.7858 12.9665C16.089 9.06251 17.3486 8.03176 17.3486 8.03176L17.3502 8.02869C19.0428 9.52108 21.6845 9.50982 21.6845 9.50982C21.2088 12.424 21.8643 15.5377 23.6249 17.5419V17.5419Z" fill="#FCBAB1"/>
<path d="M20.5761 19.2599C20.4746 19.26 20.3756 19.2181 20.2939 19.1402C20.2121 19.0623 20.1518 18.9526 20.1218 18.8271C20.0918 18.7017 20.0937 18.5671 20.1272 18.4431C20.1607 18.3191 20.2241 18.2123 20.308 18.1383C20.5237 17.9481 22.4547 16.2981 23.7967 16.9696C23.8549 16.9987 23.908 17.0424 23.9532 17.0981C23.9983 17.1537 24.0345 17.2204 24.0597 17.2941C24.0849 17.3679 24.0987 17.4474 24.1001 17.528C24.1016 17.6086 24.0907 17.6889 24.0682 17.7641C24.0457 17.8393 24.0119 17.908 23.9689 17.9664C23.9258 18.0247 23.8743 18.0715 23.8172 18.1041C23.7602 18.1367 23.6987 18.1545 23.6363 18.1564C23.574 18.1582 23.5119 18.1442 23.4538 18.1151C23.1085 17.9422 22.5422 18.0584 21.8593 18.442C21.5059 18.642 21.1661 18.8798 20.8433 19.153C20.7646 19.2227 20.6715 19.26 20.5761 19.2599V19.2599Z" fill="#D19690"/>
<path d="M35.5229 14.936L35.3748 15.5758L33.9332 21.7767C33.4421 21.3179 32.8407 21.1 32.2368 21.1621C31.6328 21.2242 31.0656 21.5621 30.6367 22.1155L30.0984 22.8115L28.2118 25.2508C27.7771 25.8124 27.25 26.2399 26.6697 26.5016L26.2992 26.6684C25.309 27.1137 24.433 27.9032 23.7672 28.9501C23.1014 29.9971 22.6717 31.2611 22.5253 32.6032L22.4588 34.0782C22.4533 34.2 22.4438 34.3198 22.4311 34.4395C22.2604 35.8794 22.1688 37.3332 22.1572 38.7898V41.9967C24.03 42.8231 26.0598 42.8407 27.9411 42.0469L28.0622 41.9967L28.4612 36.6228C28.4845 36.2646 28.5685 35.9175 28.7074 35.6061C28.8463 35.2947 29.0366 35.0268 29.2648 34.8213L33.8303 30.7536C35.0661 29.5475 35.9035 27.7818 36.1744 25.8107L38 13.1089C37.4846 12.9434 36.9397 13.0409 36.4785 13.3811C36.0172 13.7213 35.675 14.2782 35.5229 14.936V14.936Z" fill="#FFC9C0"/>
<path d="M35.3693 15.5735C34.5428 15.2797 33.5382 15.8141 33.2714 16.8673L33.0695 17.7374L32.2763 21.1582C32.8675 21.108 33.4536 21.3267 33.9332 21.7765L35.3748 15.5756L35.3693 15.5735Z" fill="#F7BAB2"/>
<path d="M32.277 6.51172L32.2755 6.5107L28.3813 2.0591L28.3789 2.05603C26.9206 2.12359 25.217 2.88923 24.0136 4.42257C23.9804 4.46454 23.9131 4.49525 23.8909 4.44304C23.5228 3.55661 22.6686 3.88007 22.1904 4.66312C21.455 5.86788 21.3893 7.52405 21.9395 8.08805C21.9558 8.10519 21.9675 8.1286 21.9729 8.1549C21.9783 8.18121 21.9772 8.20905 21.9695 8.23442C21.8506 8.65001 21.7554 9.07628 21.6845 9.50982C21.2088 12.424 21.8643 15.5377 23.6249 17.5419C24.2862 18.2962 25.0667 18.855 25.912 19.1797C28.3203 20.1111 31.1157 19.1295 32.9753 16.4006C34.1208 14.7189 34.5768 12.7044 34.5602 10.6562L32.277 6.51172Z" fill="#FFC9C0"/>
<path d="M33.0695 17.7375L32.2763 21.1584C31.6575 21.2069 31.0741 21.5474 30.6367 22.1154L30.0984 22.8115L30.7507 19.9577C30.8832 19.3143 31.1764 18.7454 31.5847 18.3397C31.993 17.9339 32.4936 17.714 33.0085 17.714L33.0695 17.7375Z" fill="#E5ACA8"/>
<path d="M11.3129 16.9747C11.3129 16.9747 11.001 11.7135 14.1692 12.2949C14.5148 12.3622 14.8541 12.4754 15.1818 12.6327C15.3882 12.7278 15.5899 12.8393 15.7858 12.9663C17.8948 14.3287 18.24 16.9123 17.9661 18.9677C17.9352 19.2 17.8964 19.4252 17.8513 19.6422C17.7026 20.3527 17.3845 20.9845 16.9422 21.4479C16.5 21.9113 15.956 22.1828 15.3876 22.2237C14.2524 22.3056 12.6318 22.0374 10.9765 20.4621C10.9765 20.4621 9.86891 21.3966 8.57612 21.3137C8.4439 21.3052 8.31501 21.2571 8.19966 21.1731C8.0843 21.0891 7.98564 20.9716 7.91146 20.8298C7.83728 20.688 7.78962 20.5259 7.77225 20.3562C7.75488 20.1865 7.76827 20.0139 7.81137 19.852L9.28783 14.3144C9.77996 15.4064 10.4763 16.3211 11.3129 16.9747V16.9747Z" fill="#FFC9C0"/>
<path d="M17.3502 8.02874L17.3486 8.03181C17.3486 8.03181 16.089 9.06257 15.7858 12.9665C15.5899 12.8395 15.3882 12.728 15.1818 12.6329C14.8542 12.4756 14.5148 12.3624 14.1693 12.2951C13.8755 9.02879 15.7613 6.58752 15.7613 6.58752C16.2024 6.89275 16.6167 7.25858 16.9971 7.67867C17.1094 7.80413 17.2273 7.92101 17.3502 8.02874V8.02874Z" fill="#867AF4"/>
<path d="M15.5689 34.4395C15.5563 34.3198 15.5468 34.2 15.5412 34.0782L15.4747 32.6032C15.3283 31.2611 14.8986 29.9971 14.2328 28.9501C13.567 27.9032 12.691 27.1137 11.7008 26.6684L11.3303 26.5016C10.7501 26.2399 10.2229 25.8124 9.78817 25.2508L7.90163 22.8115L7.36329 22.1155C6.93442 21.5621 6.36723 21.2242 5.76324 21.1621C5.15926 21.1 4.5579 21.3179 4.06679 21.7767L2.62517 15.5758L2.47713 14.936C2.32502 14.2782 1.98282 13.7213 1.52155 13.3811C1.06028 13.0409 0.515386 12.9434 0 13.1089L1.82558 25.8107C2.09648 27.7818 2.93386 29.5475 4.16971 30.7536L8.73525 34.8213C8.96673 35.0298 9.15875 35.3033 9.29694 35.6213C9.43513 35.9393 9.51591 36.2936 9.53325 36.6576L9.83883 41.9967L9.9275 42.0346C11.7744 42.8373 13.7714 42.8552 15.6267 42.0857L15.8428 41.9967V38.7898C15.8312 37.3332 15.7396 35.8794 15.5689 34.4395V34.4395Z" fill="#FFC9C0"/>
<path d="M15.7613 6.58749C15.7613 6.58749 13.8755 9.02876 14.1692 12.295C11.001 11.7136 11.3129 16.9749 11.3129 16.9749C10.4763 16.3213 9.77996 15.4066 9.28783 14.3146C8.52862 12.6175 8.32437 10.5212 9.24033 8.54153C11.0303 4.67133 13.8565 5.2558 15.7613 6.58749V6.58749Z" fill="#FF5A81"/>
<path d="M7.24929 19.9577L7.90162 22.8115L7.36329 22.1154C6.92594 21.5474 6.3425 21.2069 5.72375 21.1584L4.9305 17.7375L4.99145 17.714C5.50644 17.714 6.00699 17.9339 6.41531 18.3397C6.82362 18.7454 7.11681 19.3143 7.24929 19.9577V19.9577Z" fill="#E5ACA8"/>
<path d="M4.93051 17.7374L4.72863 16.8673C4.46184 15.8141 3.45722 15.2797 2.63072 15.5735L2.62518 15.5756L4.0668 21.7765C4.54641 21.3267 5.13257 21.108 5.72376 21.1582L4.93051 17.7374Z" fill="#F7BAB2"/>
<path d="M29.6986 16.6627C29.7987 16.7764 29.8705 16.9259 29.9049 17.0924C29.9393 17.2589 29.9347 17.4348 29.8918 17.5979C29.8488 17.7611 29.7694 17.904 29.6636 18.0088C29.5577 18.1135 29.4302 18.1753 29.2972 18.1863C29.1642 18.1974 29.0317 18.1571 28.9164 18.0708C28.8011 17.9844 28.7082 17.8557 28.6494 17.701C28.5907 17.5463 28.5688 17.3726 28.5864 17.2018C28.6041 17.031 28.6605 16.8708 28.7486 16.7415C28.8069 16.6556 28.8778 16.5855 28.9572 16.5351C29.0365 16.4846 29.1227 16.4549 29.211 16.4476C29.2992 16.4403 29.3877 16.4555 29.4713 16.4924C29.555 16.5293 29.6322 16.5872 29.6986 16.6627Z" fill="#D4E1F4"/>
<path d="M25.152 11.555C25.2463 11.662 25.3139 11.8028 25.3463 11.9595C25.3787 12.1161 25.3744 12.2817 25.334 12.4353C25.2936 12.5888 25.2189 12.7234 25.1193 12.822C25.0197 12.9207 24.8997 12.9789 24.7746 12.9893C24.6494 12.9998 24.5246 12.962 24.416 12.8808C24.3075 12.7995 24.22 12.6785 24.1646 12.533C24.1093 12.3874 24.0885 12.2239 24.1051 12.0631C24.1216 11.9024 24.1746 11.7515 24.2575 11.6297C24.3124 11.5488 24.3791 11.4827 24.4538 11.4351C24.5285 11.3875 24.6097 11.3595 24.6928 11.3525C24.7759 11.3456 24.8592 11.3599 24.938 11.3946C25.0168 11.4294 25.0895 11.4839 25.152 11.555V11.555Z" fill="#D4E1F4"/>
<path d="M11.9067 42.0346L11.818 41.9967L11.5124 36.6576C11.4951 36.2936 11.4143 35.9393 11.2761 35.6213C11.1379 35.3033 10.9459 35.0298 10.7144 34.8213L6.14888 30.7536C4.91302 29.5475 4.07564 27.7818 3.80475 25.8107L2.11209 14.0337C1.86532 13.6345 1.53518 13.3352 1.16082 13.1713C0.786457 13.0074 0.38359 12.9857 0 13.1089L1.82558 25.8107C2.09648 27.7818 2.93386 29.5475 4.16971 30.7536L8.73525 34.8213C8.96673 35.0298 9.15875 35.3033 9.29694 35.6213C9.43513 35.9393 9.51591 36.2936 9.53325 36.6576L9.83883 41.9967L9.9275 42.0346C11.1837 42.5802 12.5166 42.766 13.8338 42.5791C13.1781 42.4881 12.532 42.3055 11.9067 42.0346Z" fill="#E0AFA9"/>
<path d="M30.2179 10.9187C29.9728 10.9125 29.7314 10.8404 29.5091 10.7068C29.2868 10.5732 29.0885 10.3811 28.9269 10.1428C28.6847 9.81501 28.5159 9.40844 28.4383 8.96639C28.3607 8.52435 28.3773 8.06338 28.4863 7.63255C28.7445 6.66925 29.1751 6.02971 29.766 5.73154C30.7539 5.23346 31.7901 5.94025 31.8338 5.97065C31.944 6.04812 32.026 6.17878 32.0619 6.33412C32.0979 6.48947 32.0849 6.65689 32.0257 6.79987C31.9665 6.94285 31.8661 7.04978 31.7462 7.09734C31.6263 7.14489 31.4967 7.12921 31.3857 7.05371C31.3715 7.04419 30.6796 6.58532 30.1072 6.87796C29.7894 7.04041 29.5461 7.42958 29.3839 8.03462C29.2731 8.44795 29.3681 8.94889 29.6257 9.31073C29.8427 9.61545 30.1213 9.74811 30.3723 9.66489C30.6092 9.58638 30.8183 9.29364 30.8402 9.09414C30.8449 9.05146 30.8547 8.96281 30.6922 8.83896C30.5837 8.75616 30.5051 8.62102 30.4736 8.46327C30.4422 8.30551 30.4605 8.13807 30.5245 7.99777C30.5886 7.85747 30.6931 7.75582 30.8151 7.71516C30.9371 7.6745 31.0666 7.69818 31.1751 7.78098C31.6264 8.1248 31.8469 8.66638 31.7811 9.26661C31.702 9.98773 31.2089 10.6557 30.6086 10.8547C30.481 10.8972 30.3497 10.9187 30.2179 10.9187V10.9187Z" fill="#6D7486"/>
<path d="M30.6272 15.1302H30.6131C30.4882 15.1255 30.3697 15.0573 30.2834 14.9404C30.1971 14.8235 30.1499 14.6674 30.1521 14.5058C30.1482 14.3202 30.0936 14.1424 29.9982 14.0038C29.8902 13.8668 29.7116 13.799 29.4712 13.8053C29.4088 13.8066 29.3469 13.7921 29.2888 13.7624C29.2308 13.7328 29.1779 13.6887 29.133 13.6326C29.0882 13.5766 29.0523 13.5096 29.0275 13.4356C29.0027 13.3616 28.9893 13.282 28.9883 13.2014C28.9873 13.1207 28.9985 13.0406 29.0214 12.9656C29.0443 12.8905 29.0785 12.8221 29.1218 12.7641C29.1652 12.7061 29.217 12.6597 29.2742 12.6276C29.3314 12.5955 29.393 12.5783 29.4554 12.577C30.0975 12.5633 30.4743 12.8787 30.6787 13.1461C30.9522 13.5214 31.1037 14.0181 31.102 14.5337C31.0984 14.6934 31.0469 14.8451 30.9582 14.9565C30.8696 15.0679 30.7508 15.1302 30.6272 15.1302V15.1302Z" fill="#6D7486"/>
<path d="M27.5452 11.6214C27.5405 11.6214 27.5357 11.6214 27.5311 11.6214C27.4061 11.6167 27.2877 11.5486 27.2013 11.4317C27.115 11.3148 27.0678 11.1586 27.0699 10.997C27.0661 10.8114 27.0116 10.6336 26.916 10.495C26.8082 10.358 26.631 10.2902 26.3892 10.2966C26.2632 10.2993 26.1415 10.2372 26.051 10.1239C25.9604 10.0107 25.9084 9.85555 25.9063 9.69267C25.9042 9.52978 25.9522 9.37249 26.0398 9.2554C26.1274 9.1383 26.2474 9.07099 26.3733 9.06828C27.0129 9.05497 27.3925 9.36993 27.5966 9.63729C27.87 10.0126 28.0216 10.5094 28.0199 11.025C28.0164 11.1847 27.9648 11.3364 27.8761 11.4477C27.7875 11.5591 27.6688 11.6214 27.5452 11.6214V11.6214Z" fill="#6D7486"/>
<path d="M26.9325 16.4896C26.3163 16.4896 25.95 16.1817 25.7502 15.92C25.4768 15.5447 25.3253 15.048 25.3269 14.5325C25.3298 14.3696 25.3826 14.2148 25.4737 14.1023C25.5188 14.0466 25.572 14.0029 25.6301 13.9737C25.6883 13.9445 25.7504 13.9305 25.8127 13.9323C25.8751 13.9341 25.9366 13.9518 25.9937 13.9844C26.0508 14.0169 26.1023 14.0637 26.1454 14.122C26.1885 14.1804 26.2223 14.2491 26.2449 14.3243C26.2675 14.3995 26.2783 14.4798 26.2769 14.5604C26.2808 14.746 26.3353 14.9239 26.4308 15.0626C26.5387 15.1994 26.7153 15.2666 26.9578 15.261C27.0201 15.2596 27.0821 15.2742 27.1401 15.3038C27.1982 15.3334 27.2511 15.3775 27.2959 15.4336C27.3408 15.4897 27.3767 15.5566 27.4015 15.6306C27.4263 15.7046 27.4396 15.7842 27.4407 15.8649C27.4417 15.9455 27.4305 16.0257 27.4075 16.1007C27.3846 16.1757 27.3505 16.2442 27.3071 16.3021C27.2638 16.3601 27.212 16.4065 27.1548 16.4386C27.0975 16.4707 27.036 16.4879 26.9736 16.4893C26.9597 16.4894 26.946 16.4896 26.9325 16.4896V16.4896Z" fill="#D3A9A3"/>
<path d="M23.4747 7.15171L22.8826 6.19107L22.8763 6.19772C22.8923 6.17911 22.9067 6.15827 22.9192 6.13559C22.8671 5.9929 22.8595 5.8298 22.898 5.68009C22.9365 5.53038 23.018 5.40555 23.1257 5.33146C23.2334 5.25738 23.3591 5.23973 23.4766 5.28216C23.5941 5.3246 23.6945 5.42388 23.7569 5.55941C24.0367 6.16568 23.8068 6.80952 23.4747 7.15171V7.15171Z" fill="#D3A9A3"/>
<path d="M11.3425 41.3817C11.2229 41.3815 11.1077 41.3229 11.0201 41.2177C10.9324 41.1125 10.8786 40.9684 10.8696 40.8142L10.6869 37.715C10.6817 37.6343 10.6889 37.553 10.7081 37.4759C10.7273 37.3988 10.7581 37.3274 10.7988 37.2657C10.8394 37.204 10.8891 37.1534 10.945 37.1167C11.0008 37.0799 11.0617 37.0579 11.1242 37.0517C11.1867 37.0455 11.2495 37.0554 11.309 37.0808C11.3685 37.1061 11.4235 37.1465 11.4709 37.1995C11.5183 37.2524 11.5572 37.317 11.5852 37.3895C11.6132 37.462 11.6298 37.5409 11.6342 37.6217L11.8168 40.7208C11.8216 40.8012 11.814 40.8821 11.7946 40.9587C11.7752 41.0354 11.7442 41.1063 11.7036 41.1675C11.663 41.2287 11.6134 41.279 11.5578 41.3154C11.5021 41.3519 11.4415 41.3738 11.3793 41.3799C11.3669 41.3812 11.3547 41.3817 11.3425 41.3817V41.3817Z" fill="#F4F8FC"/>
<path d="M11.0533 36.326C10.9336 36.3258 10.8183 36.2672 10.7305 36.1618C10.6428 36.0564 10.5891 35.9121 10.5801 35.7577L10.5639 35.4748C10.5584 35.3937 10.5654 35.3121 10.5845 35.2346C10.6036 35.1571 10.6344 35.0852 10.6752 35.0232C10.7159 34.9613 10.7658 34.9104 10.8219 34.8735C10.878 34.8367 10.9392 34.8146 11.0019 34.8086C11.0647 34.8025 11.1277 34.8127 11.1874 34.8384C11.2471 34.8642 11.3022 34.905 11.3496 34.9585C11.397 35.0121 11.4357 35.0772 11.4634 35.1502C11.4912 35.2233 11.5074 35.3027 11.5112 35.3839L11.5275 35.6667C11.5368 35.8291 11.4958 35.9897 11.4136 36.1131C11.3314 36.2365 11.2146 36.3126 11.089 36.3246C11.077 36.3255 11.0651 36.326 11.0533 36.326V36.326Z" fill="#F4F8FC"/>
<path d="M15.0209 22.8511C13.6672 22.8511 11.8034 22.3442 9.98014 20.2C9.93334 20.1459 9.89528 20.0804 9.86817 20.0073C9.84105 19.9341 9.82542 19.8547 9.82217 19.7737C9.81892 19.6927 9.82812 19.6116 9.84924 19.5352C9.87036 19.4588 9.90298 19.3886 9.94522 19.3285C9.98745 19.2685 10.0385 19.2199 10.0953 19.1856C10.1521 19.1512 10.2137 19.1317 10.2764 19.1283C10.3391 19.1248 10.4017 19.1375 10.4606 19.1655C10.5195 19.1935 10.5735 19.2364 10.6195 19.2915C12.3826 21.3655 14.1715 21.697 15.3608 21.611C15.8296 21.578 16.2783 21.3544 16.6431 20.9723C17.0079 20.5901 17.2701 20.0689 17.3923 19.4827C18.3049 15.1143 15.8078 13.5782 15.0207 13.2114C13.9909 12.7316 13.2026 12.7502 12.6774 13.2671C11.8186 14.1124 11.7432 16.1969 11.7866 16.9288C11.7963 17.0912 11.7556 17.2519 11.6736 17.3756C11.5916 17.4992 11.475 17.5757 11.3494 17.5881C11.2238 17.6006 11.0995 17.548 11.0038 17.442C10.9082 17.336 10.8491 17.1852 10.8394 17.0228C10.8315 16.888 10.6603 13.7088 12.1019 12.2898C12.8997 11.5043 13.9903 11.4254 15.3427 12.0559C16.7803 12.7257 17.7817 13.9435 18.2388 15.5776C18.7138 17.2753 18.4868 18.9537 18.3093 19.8029C18.1353 20.6384 17.7617 21.3815 17.2418 21.9264C16.722 22.4713 16.0824 22.7901 15.4141 22.8374C15.2887 22.846 15.1573 22.8511 15.0209 22.8511V22.8511Z" fill="#E2B0AA"/>
<path d="M36.689 7.54356C36.5584 4.67238 33.7685 5.26504 33.7131 5.27733L32.3158 7.24774C32.9207 10.0657 33.839 10.8569 34.5602 10.6563C35.0107 10.5314 35.3843 10.0206 35.5561 9.37374C35.7833 8.52416 36.7452 8.77391 36.689 7.54356V7.54356Z" fill="#867AF4"/>
<path d="M30.0628 0.000670355C29.1096 0.0242129 29.4255 1.2863 28.8024 1.6855C28.6489 1.78327 28.5071 1.90909 28.3813 2.05911C27.5152 3.09089 27.5619 5.13602 30.8774 5.64475L32.186 3.58119C32.186 3.58119 32.4275 -0.0566507 30.0628 0.000670355V0.000670355Z" fill="#867AF4"/>
<path d="M33.7131 5.27717C33.6978 5.18957 33.6615 5.11043 33.6094 5.05096L32.4267 3.70494C32.3602 3.62836 32.275 3.58451 32.186 3.58109C32.134 3.57839 32.0821 3.58944 32.0335 3.61355C31.9849 3.63766 31.9406 3.67433 31.9034 3.72132L30.9368 5.13694C30.8851 5.20141 30.8514 5.28605 30.8406 5.3778C30.8299 5.46955 30.8428 5.56332 30.8774 5.64464C30.8955 5.68815 30.9197 5.727 30.9486 5.75929L32.1615 7.14011C32.202 7.18639 32.2497 7.22114 32.3013 7.24209C32.3529 7.26304 32.4073 7.26972 32.4611 7.26171C32.5148 7.2537 32.5667 7.23117 32.6133 7.19559C32.6598 7.16 32.7001 7.11216 32.7315 7.05515L33.6601 5.61496C33.6866 5.5665 33.705 5.51144 33.7141 5.45329C33.7232 5.39513 33.7229 5.33515 33.7131 5.27717V5.27717Z" fill="#FF5A81"/>
</svg>
