<svg width="20" height="20" viewBox="0 0 20 20" fill="none" xmlns="http://www.w3.org/2000/svg">
<path d="M10 13.0962C7.20734 13.0962 4.9353 15.3682 4.9353 18.1609C4.9353 18.3225 4.94324 18.4822 4.95819 18.6399C6.47171 19.5266 8.19931 19.9999 10 19.9999C11.8007 19.9999 13.5283 19.5266 15.0418 18.6399C15.0568 18.4821 15.0647 18.3225 15.0647 18.1609C15.0647 15.3682 12.7927 13.0962 10 13.0962Z" fill="#493657"/>
<path d="M17.0711 2.92892C15.1823 1.04019 12.6712 0 10 0C7.3288 0 4.81766 1.04019 2.92892 2.92892C1.04019 4.81766 0 7.3288 0 10C0 12.6711 1.04019 15.1823 2.92892 17.0711C3.19778 17.3401 3.47977 17.5911 3.77258 17.825C3.90366 15.3696 5.46158 13.2869 7.63016 12.3927C6.43814 11.6156 5.6485 10.2708 5.6485 8.74481C5.6485 6.34537 7.60056 4.39331 10 4.39331C12.3994 4.39331 14.3515 6.34537 14.3515 8.74481C14.3515 10.2708 13.5619 11.6156 12.3698 12.3927C14.5384 13.2869 16.0963 15.3696 16.2274 17.825C16.5202 17.5911 16.8022 17.3399 17.0711 17.0711C18.9598 15.1823 20 12.6711 20 10C20 7.3288 18.9598 4.81766 17.0711 2.92892V2.92892Z" fill="#493657"/>
<path d="M13.1796 8.74481C13.1796 6.99142 11.7532 5.56519 10 5.56519C8.24677 5.56519 6.82037 6.99158 6.82037 8.74481C6.82037 10.498 8.24677 11.9244 10 11.9244C11.7532 11.9244 13.1796 10.498 13.1796 8.74481Z" fill="#493657"/>
</svg>
