<svg width="38" height="43" viewBox="0 0 38 43" fill="none" xmlns="http://www.w3.org/2000/svg">
<path d="M35.3795 12.4489H33.4142C33.0523 12.4489 32.759 12.0512 32.759 11.5606C32.759 11.0701 33.0523 10.6724 33.4142 10.6724H35.3795C35.7413 10.6724 36.0346 11.0701 36.0346 11.5606C36.0346 12.0512 35.7413 12.4489 35.3795 12.4489Z" fill="white"/>
<path d="M35.694 0.208559C27.6426 1.17677 1.22821 6.89722 0.0424516 40.305C-0.016509 39.7463 0.00314458 41.8133 0.00314458 4.45448C0.00314458 2.0016 1.46968 0.0131401 3.27873 0.0131401C37.2898 0.0131401 34.9904 -0.0756868 35.694 0.208559V0.208559Z" fill="#26B99A"/>
<path d="M38.0009 4.45442V38.2086C38.0009 40.6615 36.5343 42.65 34.7253 42.65H3.27962C1.94973 42.65 1.15048 42.3746 0.678799 41.8949C0.313847 41.507 0.0837767 40.9313 0.043335 40.3049C1.2291 6.89716 27.6435 1.17671 35.6949 0.208496C37.0629 0.792858 37.9953 2.5096 38.0009 4.45442V4.45442Z" fill="#33907C"/>
<path d="M35.3009 29.1669C35.4807 29.8309 35.3487 30.5763 34.9661 31.0572C28.035 39.6814 9.71853 38.9112 3.12739 31.9516C2.68566 31.487 2.51303 30.691 2.69894 29.9761L8.4856 7.44876C8.61257 6.95483 8.89211 6.56055 9.25111 6.36906C9.6101 6.17756 10.0128 6.20789 10.354 6.45212C14.7793 9.63212 23.2238 9.63923 27.6543 6.43968C27.9933 6.19751 28.3929 6.16602 28.7502 6.35334C29.1075 6.54066 29.3876 6.92846 29.5182 7.41678L35.3009 29.1669Z" fill="#393F4A"/>
<path d="M5.89921 7.11919H2.62362C2.26181 7.11919 1.96851 6.7215 1.96851 6.23092C1.96851 5.74034 2.26181 5.34265 2.62362 5.34265H5.89921C6.26103 5.34265 6.55433 5.74034 6.55433 6.23092C6.55433 6.7215 6.26103 7.11919 5.89921 7.11919Z" fill="white"/>
<path d="M5.24409 39.097H2.62362C2.26181 39.097 1.96851 38.6993 1.96851 38.2087C1.96851 37.7181 2.26181 37.3204 2.62362 37.3204H5.24409C5.6059 37.3204 5.89921 37.7181 5.89921 38.2087C5.89921 38.6993 5.6059 39.097 5.24409 39.097Z" fill="white"/>
<path d="M35.3795 39.097H32.7591C32.3972 39.097 32.1039 38.6993 32.1039 38.2087C32.1039 37.7181 32.3972 37.3204 32.7591 37.3204H35.3795C35.7413 37.3204 36.0346 37.7181 36.0346 38.2087C36.0346 38.6993 35.7413 39.097 35.3795 39.097Z" fill="white"/>
<path d="M4.58897 10.6724H2.62362C2.26181 10.6724 1.96851 10.2747 1.96851 9.78414C1.96851 9.29357 2.26181 8.89587 2.62362 8.89587H4.58897C4.95079 8.89587 5.24409 9.29357 5.24409 9.78414C5.24409 10.2747 4.95079 10.6724 4.58897 10.6724Z" fill="white"/>
<path d="M35.3795 20.4433C35.0177 20.4433 34.7244 20.0456 34.7244 19.555V6.23101H33.4142C33.0523 6.23101 32.759 5.83331 32.759 5.34274C32.759 4.85216 33.0523 4.45447 33.4142 4.45447H35.3795C35.7413 4.45447 36.0346 4.85216 36.0346 5.34274V19.555C36.0346 20.0456 35.7413 20.4433 35.3795 20.4433Z" fill="white"/>
<path d="M24.9042 23.1081C24.3401 23.6615 23.8337 23.7299 23.594 24.6004L22.9323 27.7449C22.5994 28.949 21.8127 29.8153 20.8752 30.0099L15.7981 31.067C14.7341 31.2913 13.735 30.313 13.5576 28.873L13.23 26.7322C13.1993 26.4864 13.0938 26.2695 12.9393 26.1343C12.7848 25.9992 12.5955 25.9583 12.4177 26.0216L11.507 26.3503C10.7903 26.5718 10.0745 25.9757 9.89625 25.0087C9.71797 24.0418 10.1426 23.059 10.8519 22.7972L13.0007 22.051C13.5343 21.864 14.1012 21.9892 14.5633 22.3963C15.0255 22.8033 15.3404 23.4548 15.4312 24.1918L15.4902 24.6981L17.259 23.8986C17.4263 23.8194 17.5633 23.6529 17.6395 23.436C17.7158 23.2192 17.725 22.97 17.6651 22.7439L16.4663 18.418C16.3342 17.9417 16.358 17.4115 16.5318 16.9605C16.7057 16.5094 17.013 16.1802 17.3769 16.0552H17.3834C18.0506 15.8333 18.7325 16.338 18.9557 17.2189L19.7157 20.3278C19.4342 18.1745 20.3508 16.0638 21.876 15.3528C23.4012 14.6418 25.0812 15.542 25.8359 17.4747C26.5906 19.4074 26.1953 21.7974 24.9042 23.1081V23.1081Z" fill="#ECF0F1"/>
<path d="M19.7223 20.3547L19.7156 20.328Z" fill="#464F5D"/>
</svg>
