<svg width="93" height="84" viewBox="0 0 93 84" fill="none" xmlns="http://www.w3.org/2000/svg">
<path d="M47.8203 0.0332336C45.3397 0.174721 42.9142 0.69014 40.9738 1.49863C38.3168 2.59011 36.7071 3.48957 34.7116 4.99541C33.6642 5.7938 33.5098 5.87465 32.8704 5.98582C31.6025 6.20815 30.1141 7.02676 29.3093 7.93633C28.8352 8.47196 28.2509 9.59376 28.0304 10.382C27.6886 11.6251 27.854 13.6464 28.4714 15.4352C28.6588 16.0011 28.6699 16.0011 27.832 14.9804C26.509 13.3331 24.337 11.6959 22.4187 10.8874C20.8752 10.2304 20.0704 10.0789 18.163 10.0789C16.5313 10.0789 16.41 10.0991 15.4839 10.4023C14.9437 10.5741 14.0507 10.9682 13.4994 11.2714C12.5182 11.807 12.4521 11.8272 11.4598 11.898C9.25481 12.0395 7.59003 12.7166 6.18986 14.0304C5.20863 14.9501 4.76763 15.6272 3.90768 17.5575C3.0367 19.4979 2.5957 21.4888 2.23187 25.117C1.96727 27.7446 2.08855 33.0605 2.4634 35.2131C2.70595 36.6684 3.09183 37.487 4.50303 39.6397C7.43568 44.1269 9.29891 48.4523 12.3749 57.932C12.7828 59.1852 13.5325 61.4187 14.0397 62.9043C14.5468 64.3798 14.9658 65.6532 14.9658 65.7138C14.9658 65.8553 14.172 65.4511 12.1544 64.2585C8.96816 62.3889 6.90648 60.8325 5.21965 59.0336C3.75333 57.457 2.9926 56.1836 2.5075 54.4352C2.20982 53.4044 2.1106 51.5044 2.27597 50.2512C2.43032 49.1497 2.91543 47.1183 3.3895 45.663C3.57693 45.1072 3.72025 44.6119 3.72025 44.5513C3.72025 44.3896 2.58468 46.0066 1.95625 47.0678C1.21757 48.3311 0.423771 50.2108 0.170196 51.3629C-0.0833794 52.4948 -0.0503044 54.223 0.247371 55.3044C0.522997 56.2847 1.42705 57.8815 2.16572 58.7001C2.73903 59.3267 4.38175 60.6809 5.87013 61.7421C7.08288 62.6011 12.43 65.1075 14.4917 65.7745C15.1422 65.9867 15.054 65.8452 16.0021 68.1393C17.1818 70.9994 18.8466 74.102 20.2688 76.1233C21.691 78.1445 23.8299 80.3679 25.6049 81.6918C26.531 82.3892 27.9753 83.2987 28.1296 83.2987C28.1958 83.2987 28.0414 83.1067 27.7879 82.8642C25.9467 81.1057 23.3338 77.3967 21.5146 73.9504C19.7506 70.5951 18.571 67.7048 15.2965 58.69C12.5733 51.2012 12.1434 50.0794 11.1842 48.0077C9.50839 44.3896 8.37281 42.3279 6.53163 39.5891C5.05428 37.386 5.0653 37.4062 4.76763 36.6684C4.43688 35.8599 4.02895 33.0605 3.80845 30.1398C3.6541 28.0175 3.6541 27.6334 3.6982 25.0867L3.7423 23.4191L3.98485 24.2782C4.492 26.0063 5.3299 27.6536 6.33318 28.8765C6.65291 29.2605 6.91751 29.6345 6.91751 29.7052C6.91751 29.7659 6.84033 30.1196 6.75213 30.4834C6.54266 31.2919 6.64188 32.0094 7.16006 33.4546C7.45773 34.2834 7.51286 34.5966 7.52388 35.4153C7.52388 35.961 7.55696 36.4057 7.60106 36.4057C7.63413 36.4057 7.74438 36.1934 7.84361 35.9307C8.08616 35.294 8.06411 34.1823 7.78848 32.7169C7.60106 31.6759 7.57901 31.2616 7.64516 29.7861C7.68926 28.5834 7.76643 28.0074 7.86566 27.8659C8.09718 27.5728 8.05308 26.9159 7.75541 26.3398C7.45773 25.7537 6.86238 25.0867 6.63086 25.0867C6.54266 25.0867 6.47651 25.0968 6.47651 25.117C6.47651 25.1271 6.59778 25.6425 6.75213 26.2489C7.03878 27.4111 7.12698 28.4318 6.90648 28.0882C6.63086 27.6536 6.12371 26.0569 5.92526 25.0058C5.64963 23.5707 5.62758 21.4181 5.88116 20.2356C6.25601 18.3862 6.99468 17.0522 8.20743 15.9809C9.35404 14.9703 10.8755 14.3639 12.6836 14.2022C13.2238 14.1618 13.5546 14.0708 13.8412 13.8889C16.1234 12.4639 19.023 12.4336 21.9997 13.8081C23.3558 14.4347 24.326 15.1017 25.6711 16.3043C27.4571 17.9112 28.5927 19.599 29.2542 21.6202C29.5188 22.3984 29.5519 22.6915 29.5629 23.975C29.5629 25.3898 29.4747 26.0063 29.1219 27.1281C28.9565 27.6031 28.9565 27.6132 28.4935 27.6132C28.2399 27.6132 27.8099 27.7143 27.5343 27.8255C27.0161 28.0377 26.2774 28.5127 26.3546 28.5834C26.3767 28.6036 26.7295 28.5127 27.1374 28.3712C27.9753 28.0781 28.6368 28.0377 28.6368 28.2701C28.6368 28.351 28.5596 28.5733 28.4604 28.7552C28.306 29.0584 28.2068 29.1191 27.7989 29.1696C27.2366 29.2403 26.5751 29.5233 26.2774 29.8265C26.0459 30.0589 26.1892 30.1095 26.5531 29.9377C26.7405 29.8366 26.7625 29.8669 26.7625 30.1802C26.7625 30.5845 27.0161 30.7967 27.6115 30.9079C27.9422 30.9685 27.9643 30.9988 28.1517 31.8275C28.3171 32.5451 28.3281 32.7977 28.2289 33.3233C28.0084 34.4754 27.2256 35.6275 26.0239 36.5168C25.649 36.7998 25.1639 37.2445 24.9544 37.5072C24.2268 38.4067 22.9369 38.811 21.1067 38.6998C19.6845 38.6088 18.152 38.1439 17.1487 37.5072C16.5864 37.1434 16.5644 37.3557 17.1156 37.9115C17.6007 38.4067 18.7804 38.9727 19.894 39.2556C20.6216 39.4375 21.0847 39.478 22.8487 39.4881C25.1749 39.5083 25.2962 39.5386 26.7515 40.2562C27.8871 40.812 28.9565 41.6609 30.9851 43.6114C31.9333 44.5311 33.0247 45.5013 33.4106 45.7641C34.6344 46.613 36.7843 47.4215 37.8427 47.4215C38.1293 47.4215 38.0742 47.371 37.3686 47.0071C36.1889 46.4109 35.1195 45.4205 33.1571 43.0859C32.1979 41.9439 31.2387 40.8322 31.0402 40.6301C29.9047 39.478 27.9312 38.6391 26.3546 38.629C26.09 38.629 25.8805 38.5886 25.8805 38.5381C25.8805 38.4876 26.2113 38.154 26.6302 37.7902C27.0382 37.4264 27.6997 36.8402 28.1076 36.4764C28.8683 35.8094 29.2983 35.1626 29.5078 34.3844C29.7283 33.6264 29.7062 33.6467 30.037 33.8791C30.2244 34.0004 30.8528 34.1722 31.5915 34.3137C33.1019 34.6068 33.2453 34.6977 33.0468 35.3344C32.7932 36.1631 33.0909 36.7998 33.8516 37.1232C34.436 37.3658 35.9243 37.3759 37.2914 37.1636C38.6144 36.9514 38.8239 36.82 37.8427 36.8099C36.5748 36.8099 35.2408 36.6179 34.7006 36.3753C34.006 36.0519 33.7965 35.6376 33.9509 34.8695C34.1493 33.9094 33.7855 33.6163 32.0325 33.2727C31.4812 33.1616 30.9631 33.0201 30.8859 32.9594C30.6213 32.7573 30.7095 32.4238 31.382 31.1403C32.3632 29.2605 32.5507 28.6137 32.5396 27.209C32.5396 25.8749 32.4625 25.5313 31.6576 22.934C30.8418 20.2963 30.6985 19.5282 30.7536 18.1133C30.7977 17.1633 30.8749 16.7894 31.1395 16.0618C31.3269 15.5767 31.4482 15.1825 31.4041 15.1825C31.3048 15.1825 30.6323 16.1426 30.4008 16.6277C30.2905 16.8602 30.1362 17.2745 30.059 17.5474C29.8936 18.1437 29.8275 18.0527 29.5629 16.8501C29.2983 15.6676 29.2983 13.9496 29.5519 13.0602C30.2244 10.7257 31.823 9.27036 34.2596 8.75494C34.8218 8.63366 35.1967 8.45174 36.0236 7.90601C38.6475 6.18794 41.5471 5.03583 44.5018 4.55073C45.472 4.39913 46.2768 4.3385 47.8754 4.3385C50.1135 4.32839 50.9294 4.41935 53.0021 4.92466C58.2169 6.20815 62.8915 9.6645 65.6037 14.2527C67.4118 17.2846 68.1284 19.9426 68.1394 23.6212C68.1505 25.2686 68.1064 25.8648 67.9079 26.8552C67.2574 30.2206 67.3236 33.202 68.1064 35.7993C68.7127 37.77 69.4624 39.1344 71.91 42.7726C74.4568 46.5422 75.1624 48.3816 75.1624 51.272C75.1624 54.6677 73.9606 58.5182 71.5131 63.0155C70.8185 64.2787 70.6201 64.7436 70.9398 64.3798C71.3257 63.9351 72.8361 61.8128 73.6189 60.6102C76.0554 56.8607 77.1358 54.0714 77.4225 50.8071C77.5768 49.2002 76.9705 46.7848 75.9672 44.9556C75.7467 44.5614 74.8426 43.187 73.9496 41.9136C73.0566 40.6301 72.1195 39.2051 71.8659 38.7402C70.0909 35.5163 69.8704 32.7775 71.0611 29.0786C71.9761 26.2084 72.2738 24.7936 72.373 22.7117C72.4833 20.2053 72.1305 17.9718 71.2044 15.3947C69.4183 10.4427 65.9895 6.34965 61.2157 3.45925C57.0924 0.973114 52.4288 -0.219429 47.8203 0.0332336ZM31.2938 25.6829C31.4702 26.8249 31.371 28.1994 31.0623 28.9776C30.7646 29.7153 29.7393 31.8781 29.618 31.9993C29.4857 32.1408 29.188 31.0696 29.188 30.4329V29.8568L29.7062 29.776C30.3677 29.6547 30.478 29.4323 29.8606 29.4323C29.607 29.4323 29.4085 29.4121 29.4085 29.3818C29.4085 29.3515 29.607 28.9068 29.8495 28.3914C30.2905 27.4313 30.7646 25.9255 30.9079 25.0462C31.0072 24.4095 31.1174 24.6016 31.2938 25.6829Z" fill="#FF748F"/>
<path d="M32.2641 15.4554C32.1538 18.0831 32.7492 19.7102 34.3699 21.2766C36.4536 23.2979 38.9893 24.3692 43.5758 25.1777C45.9351 25.592 48.5039 25.8144 51.8445 25.8851L54.6008 25.9457L53.6747 26.3803C53.1785 26.6228 52.7816 26.8452 52.8147 26.8654C52.8478 26.8957 53.2447 26.8452 53.7077 26.7643C55.0197 26.5117 55.8797 26.6026 56.3978 27.0372C57.0263 27.5728 57.1145 28.1489 56.7176 29.1494C56.3648 30.0388 55.7694 30.8271 54.8323 31.6255C53.7739 32.5249 52.8368 33.0302 51.4586 33.4446C51.0507 33.5659 51.8996 33.6871 52.7265 33.6265C54.5787 33.4749 56.0561 32.8281 57.2247 31.6558C57.5665 31.3021 57.8531 31.0696 57.8531 31.1302C57.8531 31.201 57.4783 32.2217 57.0152 33.4042C55.1961 38.0328 54.9536 39.2658 55.3835 41.5599C55.6261 42.8535 55.9789 43.8237 56.6955 45.1476C57.5444 46.704 58.5146 47.8561 60.2676 49.3923C65.725 54.1422 66.7724 55.3651 67.2354 57.5177C67.4339 58.4475 67.3016 60.4485 66.9488 61.7522C66.3865 63.8846 65.0194 67.4016 63.3657 70.9691C62.8695 72.0505 62.4175 73.051 62.3624 73.1925L62.2632 73.4452L62.4726 73.1925C63.09 72.4851 66.0227 67.3309 67.059 65.1277C68.5364 62.0049 69.0215 60.2363 69.0325 57.9826C69.0325 56.3049 68.8892 55.6784 68.1615 54.3443C67.467 53.0507 66.7724 52.2624 64.6997 50.413C61.2268 47.3306 60.0361 46.1785 59.4297 45.3396C57.9744 43.2881 57.5003 41.0647 58.0626 38.8817C58.1949 38.3764 58.5698 37.1536 58.9005 36.1531C60.1133 32.4238 60.3889 31.2212 60.3889 29.6244C60.3889 28.4218 60.2456 27.7548 59.8156 26.9766C59.2423 25.9356 58.3272 25.2585 56.7617 24.7431C55.8135 24.4298 55.152 24.3085 53.3329 24.1266C48.2614 23.6213 44.0168 22.8128 40.8967 21.7415C37.5892 20.6096 35.296 19.2857 33.8407 17.6788C33.3115 17.0825 32.672 16.0012 32.5507 15.5161C32.4405 15.0411 32.2751 15.0108 32.2641 15.4554Z" fill="#FF748F"/>
<path d="M16.1234 19.3564C16.1234 21.1149 15.8478 21.8729 14.613 23.5505C13.7531 24.7127 13.0805 26.0771 13.0144 26.7643C12.9593 27.4313 13.1136 28.0276 13.2569 27.6638C13.5767 26.8148 14.1169 26.067 15.065 25.1473C16.2006 24.0356 16.9062 23.116 17.0165 22.6005C17.1047 22.1761 17.237 22.0851 17.3913 22.3479C17.5567 22.641 18.9899 23.6415 19.7066 23.975C21.1729 24.6521 23.1133 24.9553 24.9214 24.7835C25.4727 24.733 26.1121 24.6319 26.3216 24.5611C26.6964 24.4399 26.7075 24.4399 26.4318 24.3691C26.2775 24.3287 25.9908 24.2984 25.7814 24.2883C25.2963 24.2782 23.3338 23.6718 22.4518 23.2574C20.357 22.2872 17.7882 20.3064 16.7298 18.8208C16.4101 18.3761 16.1455 18.0123 16.1345 18.0123C16.1345 18.0123 16.1234 18.6187 16.1234 19.3564Z" fill="#FF748F"/>
<path d="M34.9763 24.7836C34.3037 24.9048 33.2453 25.2687 32.9366 25.4809C32.209 25.9761 33.0248 26.1176 34.9542 25.8346C36.5639 25.6022 37.49 25.6729 38.7248 26.1277C39.6509 26.4713 39.6729 26.4713 39.4194 26.2287C38.9673 25.774 37.8097 25.0766 37.1923 24.8745C36.5639 24.6724 35.759 24.6421 34.9763 24.7836Z" fill="#FF748F"/>
<path d="M80.8623 25.2889C79.3629 25.6426 78.3817 26.7846 77.9297 28.7351C77.3674 31.0899 78.0069 35.4457 79.2637 37.8914C79.848 39.0233 80.3662 39.2153 82.4389 39.0334C85.4487 38.7807 88.9988 37.6286 90.8841 36.2946C91.8984 35.577 92.8465 34.1217 92.9788 33.0606C93.1332 31.8074 92.4386 30.7462 91.0605 30.1197C90.4541 29.8468 90.2226 29.7963 89.5611 29.7963C88.6019 29.7963 87.4773 30.0994 86.5843 30.5947C86.2315 30.7867 85.9118 30.9484 85.8677 30.9484C85.8346 30.9484 85.8126 30.4936 85.8346 29.9276C85.8677 29.1191 85.8236 28.7654 85.6472 28.2298C85.2282 26.9564 84.3132 25.9559 83.1666 25.4809C82.5822 25.2484 81.4577 25.1575 80.8623 25.2889Z" fill="#493657"/>
<path d="M8.54929 25.6628C9.27694 26.6229 9.50847 27.4516 9.72897 29.9377C9.94947 32.343 10.0707 32.7271 10.8756 33.576C13.8854 36.6988 15.043 39.2557 15.3517 43.4801C15.473 45.1073 15.7707 46.0168 16.7299 47.7955C17.2039 48.6748 17.9095 49.8269 18.2954 50.3625C19.2766 51.7471 21.6139 54.8598 23.1464 56.8406C27.0052 61.8331 29.7835 66.2293 31.0072 69.2915C31.779 71.2218 32.4736 74.0213 32.5066 75.3351C32.5177 75.8404 32.65 75.4564 32.9256 74.1526C33.2012 72.7984 33.3776 71.3835 33.3776 70.3527V69.5947L34.2596 68.958C35.8582 67.7958 38.2727 65.2389 41.5141 61.2267C42.5835 59.9028 44.3585 57.7199 45.439 56.3757C49.4521 51.4237 50.2679 50.6556 52.5611 49.6551C53.9834 49.0386 55.3174 48.6748 56.9491 48.4625C57.6216 48.3716 58.1839 48.2604 58.1839 48.2301C58.1839 47.9976 55.4166 47.9673 54.0716 48.1796C52.1312 48.4928 50.1467 49.3418 48.548 50.5646C47.5889 51.2923 45.6705 53.1316 41.8007 57.0225C38.7247 60.115 36.8725 62.0959 33.9619 65.4006C33.3115 66.1485 32.7161 66.7751 32.65 66.7953C32.5948 66.8155 32.3964 66.5022 32.231 66.098C32.0656 65.6937 31.6246 64.8448 31.2718 64.2182L30.6214 63.0661L30.6875 62.0959C30.8198 60.297 30.3678 56.78 29.7724 54.9103C29.4086 53.738 28.9235 52.6364 28.4825 51.9694L28.1077 51.4136L28.0525 49.645C27.9864 47.6945 27.8541 47.0274 27.2587 45.8551C26.8839 45.1073 26.1673 44.1674 25.7814 43.9248C25.4947 43.7328 25.4947 43.7227 25.8145 44.511C26.4098 45.9562 26.5421 47.4115 26.3106 49.8774L26.2003 51.1407L26.6965 51.9795C27.369 53.1316 27.7108 54.0008 28.0856 55.5066C28.4715 57.1236 28.4935 57.1943 28.692 58.9326C28.8463 60.1858 28.8463 60.6204 28.714 60.4486C28.692 60.4283 28.3392 59.9837 27.9313 59.4682C27.5233 58.9528 26.4429 57.6794 25.5278 56.6385C19.7397 50.0896 18.8356 48.9375 17.4685 46.4615C16.7078 45.0668 16.5094 44.3594 16.5094 43.0658C16.5094 41.6004 16.3219 40.0945 16.0022 38.9525C15.484 37.1132 14.6682 35.8398 12.9483 34.2026C11.2614 32.6058 11.1181 32.3026 10.6661 29.6346C10.2912 27.3708 10.0156 26.7037 9.12259 25.8851C8.53827 25.3495 8.20752 25.2282 8.54929 25.6628Z" fill="#FF748F"/>
<path d="M34.921 27.5223C34.7667 27.583 34.3367 27.6032 33.9288 27.5729L33.2122 27.5223L33.5098 27.7649C33.6752 27.8963 34.0942 28.058 34.447 28.1287C34.7998 28.1994 35.1967 28.351 35.34 28.4622C35.803 28.8361 37.5891 28.8058 38.7026 28.4016C38.868 28.3409 39.0003 28.2601 39.0003 28.2197C39.0003 28.1792 38.5924 28.0984 38.0852 28.0276C37.5781 27.967 36.8284 27.8255 36.3984 27.7042C35.329 27.4111 35.2297 27.401 34.921 27.5223Z" fill="#FF748F"/>
<path d="M25.8255 33.2324C25.6601 33.3536 25.4286 33.384 24.8663 33.3435C24.4474 33.3233 24.1166 33.3334 24.1166 33.384C24.1166 33.576 24.712 33.8084 25.186 33.8084C25.605 33.8084 25.7373 33.7579 25.9578 33.5356C26.3547 33.1111 26.2775 32.9191 25.8255 33.2324Z" fill="#FF748F"/>
<path d="M22.4627 35.1021C22.4627 35.1425 22.6391 35.3143 22.8596 35.476C23.7857 36.1733 25.1308 36.1632 25.7482 35.4457C25.8805 35.284 25.9797 35.1425 25.9577 35.1223C25.9356 35.1021 25.7372 35.1627 25.5167 35.2436C24.9764 35.4457 23.7527 35.4356 23.0471 35.2031C22.7273 35.1021 22.4627 35.0616 22.4627 35.1021Z" fill="#FF748F"/>
<path d="M23.1243 36.2845C23.1243 36.4462 23.5322 36.7191 23.9401 36.8201C24.4142 36.9414 24.8221 36.7898 25.0977 36.4058L25.2741 36.1632L24.9985 36.335C24.6677 36.5473 24.0503 36.5574 23.5212 36.3553C23.3007 36.2744 23.1243 36.2441 23.1243 36.2845Z" fill="#FF748F"/>
<path d="M34.2596 38.1642C33.9619 38.8817 34.3257 39.4275 35.1746 39.5083C35.6708 39.5588 35.7038 39.579 35.6487 39.8317C35.2739 41.6205 35.2849 42.6008 35.7038 43.3386C36.7071 45.1274 39.9264 45.1274 44.3805 43.3285C44.8656 43.1364 45.4389 42.9747 45.6374 42.9747C46.5524 42.9747 47.0486 44.0359 47.0486 45.9561C47.0486 47.0375 46.7068 49.3619 46.4312 50.0794C46.1445 50.8374 46.3099 50.7364 46.6517 49.938C47.5226 47.8864 47.9526 46.1481 47.9636 44.5412C47.9747 43.1364 47.7983 42.4694 47.225 41.9237C46.5745 41.287 46.0232 41.3274 43.8513 42.1662C43.3993 42.3381 42.4291 42.6412 41.7014 42.8434C40.4997 43.1769 40.2461 43.2072 39.0003 43.2173C37.6773 43.2274 37.6001 43.2173 37.093 42.9444C36.4315 42.5907 36.1448 42.0652 36.1338 41.2567C36.1338 40.9535 36.0566 40.428 35.9795 40.0945C35.8913 39.761 35.8251 39.4881 35.8361 39.478C36.4094 39.2556 37.1812 38.8413 37.3576 38.6695C37.6442 38.3865 37.6001 38.3764 36.7953 38.5785C36.0787 38.7503 35.329 38.7705 35.0203 38.619C34.899 38.5684 34.7006 38.3764 34.5903 38.1945L34.3808 37.8812L34.2596 38.1642Z" fill="#FF748F"/>
<path d="M59.3965 63.6118C58.8232 64.0565 55.8244 66.5022 52.7264 69.0389C46.1886 74.4154 45.5161 74.9611 43.9615 76.184C42.6055 77.2452 36.4425 81.4089 34.5682 82.5307C33.8516 82.9552 33.2673 83.319 33.2673 83.3493C33.2673 83.5211 37.7324 81.793 39.75 80.843C41.2273 80.1558 44.6671 78.2052 45.7696 77.4271C46.0783 77.2148 46.6186 76.8409 46.9714 76.5984C49.452 74.85 52.7705 71.9191 55.0417 69.4532C57.39 66.9064 60.7967 62.773 60.5321 62.7932C60.488 62.7932 59.9698 63.157 59.3965 63.6118Z" fill="#FF748F"/>
</svg>
